<?xml version="1.0" standalone="no"?>
<!DOCTYPE svg PUBLIC "-//W3C//DTD SVG 1.1//EN" "http://www.w3.org/Graphics/SVG/1.1/DTD/svg11.dtd" >
<svg xmlns="http://www.w3.org/2000/svg" xmlns:xlink="http://www.w3.org/1999/xlink" version="1.1">
<metadata>
Created by FontForge 20170731 at Tue Mar 31 13:49:28 2020
 By Aleksey,,,
Copyright 2019 The Manrope Project Authors (https://github.com/sharanda/manrope)
</metadata>
<defs>
<font id="Manrope-ExtraLight" horiz-adv-x="1146" >
  <font-face 
    font-family="Manrope ExtraLight"
    font-weight="200"
    font-stretch="normal"
    units-per-em="2000"
    panose-1="0 0 3 0 0 0 0 0 0 0"
    ascent="1600"
    descent="-400"
    x-height="1080"
    cap-height="1440"
    bbox="-400 -510 2524 2126"
    underline-thickness="50"
    underline-position="-150"
    unicode-range="U+000D-FB02"
  />
<missing-glyph horiz-adv-x="1480" 
d="M200 1440h1080v-26h-1080v26zM200 1330h1080v-32h-1080v32zM200 1220h1080v-36h-1080v36zM200 1108h1080v-42h-1080v42zM200 996h1080v-44h-1080v44zM200 886h1080v-48h-1080v48zM200 776h1080v-56h-1080v56zM200 666h1080v-60h-1080v60zM200 556h1080v-66h-1080v66z
M200 444h1080v-70h-1080v70zM200 334h1080v-74h-1080v74zM200 224h1080v-80h-1080v80zM200 114h1080v-114h-1080v114z" />
    <glyph glyph-name="parenleft_c_parenright.liga" unicode="&#x28;c&#x29;" horiz-adv-x="1696" 
d="M503 82.5q-158 92.5 -250.5 250.5t-92.5 345t92.5 345t250.5 250.5t345 92.5t345 -92.5t250.5 -250.5t92.5 -345t-92.5 -345t-250.5 -250.5t-345 -92.5t-345 92.5zM1147.5 158.5q137.5 80.5 218 219t80.5 302.5q0 162 -80.5 299.5t-218 218t-299.5 80.5
q-164 0 -302.5 -80.5t-219 -218t-80.5 -299.5q0 -164 80.5 -302.5t219 -219t302.5 -80.5q162 0 299.5 80.5zM570 388q-48 61 -67 135t-19 159q2 85 21 158.5t65 131.5q102 128 286 128q111 0 194 -50q45 -28 79.5 -69.5t50.5 -90.5l-82 -28q-15 34 -41 64.5t-57 51.5
q-60 40 -146 40q-64 0 -119 -26t-93 -74q-35 -45 -50.5 -106t-15.5 -128q0 -71 17 -134.5t49 -107.5q36 -49 90.5 -74.5t119.5 -25.5q82 0 150 40q58 36 94 114l84 -30q-23 -52 -56 -90t-68 -60q-88 -56 -204 -56q-180 0 -282 128z" />
    <glyph glyph-name="space_less_three_space.liga" unicode="&#x20;&#x3c;&#x33;&#x20;" horiz-adv-x="2342" 
d="M1108 -4l-446 470q-52 56 -77 123.5t-25 139.5q0 98 44 185.5t123.5 141.5t178.5 54q132 0 266 -110q61 55 128 82.5t134 27.5q101 0 180 -54t123 -142t44 -185q0 -72 -25.5 -140t-77.5 -123l-446 -470q-23 -26 -60 -26q-41 0 -64 26zM1677.5 619.5q19.5 52.5 19.5 108.5
q0 76 -33.5 144.5t-94 111t-135.5 42.5q-64 0 -131.5 -35.5t-130.5 -106.5q-72 72 -137.5 107t-128.5 35q-75 0 -134.5 -42t-92.5 -111t-33 -145q0 -57 19.5 -109.5t58.5 -94.5l448 -470l446 470q40 43 59.5 95.5z" />
    <glyph glyph-name="uniE003" unicode="&#x28;&#x3e;&#x29;" horiz-adv-x="2300" 
d="M1646 -136.5q227 133.5 360.5 360.5t133.5 496t-133.5 496t-360.5 360.5t-496 133.5t-496 -133.5t-360.5 -360.5t-133.5 -496t133.5 -496t360.5 -360.5t496 -133.5t496 133.5zM698 -61q-208 121 -329 329t-121 456q0 244 121 450.5t329 327t456 120.5q244 0 450 -121
t327 -327t121 -450q0 -248 -120.5 -456t-327 -329t-450.5 -121q-248 0 -456 121zM1388 720l-360 -300v600z" />
    <glyph glyph-name="f_f" unicode="ff" horiz-adv-x="1256" 
d="M963.5 1347.5q-45.5 -46.5 -45.5 -153.5v-114h318v-84h-318v-996h-84v996h-494v-996h-84v996h-196v84h196v122q0 67 14 114t50 86q35 36 83 52t115 16h140v-76h-130q-97 0 -142.5 -46.5t-45.5 -153.5v-114h494v122q0 67 14 114t50 86q35 36 83 52t115 16h140v-76h-130
q-97 0 -142.5 -46.5z" />
    <glyph glyph-name="f_f_l" unicode="ffl" horiz-adv-x="1740" 
d="M1580 1470v-1470h-84v996h-578v-996h-84v996h-494v-996h-84v996h-196v84h196v122q0 67 14 114t50 86q35 36 83 52t115 16h140v-76h-130q-97 0 -142.5 -46.5t-45.5 -153.5v-114h494v122q0 67 14 114t50 86q35 36 83 52t115 16h140v-76h-130q-97 0 -142.5 -46.5
t-45.5 -153.5v-114h578v390h84z" />
    <glyph glyph-name="t_t.liga" unicode="tt" horiz-adv-x="1396" 
d="M996 358v-60q0 -49 4 -78.5t18 -55.5q25 -51 71.5 -73.5t118.5 -22.5q56 0 128 12v-80q-72 -15 -128 -15q-92 0 -162.5 34.5t-103.5 106.5q-19 42 -24.5 87t-5.5 115v30v638h-554v-638v-60q0 -49 4 -78.5t18 -55.5q25 -51 71.5 -73.5t118.5 -22.5q56 0 128 12v-80
q-72 -15 -128 -15q-92 0 -162.5 34.5t-103.5 106.5q-19 42 -24.5 87t-5.5 115v30v638h-254v84h254v300h84v-300h554v300h84v-300h340v-84h-340v-638z" />
    <glyph glyph-name="fi" unicode="fi" horiz-adv-x="1112" 
d="M385.5 1347.5q-45.5 -46.5 -45.5 -153.5v-114h318v-84h-318v-996h-84v996h-196v84h196v122q0 67 14 114t50 86q35 36 83 52t115 16h140v-76h-130q-97 0 -142.5 -46.5zM868 1440h84v-128h-84v128zM868 1080h84v-1080h-84v1080z" />
    <glyph glyph-name="fl" unicode="fl" horiz-adv-x="1162" 
d="M1002 1470v-1470h-84v996h-578v-996h-84v996h-196v84h196v122q0 67 14 114t50 86q35 36 83 52t115 16h140v-76h-130q-97 0 -142.5 -46.5t-45.5 -153.5v-114h578v390h84z" />
    <glyph glyph-name="hyphen_hyphen.liga" unicode="&#x2d;&#x2d;" horiz-adv-x="1080" 
d="M120 672h840v-84h-840v84z" />
    <glyph glyph-name="hyphen_greater.liga" unicode="&#x2d;&#x3e;" horiz-adv-x="1988" 
d="M280 588v84h1276l-366 366l56 54l462 -462l-462 -462l-56 54l366 366h-1276z" />
    <glyph glyph-name="less_hyphen.liga" unicode="&#x3c;&#x2d;" horiz-adv-x="1988" 
d="M798 222l-56 -54l-462 462l462 462l56 -54l-366 -366h1276v-84h-1276z" />
    <glyph glyph-name=".notdef" horiz-adv-x="1480" 
d="M200 1440h1080v-26h-1080v26zM200 1330h1080v-32h-1080v32zM200 1220h1080v-36h-1080v36zM200 1108h1080v-42h-1080v42zM200 996h1080v-44h-1080v44zM200 886h1080v-48h-1080v48zM200 776h1080v-56h-1080v56zM200 666h1080v-60h-1080v60zM200 556h1080v-66h-1080v66z
M200 444h1080v-70h-1080v70zM200 334h1080v-74h-1080v74zM200 224h1080v-80h-1080v80zM200 114h1080v-114h-1080v114z" />
    <glyph glyph-name=".null" horiz-adv-x="1200" 
 />
    <glyph glyph-name="uni000D" unicode="&#xd;" horiz-adv-x="1200" 
 />
    <glyph glyph-name="space" unicode=" " horiz-adv-x="400" 
 />
    <glyph glyph-name="exclam" unicode="!" horiz-adv-x="564" 
d="M324 1440v-1080h-84v1080h84zM240 128h84v-128h-84v128z" />
    <glyph glyph-name="quotedbl" unicode="&#x22;" horiz-adv-x="684" 
d="M120 1440h84v-360h-84v360zM400 1440h84v-360h-84v360z" />
    <glyph glyph-name="numbersign" unicode="#" horiz-adv-x="1826" 
d="M556 462h-436l22 84h438l100 378h-436l22 84h438l114 432h88l-116 -432h394l114 432h88l-116 -432h436l-22 -84h-436l-102 -378h436l-22 -84h-436l-124 -462h-86l122 462h-392l-124 -462h-86zM1060 546l100 378h-392l-102 -378h394z" />
    <glyph glyph-name="dollar" unicode="$" horiz-adv-x="1126" 
d="M1009.5 164.5q-56.5 -90.5 -160.5 -141t-243 -53.5v-166h-84v169q-120 11 -216 61t-159.5 133t-86.5 191l80 16q24 -98 86.5 -170.5t156 -111t207.5 -38.5q119 0 208.5 40t138.5 113.5t49 170.5q0 75 -28.5 127.5t-91 91.5t-168.5 71l-302 94q-138 43 -210 127t-72 201
q0 106 51 189.5t144 133t213 56.5v171h84v-172q122 -9 219 -63t158 -145.5t77 -209.5l-80 -16q-14 104 -71 184t-147.5 124t-201.5 44q-104 0 -186 -37.5t-128 -104.5t-46 -152q0 -95 64.5 -159t203.5 -107l286 -88q165 -51 238.5 -136.5t73.5 -227.5q0 -119 -56.5 -209.5z
" />
    <glyph glyph-name="percent" unicode="%" horiz-adv-x="1804" 
d="M299.5 798q-82.5 48 -131 131t-48.5 181q0 96 49.5 179t132.5 132t178 49q98 0 180.5 -48t131 -131t48.5 -181t-48.5 -181t-131 -131t-180.5 -48t-180.5 48zM180 60l1384 1380l60 -58l-1384 -1382zM617.5 871.5q63.5 37.5 101 101t37.5 137.5t-37.5 137.5t-101 101
t-137.5 37.5t-137.5 -37.5t-101 -101t-37.5 -137.5t37.5 -137.5t101 -101t137.5 -37.5t137.5 37.5zM1143.5 18q-82.5 48 -131 131t-48.5 181q0 96 49.5 179t132.5 132t178 49q98 0 180.5 -48t131 -131t48.5 -181t-48.5 -181t-131 -131t-180.5 -48t-180.5 48zM1461.5 91.5
q63.5 37.5 101 101t37.5 137.5t-37.5 137.5t-101 101t-137.5 37.5t-137.5 -37.5t-101 -101t-37.5 -137.5t37.5 -137.5t101 -101t137.5 -37.5t137.5 37.5z" />
    <glyph glyph-name="ampersand" unicode="&#x26;" horiz-adv-x="1280" 
d="M371 4.5q-99 34.5 -165 105.5q-50 53 -76.5 122.5t-29.5 147.5q-2 74 21 146.5t69 127.5q60 75 174 118q-65 65 -101 111t-55.5 98.5t-19.5 120.5q0 103 49.5 189.5t136.5 130.5q96 48 214 48q75 0 146 -19t122 -55q36 -24 65 -58.5t47 -73.5l-78 -36q-26 60 -84 100
q-42 29 -96.5 43.5t-113.5 14.5q-99 0 -182 -40q-67 -34 -101.5 -96t-34.5 -144q0 -66 19.5 -112t68.5 -104q26 -30 88 -84l20 -18l518 -482q10 55 10 120l-2 234h90v-194q0 -88 -7 -139.5t-19 -88.5l190 -176l-58 -62l-172 162q-21 -38 -63 -75t-87 -61q-104 -56 -280 -56
q-124 0 -223 34.5zM728 64.5q57 10.5 106 39.5q55 34 81 62t47 60l-526 480q-114 -33 -178 -108q-34 -41 -51 -94.5t-17 -111.5q0 -65 19.5 -122t58.5 -98q52 -59 138 -88.5t184 -29.5q81 0 138 10.5z" />
    <glyph glyph-name="quotesingle" unicode="'" horiz-adv-x="364" 
d="M120 1440h84v-360h-84v360z" />
    <glyph glyph-name="parenleft" unicode="(" horiz-adv-x="816" 
d="M382.5 123.5q-102.5 263.5 -102.5 536.5t102.5 536.5t281.5 467.5l62 -52q-173 -204 -269.5 -451.5t-96.5 -500.5q0 -166 44.5 -337t127 -328t194.5 -285l-62 -54q-179 204 -281.5 467.5z" />
    <glyph glyph-name="parenright" unicode=")" horiz-adv-x="816" 
d="M90 -290q112 128 194.5 285t127 328t44.5 337q0 253 -96.5 500.5t-269.5 451.5l62 52q179 -204 281.5 -467.5t102.5 -536.5t-102.5 -536.5t-281.5 -467.5z" />
    <glyph glyph-name="asterisk" unicode="*" horiz-adv-x="836" 
d="M158 864l162 222l-260 84l26 80l260 -84v274h84v-274l260 84l26 -80l-260 -84l160 -222l-68 -50l-160 222l-162 -222z" />
    <glyph glyph-name="plus" unicode="+" horiz-adv-x="1160" 
d="M538 678h-418v84h418v418h84v-418h418v-84h-418v-418h-84v418z" />
    <glyph glyph-name="comma" unicode="," horiz-adv-x="480" 
d="M174.5 -106.5q11.5 21.5 11.5 64.5v42h-66v180h120v-240q0 -56 -27 -88.5t-68 -32.5q-13 0 -25 3l6 52q37 -2 48.5 19.5z" />
    <glyph glyph-name="hyphen" unicode="-" horiz-adv-x="840" 
d="M120 672h600v-84h-600v84z" />
    <glyph glyph-name="period" unicode="." horiz-adv-x="440" 
d="M160 120h120v-120h-120v120z" />
    <glyph glyph-name="slash" unicode="/" horiz-adv-x="714" 
d="M594 1440l-384 -1440h-90l384 1440h90z" />
    <glyph glyph-name="zero" unicode="0" horiz-adv-x="1156" 
d="M359.5 29.5q-100.5 59.5 -160 160t-59.5 218.5v624q0 118 59.5 218.5t160 160t218.5 59.5t218.5 -59.5t160 -160t59.5 -218.5v-624q0 -118 -59.5 -218.5t-160 -160t-218.5 -59.5t-218.5 59.5zM754.5 102q81.5 48 129.5 129.5t48 176.5v624q0 95 -48 176.5t-129.5 129.5
t-176.5 48t-176.5 -48t-129.5 -129.5t-48 -176.5v-624q0 -95 48 -176.5t129.5 -129.5t176.5 -48t176.5 48z" />
    <glyph glyph-name="one" unicode="1" horiz-adv-x="716" 
d="M392 1342l-272 -162v98l272 162h84v-1440h-84v1342z" />
    <glyph glyph-name="two" unicode="2" horiz-adv-x="1106" 
d="M226 84h780v-84h-906l2 84l674 614q86 77 116 152t30 174q0 98 -48.5 181.5t-132 132t-181.5 48.5q-101 0 -184 -49.5t-130.5 -133t-47.5 -179.5h-84q0 121 60 223.5t162.5 162.5t223.5 60q123 0 225.5 -61t161.5 -163.5t59 -221.5q0 -123 -40.5 -213.5t-133.5 -174.5z
" />
    <glyph glyph-name="three" unicode="3" horiz-adv-x="1068" 
d="M516 892q126 0 224 -57t153 -161.5t55 -241.5q0 -138 -54.5 -243t-154 -162t-229.5 -57q-159 0 -272 78t-158 218l78 28q42 -117 131.5 -178.5t207.5 -61.5q115 0 196 46t123 131t42 201q0 115 -43.5 200t-124 130.5t-186.5 45.5q-43 0 -93 -12t-93 -32l-50 68l545 524
h-675v84h798v-86l-489 -466q32 4 69 4z" />
    <glyph glyph-name="four" unicode="4" horiz-adv-x="1154" 
d="M798 306h-698v84l496 1050h92l-496 -1050h606v450h84v-450h172v-84h-172v-306h-84v306z" />
    <glyph glyph-name="five" unicode="5" horiz-adv-x="1144" 
d="M803.5 867q110.5 -65 175.5 -175t65 -240q0 -128 -65 -239t-175.5 -177t-239.5 -66q-112 0 -207.5 46t-162 128t-94.5 186l80 22q22 -89 80 -156t137.5 -103.5t166.5 -36.5q110 0 201 54t143 145t52 197q0 109 -54.5 200t-145.5 143.5t-196 52.5q-111 0 -198.5 -52.5
t-143.5 -145.5l-86 50l44 740h760v-84h-680l-34 -565q65 66 152.5 103.5t185.5 37.5q129 0 239.5 -65z" />
    <glyph glyph-name="six" unicode="6" horiz-adv-x="1240" 
d="M860 865q110 -65 175 -175t65 -240t-65 -240t-175 -175t-240 -65t-240 65t-175 175t-65 240v540q0 130 64.5 240t174.5 175t241 65q130 0 241 -65t173 -175l-72 -42q-52 90 -143 144t-199 54q-110 0 -201 -54.5t-143 -145.5t-52 -196v-274q69 99 172 156.5t224 57.5
q130 0 240 -65zM819 107q91 53 144 144t53 199t-53 199t-144 144t-199 53t-199 -53t-144 -144t-53 -199t53 -199t144 -144t199 -53t199 53z" />
    <glyph glyph-name="seven" unicode="7" horiz-adv-x="962" 
d="M772 1354h-692v86h782v-86l-552 -1354h-90z" />
    <glyph glyph-name="eight" unicode="8" horiz-adv-x="1118" 
d="M939.5 617.5q58.5 -97.5 58.5 -227.5q0 -128 -55.5 -223t-155 -146t-229.5 -51t-229 51t-154 146t-55 223q0 131 57 228.5t172 151.5q-95 41 -146 129.5t-51 196.5q0 116 52 200.5t144 129t210 44.5t210 -44.5t144 -129t52 -200.5q0 -110 -51 -198.5t-148 -127.5
q116 -55 174.5 -152.5zM327.5 884q85.5 -74 230.5 -74t230.5 74t85.5 212t-85.5 211t-230.5 73t-230.5 -73t-85.5 -211t85.5 -212zM742 93.5q79 39.5 122.5 115t43.5 181.5q0 108 -43 183.5t-121.5 114t-185.5 38.5t-185.5 -38.5t-121.5 -114t-43 -183.5q0 -106 43.5 -181.5
t122.5 -115t184 -39.5t184 39.5z" />
    <glyph glyph-name="nine" unicode="9" horiz-adv-x="1240" 
d="M860 1405q110 -65 175 -175t65 -240v-540q0 -130 -64.5 -240t-174.5 -175t-241 -65q-130 0 -241 65t-173 175l72 42q52 -90 143 -144t199 -54q110 0 201 54.5t143 145.5t52 196v274q-69 -99 -172 -156.5t-224 -57.5q-130 0 -240 65t-175 175t-65 240t65 240t175 175
t240 65t240 -65zM819 647q91 53 144 144t53 199t-53 199t-144 144t-199 53t-199 -53t-144 -144t-53 -199t53 -199t144 -144t199 -53t199 53z" />
    <glyph glyph-name="colon" unicode=":" horiz-adv-x="540" 
d="M220 300h120v-120h-120v120zM220 900h120v-120h-120v120z" />
    <glyph glyph-name="semicolon" unicode=";" horiz-adv-x="560" 
d="M274.5 -106.5q11.5 21.5 11.5 64.5v42h-66v180h120v-240q0 -56 -27 -88.5t-68 -32.5q-13 0 -25 3l6 52q37 -2 48.5 19.5zM220 1080h120v-120h-120v120z" />
    <glyph glyph-name="less" unicode="&#x3c;" horiz-adv-x="1198" 
d="M280 630l462 462l56 -54l-408 -408l408 -408l-56 -54z" />
    <glyph glyph-name="equal" unicode="=" horiz-adv-x="1500" 
d="M240 920h1020v-84h-1020v84zM240 604h1020v-84h-1020v84z" />
    <glyph glyph-name="greater" unicode="&#x3e;" horiz-adv-x="1198" 
d="M400 222l408 408l-408 408l56 54l462 -462l-462 -462z" />
    <glyph glyph-name="question" unicode="?" horiz-adv-x="1008" 
d="M436 443q0 72 7 117t33 94q27 49 67.5 86t104.5 82q40 29 63.5 47t42.5 39q35 41 49.5 87.5t14.5 102.5q0 122 -64 192q-83 96 -254 96q-78 0 -142 -23t-104 -67q-36 -36 -53 -86.5t-17 -109.5h-84q0 71 22.5 138.5t69.5 115.5q57 59 139 87.5t173 28.5q94 0 174.5 -28.5
t135.5 -87.5q94 -100 94 -258q0 -71 -23.5 -136t-68.5 -110q-33 -35 -109 -89q-62 -44 -98.5 -76t-56.5 -71q-16 -31 -21.5 -62.5t-5.5 -75.5l1 -82h-90v49zM436 150h90v-150h-90v150z" />
    <glyph glyph-name="at" unicode="@" horiz-adv-x="1794" 
d="M1307 1196q162 -94 244.5 -247t82.5 -328q0 -39 -2 -59q-15 -179 -95.5 -269.5t-208.5 -90.5q-84 0 -144 33.5t-89 95.5q-35 -45 -93.5 -69t-123.5 -24q-80 0 -140.5 34.5t-94 96.5t-33.5 141q0 83 34.5 145t95.5 95.5t140 33.5q56 0 109 -18t91 -56v46h78v-290
q0 -81 43 -130.5t137 -49.5q55 0 100 31t73 90t33 139q2 34 2 51q0 182 -78 320t-220 213.5t-330 75.5q-204 0 -356 -94t-232 -247.5t-80 -326.5q0 -180 89 -332.5t240.5 -242t330.5 -89.5q101 0 202.5 28.5t177.5 79.5l36 -68q-96 -62 -203.5 -93t-218.5 -31
q-205 0 -375.5 98.5t-269.5 270t-99 381.5q0 204 93 375.5t265.5 273t399.5 101.5t389 -94zM1017.5 373.5q50.5 49.5 50.5 138.5q0 92 -51 141t-135 49q-90 0 -139 -49.5t-49 -140.5q0 -92 50 -140t138 -48q85 0 135.5 49.5z" />
    <glyph glyph-name="A" unicode="A" horiz-adv-x="1218" 
d="M1088 0l-136 374h-686l-136 -374h-90l524 1440h90l524 -1440h-90zM295 454h628l-315 865z" />
    <glyph glyph-name="B" unicode="B" horiz-adv-x="1202" 
d="M1076 617.5q68 -96.5 68 -229.5q0 -120 -55.5 -207.5t-151 -134t-213.5 -46.5h-584v1440h546q104 0 192.5 -45t141 -126t52.5 -183q0 -99 -50 -184.5t-135 -134.5q121 -53 189 -149.5zM224 800h462q80 0 148 39t108 106t40 147q0 78 -39 138.5t-106.5 94t-150.5 33.5
h-462v-558zM872.5 119q83.5 35 131.5 102t48 159t-44.5 169.5t-119.5 123t-164 45.5h-500v-634h460q105 0 188.5 35z" />
    <glyph glyph-name="C" unicode="C" horiz-adv-x="1400" 
d="M351 64.5q-145 94.5 -218 263.5t-73 392t73 392t218 263.5t355 94.5q246 0 402 -128t212 -354l-88 -20q-49 196 -183 307t-343 111q-183 0 -307.5 -85.5t-186.5 -238.5t-62 -354q0 -194 63.5 -341.5t188.5 -230t304 -82.5q209 0 343 111t183 307l88 -20
q-56 -226 -212 -354t-402 -128q-210 0 -355 94.5z" />
    <glyph glyph-name="D" unicode="D" horiz-adv-x="1304" 
d="M562 1440q122 0 192 -10q154 -22 260 -119.5t158 -250t52 -340.5q0 -189 -52 -341t-157.5 -249.5t-260.5 -119.5q-68 -10 -192 -10h-422v1440h422zM740 96q204 34 299 199t95 425t-95 425t-299 199q-32 6 -81 9t-97 3h-332v-1272h332q112 0 178 12z" />
    <glyph glyph-name="E" unicode="E" horiz-adv-x="1120" 
d="M140 1440h880v-84h-796v-594h676v-84h-676v-594h796v-84h-880v1440z" />
    <glyph glyph-name="F" unicode="F" horiz-adv-x="980" 
d="M140 1440h800v-84h-716v-594h596v-84h-596v-678h-84v1440z" />
    <glyph glyph-name="G" unicode="G" horiz-adv-x="1374" 
d="M351 64.5q-145 94.5 -218 263.5t-73 392t73 391.5t218 262.5t355 94q199 0 338 -93.5t200 -252.5l-82 -34q-54 138 -172 217t-284 79q-183 0 -307.5 -85t-186.5 -237.5t-62 -353.5q0 -194 63.5 -341.5t188.5 -230t304 -82.5q266 0 392 154.5t126 427.5h-384v84h470
q4 -38 4 -86q0 -194 -65 -343.5t-201 -235t-342 -85.5q-210 0 -355 94.5z" />
    <glyph glyph-name="H" unicode="H" horiz-adv-x="1320" 
d="M140 1440h84v-678h872v678h84v-1440h-84v678h-872v-678h-84v1440z" />
    <glyph glyph-name="I" unicode="I" horiz-adv-x="404" 
d="M160 1440h84v-1440h-84v1440z" />
    <glyph glyph-name="J" unicode="J" horiz-adv-x="878" 
d="M197.5 6.5q-74.5 34.5 -126 97.5t-71.5 146l86 20q15 -61 54 -110t96.5 -76.5t125.5 -27.5q71 0 134 32t100 98q24 45 30 94t6 144v1016h84v-1016v-44q0 -80 -8.5 -133t-37.5 -105q-47 -83 -129 -126.5t-183 -43.5q-86 0 -160.5 34.5z" />
    <glyph glyph-name="K" unicode="K" horiz-adv-x="1116" 
d="M140 1440h84v-1440h-84v1440zM346 752l770 -752h-116l-776 752l712 688h116z" />
    <glyph glyph-name="L" unicode="L" horiz-adv-x="990" 
d="M160 1440h84v-1356h716v-84h-800v1440z" />
    <glyph glyph-name="M" unicode="M" horiz-adv-x="1662" 
d="M140 1440h80l612 -1338l606 1338h84v-1438h-84v1236l-560 -1238h-94l-560 1238v-1238h-84v1440z" />
    <glyph glyph-name="N" unicode="N" horiz-adv-x="1324" 
d="M140 1440h84l876 -1290v1290h84v-1440h-84l-876 1292v-1292h-84v1440z" />
    <glyph glyph-name="O" unicode="O" horiz-adv-x="1412" 
d="M351 64.5q-145 94.5 -218 263.5t-73 392t73 392t218 263.5t355 94.5t355 -94.5t218 -263.5t73 -392t-73 -392t-218 -263.5t-355 -94.5t-355 94.5zM1011.5 138q124.5 84 187.5 234t63 348t-63 348t-187.5 234t-305.5 84q-183 0 -307.5 -85.5t-186.5 -238.5t-62 -354
q0 -194 63.5 -341.5t188.5 -230t304 -82.5q181 0 305.5 84z" />
    <glyph glyph-name="P" unicode="P" horiz-adv-x="1162" 
d="M670 1440q44 0 92 -8q102 -16 179 -75.5t119 -150t42 -198.5t-42 -198.5t-119 -150t-179 -75.5q-48 -8 -92 -8h-446v-576h-84v1440h530zM758 668q81 16 138 65t86.5 121t29.5 154t-29.5 154t-86.5 121t-138 65q-43 8 -88 8h-446v-696h446q45 0 88 8z" />
    <glyph glyph-name="Q" unicode="Q" horiz-adv-x="1412" 
d="M1312 418q-40 -137 -119 -235l145 -145l-64 -66l-145 144q-163 -146 -423 -146q-210 0 -355 94.5t-218 263.5t-73 392t73 392t218 263.5t355 94.5t355 -94.5t218 -263.5t73 -392q0 -165 -40 -302zM1065 179l-157 157l66 66l154 -154q66 87 100 207.5t34 264.5
q0 198 -63 348t-187.5 234t-305.5 84q-183 0 -307.5 -85.5t-186.5 -238.5t-62 -354q0 -194 63.5 -341.5t188.5 -230t304 -82.5q220 0 359 125z" />
    <glyph glyph-name="R" unicode="R" horiz-adv-x="1222" 
d="M1042 0l-279 576h-539v-576h-84v1440h530q44 0 92 -8q102 -16 179 -75.5t119 -150t42 -198.5q0 -139 -68.5 -247.5t-187.5 -153.5l296 -607h-100zM670 660q45 0 88 8q81 16 138 65t86.5 121t29.5 154t-29.5 154t-86.5 121t-138 65q-43 8 -88 8h-446v-696h446z" />
    <glyph glyph-name="S" unicode="S" horiz-adv-x="1178" 
d="M356 17.5q-117 47.5 -193.5 135t-102.5 205.5l84 16q26 -98 92 -170.5t164 -111t218 -38.5q125 0 219.5 40t146.5 113t52 169q0 89 -42 145.5t-97 84.5t-123 48l-360 108q-298 89 -298 330q0 109 59.5 195t166.5 134.5t244 48.5q140 0 253 -52t184 -147t89 -221l-84 -16
q-14 104 -74 184t-155.5 124t-212.5 44q-111 0 -197.5 -38.5t-134.5 -105t-48 -148.5q0 -80 43 -132t103 -80t142 -52l298 -90q79 -23 147.5 -58t123.5 -110.5t55 -195.5q0 -123 -61.5 -214.5t-174.5 -141.5t-264 -50q-145 0 -262 47.5z" />
    <glyph glyph-name="T" unicode="T" horiz-adv-x="1180" 
d="M548 1356h-528v84h1140v-84h-528v-1356h-84v1356z" />
    <glyph glyph-name="U" unicode="U" horiz-adv-x="1380" 
d="M406 37q-125 67 -195.5 190t-70.5 283v930h84v-902q0 -166 72.5 -276t180 -161t213.5 -51t213.5 51t180 161t72.5 276v902h84v-930q0 -159 -70.5 -282t-195.5 -190.5t-284 -67.5t-284 67z" />
    <glyph glyph-name="V" unicode="V" horiz-adv-x="1158" 
d="M10 1440h90l478 -1318l480 1318h90l-524 -1440h-90z" />
    <glyph glyph-name="W" unicode="W" horiz-adv-x="1818" 
d="M40 1440h86l370 -1288l368 1288h88l370 -1288l368 1288h88l-412 -1440h-88l-370 1286l-368 -1286h-88z" />
    <glyph glyph-name="X" unicode="X" 
d="M526 730l-494 710h100l440 -642l442 642h100l-494 -710l506 -730h-100l-454 660l-452 -660h-100z" />
    <glyph glyph-name="Y" unicode="Y" horiz-adv-x="1038" 
d="M478 612l-478 828h96l424 -732l422 732h96l-476 -828v-612h-84v612z" />
    <glyph glyph-name="Z" unicode="Z" horiz-adv-x="1162" 
d="M100 30l838 1326h-838v84h962v-34l-834 -1324h834v-82h-962v30z" />
    <glyph glyph-name="bracketleft" unicode="[" horiz-adv-x="792" 
d="M280 1764h332v-84h-248v-2040h248v-84h-332v2208z" />
    <glyph glyph-name="backslash" unicode="\" horiz-adv-x="714" 
d="M594 0h-90l-384 1440h90z" />
    <glyph glyph-name="bracketright" unicode="]" horiz-adv-x="792" 
d="M512 -444h-332v84h248v2040h-248v84h332v-2208z" />
    <glyph glyph-name="asciicircum" unicode="^" horiz-adv-x="1324" 
d="M1135 1011l-54 -56l-409 408l-407 -409l-54 56l461 463z" />
    <glyph glyph-name="underscore" unicode="_" horiz-adv-x="1320" 
d="M0 -108h1320v-84h-1320v84z" />
    <glyph glyph-name="grave" unicode="`" horiz-adv-x="914" 
d="M355 1890h88l96 -270h-88z" />
    <glyph glyph-name="a" unicode="a" horiz-adv-x="1084" 
d="M957.5 789q6.5 -56 6.5 -113v-676h-78v197q-61 -109 -174.5 -168t-257.5 -59q-121 0 -205.5 43t-126.5 114.5t-42 158.5q0 132 82 206.5t212 101.5q156 31 440 62l66 8q1 124 -31.5 203.5t-106 119t-194.5 39.5q-136 0 -218.5 -60.5t-115.5 -185.5l-92 24
q36 149 147 227.5t283 78.5q148 0 248.5 -60.5t137.5 -165.5q13 -39 19.5 -95zM880 582l-23 -2q-143 -13 -258.5 -27t-206.5 -37q-93 -23 -158.5 -77.5t-65.5 -154.5q0 -57 27.5 -109.5t91 -86.5t163.5 -34q116 0 206 42t145.5 122t70.5 190q8 56 8 174z" />
    <glyph glyph-name="b" unicode="b" horiz-adv-x="1152" 
d="M861.5 1035.5q102.5 -74.5 156.5 -203.5t54 -290q0 -164 -54.5 -294t-160.5 -204t-255 -74q-132 0 -230 67.5t-154 186.5v-224h-78v1440h84v-569q58 114 158 176.5t236 62.5q141 0 243.5 -74.5zM809.5 117q85.5 63 129 173.5t43.5 251.5t-42 250.5t-127.5 171.5
t-210.5 62q-123 0 -209.5 -61.5t-130.5 -170.5t-44 -252q0 -141 44 -251.5t130.5 -173.5t209.5 -63q122 0 207.5 63z" />
    <glyph glyph-name="c" unicode="c" horiz-adv-x="1078" 
d="M307 41q-110 71 -167 199.5t-60 299.5q3 175 60 303t167 197.5t267 69.5q99 0 186 -32.5t151 -93t97 -142.5l-80 -34q-45 103 -138.5 160.5t-215.5 57.5q-197 0 -299 -130.5t-105 -355.5q2 -149 48 -258t136 -168.5t220 -59.5q120 0 211.5 55.5t140.5 160.5l82 -36
q-67 -130 -177 -197t-257 -67q-157 0 -267 71z" />
    <glyph glyph-name="d" unicode="d" horiz-adv-x="1152" 
d="M1012 1440v-1440h-78v224q-56 -119 -154 -186.5t-230 -67.5q-149 0 -255 74t-160.5 204t-54.5 294q0 161 54 290t156.5 203.5t243.5 74.5q136 0 236 -62.5t158 -176.5v569h84zM759.5 117q86.5 63 130.5 173.5t44 251.5q0 143 -44 252t-130.5 170.5t-209.5 61.5
q-125 0 -210.5 -62t-127.5 -171.5t-42 -250.5t43.5 -251.5t129 -173.5t207.5 -63q123 0 209.5 63z" />
    <glyph glyph-name="e" unicode="e" 
d="M808.5 116.5q101.5 62.5 161.5 181.5l70 -40q-66 -138 -187.5 -213t-278.5 -75q-152 0 -263.5 69t-171 197.5t-59.5 303.5q0 176 59.5 304.5t170.5 197t264 68.5q154 0 264.5 -70t169 -203.5t58.5 -320.5h-896q4 -146 53 -249.5t138 -158t213 -54.5q133 0 234.5 62.5z
M290.5 915q-104.5 -111 -118.5 -315h801q-17 207 -119.5 316.5t-279.5 109.5q-179 0 -283.5 -111z" />
    <glyph glyph-name="f" unicode="f" horiz-adv-x="678" 
d="M385.5 1347.5q-45.5 -46.5 -45.5 -153.5v-114h318v-84h-318v-996h-84v996h-196v84h196v122q0 67 14 114t50 86q35 36 83 52t115 16h140v-76h-130q-97 0 -142.5 -46.5z" />
    <glyph glyph-name="g" unicode="g" horiz-adv-x="1152" 
d="M1012 1080v-1020q0 -111 -10 -186q-24 -197 -133 -290.5t-317 -93.5q-131 0 -243.5 56.5t-180.5 183.5l74 50q51 -104 145.5 -154t204.5 -50q143 0 224.5 53.5t115.5 158.5t34 272v148q-57 -112 -153 -175t-223 -63q-149 0 -255 74t-160.5 204t-54.5 294q0 161 54 290
t156.5 203.5t243.5 74.5q140 0 242 -66t158 -185v221h78zM759.5 117q86.5 63 130.5 173.5t44 251.5q0 143 -44 252t-130.5 170.5t-209.5 61.5q-125 0 -210.5 -62t-127.5 -171.5t-42 -250.5t43.5 -251.5t129 -173.5t207.5 -63q123 0 209.5 63z" />
    <glyph glyph-name="h" unicode="h" 
d="M822.5 1042q98.5 -62 151 -178.5t52.5 -275.5v-588h-84v572q0 227 -91.5 338.5t-262.5 111.5q-126 0 -207.5 -57.5t-119 -155t-37.5 -219.5v-590h-84v1440h78v-535q58 101 154.5 150t215.5 49q136 0 234.5 -62z" />
    <glyph glyph-name="i" unicode="i" horiz-adv-x="404" 
d="M160 1440h84v-128h-84v128zM160 1080h84v-1080h-84v1080z" />
    <glyph glyph-name="j" unicode="j" horiz-adv-x="450" 
d="M206 1440h84v-128h-84v128zM48 -394q70 0 114 38.5t44 125.5v1310h84v-1300q0 -138 -57 -199t-187 -61h-66v86h68z" />
    <glyph glyph-name="k" unicode="k" horiz-adv-x="936" 
d="M140 1440h84v-880l540 520h126l-564 -540l650 -540h-144l-608 520v-520h-84v1440z" />
    <glyph glyph-name="l" unicode="l" horiz-adv-x="404" 
d="M160 1470h84v-1470h-84v1470z" />
    <glyph glyph-name="m" unicode="m" horiz-adv-x="1628" 
d="M1338 1066.5q80 -43.5 125 -125t45 -191.5l-2 -750h-84l2 744q0 88 -36 153.5t-98.5 101t-139.5 35.5q-71 0 -135.5 -31t-106.5 -101.5t-42 -183.5l-2 -718h-82l2 730q0 92 -35 160.5t-98 106t-145 37.5q-83 0 -147 -39t-99.5 -110.5t-35.5 -166.5v-718h-84v1080h78v-112
q49 67 126 104.5t172 37.5q104 0 188.5 -47.5t127.5 -141.5q44 89 129.5 139t194.5 50q102 0 182 -43.5z" />
    <glyph glyph-name="n" unicode="n" 
d="M822.5 1042q98.5 -62 151 -178.5t52.5 -275.5v-588h-84v572q0 227 -91.5 338.5t-262.5 111.5q-126 0 -207.5 -57.5t-119 -155t-37.5 -219.5v-590h-84v1080h78v-175q58 101 154.5 150t215.5 49q136 0 234.5 -62z" />
    <glyph glyph-name="o" unicode="o" horiz-adv-x="1148" 
d="M306 42q-111 72 -168.5 201.5t-57.5 298.5q0 170 58.5 298.5t170 199t265.5 70.5q158 0 269 -71.5t168 -199.5t57 -297q0 -172 -57.5 -301t-169 -200t-267.5 -71q-157 0 -268 72zM797.5 114.5q90.5 60.5 135.5 170.5t45 257q0 226 -103 355t-301 129q-134 0 -224.5 -61
t-135 -169.5t-44.5 -253.5q0 -148 46 -258t136.5 -170t221.5 -60q133 0 223.5 60.5z" />
    <glyph glyph-name="p" unicode="p" horiz-adv-x="1152" 
d="M861.5 1035.5q102.5 -74.5 156.5 -203.5t54 -290q0 -164 -54.5 -294t-160.5 -204t-255 -74q-129 0 -225.5 64t-152.5 178v-692h-84v1560h78v-221q56 119 158 185t242 66q141 0 243.5 -74.5zM809.5 117q85.5 63 129 173.5t43.5 251.5t-42 250.5t-127.5 171.5t-210.5 62
q-123 0 -209.5 -61.5t-130.5 -170.5t-44 -252q0 -141 44 -251.5t130.5 -173.5t209.5 -63q122 0 207.5 63z" />
    <glyph glyph-name="q" unicode="q" horiz-adv-x="1152" 
d="M1012 1080v-1560h-84v692q-56 -114 -152.5 -178t-225.5 -64q-149 0 -255 74t-160.5 204t-54.5 294q0 161 54 290t156.5 203.5t243.5 74.5q140 0 242 -66t158 -185v221h78zM759.5 117q86.5 63 130.5 173.5t44 251.5q0 143 -44 252t-130.5 170.5t-209.5 61.5
q-125 0 -210.5 -62t-127.5 -171.5t-42 -250.5t43.5 -251.5t129 -173.5t207.5 -63q123 0 209.5 63z" />
    <glyph glyph-name="r" unicode="r" horiz-adv-x="670" 
d="M398.5 1068.5q66.5 23.5 134.5 23.5q48 0 87 -12v-80q-47 10 -88 10q-115 0 -194 -74q-53 -49 -78 -115.5t-30.5 -131.5t-5.5 -157v-532h-84v1080h78v-169q28 51 68 89q46 45 112.5 68.5z" />
    <glyph glyph-name="s" unicode="s" horiz-adv-x="1028" 
d="M317 6.5q-96 34.5 -157 99.5t-80 154l86 16q18 -67 69 -116.5t128.5 -76.5t172.5 -27q97 0 169.5 28.5t111.5 81.5t39 124q0 61 -26.5 97.5t-98.5 66.5t-225 72q-157 43 -241 82t-118.5 87.5t-34.5 122.5q0 85 50.5 151.5t141.5 103.5t208 37q118 0 214 -39.5
t154.5 -110.5t67.5 -162l-86 -16q-13 74 -61 129.5t-124 85t-171 29.5q-89 1 -158.5 -24.5t-108.5 -72.5t-39 -107q0 -52 29.5 -88t100 -65.5t200.5 -62.5q165 -42 253.5 -83.5t125.5 -96.5t37 -140q0 -97 -49.5 -168t-142.5 -108.5t-220 -37.5q-121 0 -217 34.5z" />
    <glyph glyph-name="t" unicode="t" horiz-adv-x="758" 
d="M358 358v-60q0 -49 4 -78.5t18 -55.5q25 -51 71.5 -73.5t118.5 -22.5q56 0 128 12v-80q-72 -15 -128 -15q-92 0 -162.5 34.5t-103.5 106.5q-19 42 -24.5 87t-5.5 115v30v638h-254v84h254v300h84v-300h340v-84h-340v-638z" />
    <glyph glyph-name="u" unicode="u" 
d="M1006 1080v-1080h-78v175q-58 -101 -154.5 -150t-215.5 -49q-136 0 -234.5 62t-151 178.5t-52.5 275.5v588h84v-572q0 -227 91.5 -338.5t262.5 -111.5q126 0 207.5 57.5t119 155t37.5 219.5v590h84z" />
    <glyph glyph-name="v" unicode="v" horiz-adv-x="956" 
d="M40 1080h88l350 -958l348 958h90l-392 -1080h-92z" />
    <glyph glyph-name="w" unicode="w" horiz-adv-x="1488" 
d="M40 1080h88l286 -936l286 936h88l286 -936l288 936h86l-330 -1080h-88l-286 938l-286 -938h-88z" />
    <glyph glyph-name="x" unicode="x" horiz-adv-x="1018" 
d="M460 546l-430 534h104l376 -472l374 472h104l-430 -534l440 -546h-106l-382 484l-384 -484h-106z" />
    <glyph glyph-name="y" unicode="y" horiz-adv-x="1012" 
d="M872 1080h90l-566 -1560h-94l178 479l-440 1081h92l390 -965z" />
    <glyph glyph-name="z" unicode="z" horiz-adv-x="1054" 
d="M40 30l780 962h-732v88h886v-34l-780 -958h732v-88h-886v30z" />
    <glyph glyph-name="braceleft" unicode="{" horiz-adv-x="799" 
d="M496 -416q-48 28 -76.5 76t-28.5 104v686q0 37 -22 72l-82 114q-7 10 -7 24t7 24l82 114q22 35 22 72v684q0 57 28 105.5t76.5 76.5t105.5 28h108v-84h-108q-52 0 -89 -36.5t-37 -89.5v-684q0 -67 -38 -120l-64 -90l64 -90q38 -53 38 -120v-686q0 -34 17 -62t46 -45
t63 -17h108v-84h-108q-57 0 -105 28z" />
    <glyph glyph-name="bar" unicode="|" horiz-adv-x="444" 
d="M180 1440h84v-1440h-84v1440z" />
    <glyph glyph-name="braceright" unicode="}" horiz-adv-x="799" 
d="M90 -444v84h108q34 0 63 17t46 45t17 62v686q0 67 38 120l64 90l-64 90q-38 53 -38 120v684q0 53 -36.5 89.5t-89.5 36.5h-108v84h108q57 0 105.5 -28t76.5 -76.5t28 -105.5v-684q0 -37 22 -72l82 -114q8 -11 8 -24t-8 -24l-82 -114q-22 -35 -22 -72v-686
q0 -56 -28.5 -104t-76.5 -76t-105 -28h-108z" />
    <glyph glyph-name="asciitilde" unicode="~" horiz-adv-x="1252" 
d="M719 523q-51 19 -122 55q-59 31 -98 46t-75 15q-42 0 -63 -23t-21 -57q0 -20 8 -41h-101q-8 30 -8 56q0 51 24 91.5t67 63.5t97 23q53 0 104 -19t125 -56q60 -31 98 -46t74 -15q39 0 61 24t22 61q0 22 -7 42h101q8 -30 8 -57q0 -51 -24 -92.5t-67.5 -65.5t-99.5 -24
q-52 0 -103 19z" />
    <glyph glyph-name="uni00A0" unicode="&#xa0;" horiz-adv-x="400" 
 />
    <glyph glyph-name="exclamdown" unicode="&#xa1;" horiz-adv-x="564" 
d="M240 1080h84v-128h-84v128zM240 -360v1080h84v-1080h-84z" />
    <glyph glyph-name="cent" unicode="&#xa2;" horiz-adv-x="1078" 
d="M288 204q-101 73 -153 197.5t-55 288.5q3 167 55.5 291.5t153 196t245.5 80.5v182h84v-182q136 -11 240 -81t150 -185l-80 -34q-45 103 -138.5 160.5t-215.5 57.5q-197 0 -299 -130.5t-105 -355.5q2 -149 48 -258t136 -168.5t220 -59.5q120 0 211.5 55.5t140.5 160.5
l82 -36q-63 -120 -161.5 -186.5t-228.5 -75.5v-182h-84v182q-145 9 -246 82z" />
    <glyph glyph-name="sterling" unicode="&#xa3;" horiz-adv-x="1142" 
d="M434 84h622v-84h-996v84h152q37 0 69 18.5t50.5 50.5t18.5 69v472h-290v84h290v322q0 108 46.5 192.5t128 131t183.5 46.5q130 0 222.5 -86t151.5 -262l-80 -26q-49 150 -120.5 220t-175.5 70q-81 0 -143 -35t-95.5 -100t-33.5 -151v-322h404v-84h-404v-610z" />
    <glyph glyph-name="currency" unicode="&#xa4;" horiz-adv-x="1244" 
d="M1115.5 538.5q-32.5 -87.5 -92.5 -157.5l161 -161l-60 -60l-161 161q-70 -60 -157.5 -92.5t-183.5 -32.5q-95 0 -182 33t-158 93l-162 -162l-60 60l162 162q-59 70 -91.5 157.5t-32.5 182.5q0 94 32.5 181t91.5 157l-162 162l60 58l161 -161q70 60 157.5 93.5t183.5 33.5
t184 -33t158 -93l160 160l60 -58l-161 -161q60 -70 92.5 -157t32.5 -182q0 -96 -32.5 -183.5zM241 501.5q59 -101.5 160 -161.5t221 -60t221.5 60t161 161.5t59.5 218.5q0 120 -60.5 221.5t-162.5 161t-219 59.5q-120 0 -221 -59.5t-160 -161t-59 -221.5q0 -117 59 -218.5z
" />
    <glyph glyph-name="yen" unicode="&#xa5;" horiz-adv-x="1038" 
d="M562 612v-16h318v-84h-318v-184h318v-84h-318v-244h-84v244h-318v84h318v184h-318v84h318v16l-478 828h96l424 -732l422 732h96z" />
    <glyph glyph-name="brokenbar" unicode="&#xa6;" horiz-adv-x="444" 
d="M180 1440h84v-688h-84v688zM180 440h84v-688h-84v688z" />
    <glyph glyph-name="section" unicode="&#xa7;" horiz-adv-x="1028" 
d="M887 129q39 -56 39 -143q0 -100 -51 -171t-138 -107t-195 -36q-96 0 -183.5 30t-152 94.5t-86.5 163.5l86 16q21 -76 75.5 -125.5t124 -72t138.5 -22.5q79 0 145.5 27.5t106.5 80.5t40 126q0 69 -38 109t-103 63.5t-209 63.5q-142 39 -219.5 69.5t-126 83.5t-48.5 139
q0 72 33 127.5t90 90t128 45.5q-105 38 -158 92.5t-53 144.5q0 92 54 158.5t140 100t180 33.5q104 0 192.5 -40t144 -111t65.5 -161l-86 -16q-16 87 -68.5 141.5t-121 78.5t-136.5 24q-74 0 -137.5 -26t-101 -72.5t-37.5 -105.5q0 -62 42 -101.5t106.5 -62t181.5 -52.5
q149 -38 231 -69.5t133.5 -91t51.5 -159.5q0 -105 -53.5 -175t-140.5 -89q76 -37 115 -93zM222 420.5q42 -39.5 106.5 -62t181.5 -52.5q111 -29 162 -45q55 11 101.5 41t74.5 78t28 110q0 69 -38 109t-103 63.5t-209 63.5q-16 4 -24 7q-49 13 -78 22q-110 -33 -177 -93
t-67 -140q0 -62 42 -101.5z" />
    <glyph glyph-name="dieresis" unicode="&#xa8;" horiz-adv-x="960" 
d="M240 1800h120v-120h-120v120zM600 1800h120v-120h-120v120z" />
    <glyph glyph-name="copyright" unicode="&#xa9;" horiz-adv-x="1496" 
d="M403 82.5q-158 92.5 -250.5 250.5t-92.5 345t92.5 345t250.5 250.5t345 92.5t345 -92.5t250.5 -250.5t92.5 -345t-92.5 -345t-250.5 -250.5t-345 -92.5t-345 92.5zM1047.5 158.5q137.5 80.5 218 219t80.5 302.5q0 162 -80.5 299.5t-218 218t-299.5 80.5
q-164 0 -302.5 -80.5t-219 -218t-80.5 -299.5q0 -164 80.5 -302.5t219 -219t302.5 -80.5q162 0 299.5 80.5zM470 388q-48 61 -67 135t-19 159q2 85 21 158.5t65 131.5q102 128 286 128q111 0 194 -50q45 -28 79.5 -69.5t50.5 -90.5l-82 -28q-15 34 -41 64.5t-57 51.5
q-60 40 -146 40q-64 0 -119 -26t-93 -74q-35 -45 -50.5 -106t-15.5 -128q0 -71 17 -134.5t49 -107.5q36 -49 90.5 -74.5t119.5 -25.5q82 0 150 40q58 36 94 114l84 -30q-23 -52 -56 -90t-68 -60q-88 -56 -204 -56q-180 0 -282 128z" />
    <glyph glyph-name="ordfeminine" unicode="&#xaa;" horiz-adv-x="1084" 
d="M957.5 789q6.5 -56 6.5 -113v-676h-78v197q-61 -109 -174.5 -168t-257.5 -59q-121 0 -205.5 43t-126.5 114.5t-42 158.5q0 132 82 206.5t212 101.5q156 31 440 62l66 8q1 124 -31.5 203.5t-106 119t-194.5 39.5q-136 0 -218.5 -60.5t-115.5 -185.5l-92 24
q36 149 147 227.5t283 78.5q148 0 248.5 -60.5t137.5 -165.5q13 -39 19.5 -95zM880 582l-23 -2q-143 -13 -258.5 -27t-206.5 -37q-93 -23 -158.5 -77.5t-65.5 -154.5q0 -57 27.5 -109.5t91 -86.5t163.5 -34q116 0 206 42t145.5 122t70.5 190q8 56 8 174z" />
    <glyph glyph-name="guillemotleft" unicode="&#xab;" horiz-adv-x="1004" 
d="M160 542l342 428l62 -48l-304 -380l304 -382l-62 -48zM460 542l342 428l62 -48l-304 -380l304 -382l-62 -48z" />
    <glyph glyph-name="logicalnot" unicode="&#xac;" horiz-adv-x="1200" 
d="M996 658h-876v84h960v-340h-84v256z" />
    <glyph glyph-name="uni00AD" unicode="&#xad;" horiz-adv-x="840" 
d="M120 672h600v-84h-600v84z" />
    <glyph glyph-name="registered" unicode="&#xae;" horiz-adv-x="1210" 
d="M372 656.5q-107 62.5 -169.5 169.5t-62.5 234q0 126 62.5 232.5t169.5 169t234 62.5q126 0 232.5 -62.5t169 -169t62.5 -232.5q0 -127 -62.5 -234t-169 -169.5t-232.5 -62.5q-127 0 -234 62.5zM796.5 729q87.5 51 138.5 139t51 192q0 103 -51 190.5t-138.5 138.5
t-190.5 51q-104 0 -192 -51t-139 -138.5t-51 -190.5q0 -104 51 -192t139 -139t192 -51q103 0 190.5 51zM648 1294q38 0 73 -20.5t56 -54.5t21 -73q0 -40 -24 -78t-64 -56l88 -178h-82l-80 164h-120v-164h-72v460h204zM700.5 1090q23.5 24 23.5 56q0 34 -25 57t-53 23h-130
v-160h130q31 0 54.5 24z" />
    <glyph glyph-name="macron" unicode="&#xaf;" horiz-adv-x="960" 
d="M240 1764h480v-84h-480v84z" />
    <glyph glyph-name="degree" unicode="&#xb0;" horiz-adv-x="900" 
d="M239.5 798q-82.5 48 -131 131t-48.5 181q0 96 49.5 179t132.5 132t178 49q98 0 180.5 -48t131 -131t48.5 -181t-48.5 -181t-131 -131t-180.5 -48t-180.5 48zM557.5 871.5q63.5 37.5 101 101t37.5 137.5t-37.5 137.5t-101 101t-137.5 37.5t-137.5 -37.5t-101 -101
t-37.5 -137.5t37.5 -137.5t101 -101t137.5 -37.5t137.5 37.5z" />
    <glyph glyph-name="plusminus" unicode="&#xb1;" horiz-adv-x="1200" 
d="M558 718h-438v84h438v278h84v-278h438v-84h-438v-278h-84v278zM120 260h960v-84h-960v84z" />
    <glyph glyph-name="uni00B2" unicode="&#xb2;" horiz-adv-x="784" 
d="M226 620h458v-80h-584l2 76l410 374q51 45 69.5 88t18.5 96q0 57 -27 105t-74 75.5t-103 27.5q-57 0 -105 -28.5t-75 -76t-26 -101.5h-84q0 80 38 145t104.5 102t147.5 37q80 0 146 -38.5t104 -104t38 -143.5q0 -79 -29 -134.5t-95 -115.5z" />
    <glyph glyph-name="uni00B3" unicode="&#xb3;" horiz-adv-x="760" 
d="M504.5 1065.5q64.5 -35.5 100 -101.5t35.5 -152t-36 -152.5t-100.5 -103t-147.5 -36.5q-99 0 -173.5 52.5t-102.5 143.5l78 24q23 -68 74.5 -104t118.5 -36q96 0 150.5 57.5t54.5 154.5q0 96 -55.5 154t-146.5 58q-48 0 -106 -24l-42 64l318 298h-408v78h516v-80
l-276 -261q84 2 148.5 -33.5z" />
    <glyph glyph-name="acute" unicode="&#xb4;" horiz-adv-x="914" 
d="M375 1620l96 270h88l-96 -270h-88z" />
    <glyph glyph-name="uni00B5" unicode="&#xb5;" horiz-adv-x="1166" 
d="M224 1080v-572q0 -227 91.5 -338.5t262.5 -111.5q126 0 207.5 57.5t119 155t37.5 219.5v590h84v-1080h-78v174q-58 -100 -154.5 -149t-215.5 -49q-121 0 -212.5 49t-147.5 143v-648h-78v1560h84z" />
    <glyph glyph-name="paragraph" unicode="&#xb6;" horiz-adv-x="1162" 
d="M612 576q-44 0 -92 8q-102 17 -179 76t-119 149.5t-42 198.5t42 198.5t119 149.5t179 76q48 8 92 8h170v-1722h-84v858h-86zM898 1440h84v-1722h-84v1722z" />
    <glyph glyph-name="periodcentered" unicode="&#xb7;" horiz-adv-x="400" 
d="M143.5 573q-23.5 23 -23.5 57t23.5 57t58.5 23q32 0 55 -23t23 -57t-23 -57t-55 -23q-35 0 -58.5 23z" />
    <glyph glyph-name="cedilla" unicode="&#xb8;" horiz-adv-x="772" 
d="M240 -450l28 74q50 -20 86 -20q43 0 68.5 28t25.5 66q0 32 -18.5 52t-43.5 31t-72 27l76 206h84l-58 -156q120 -49 120 -164q0 -47 -24 -86.5t-64.5 -62.5t-87.5 -23q-57 0 -120 28z" />
    <glyph glyph-name="uni00B9" unicode="&#xb9;" horiz-adv-x="612" 
d="M290 1348l-170 -102v92l170 102h82v-900h-82v808z" />
    <glyph glyph-name="ordmasculine" unicode="&#xba;" horiz-adv-x="1148" 
d="M306 42q-111 72 -168.5 201.5t-57.5 298.5q0 170 58.5 298.5t170 199t265.5 70.5q158 0 269 -71.5t168 -199.5t57 -297q0 -172 -57.5 -301t-169 -200t-267.5 -71q-157 0 -268 72zM797.5 114.5q90.5 60.5 135.5 170.5t45 257q0 226 -103 355t-301 129q-134 0 -224.5 -61
t-135 -169.5t-44.5 -253.5q0 -148 46 -258t136.5 -170t221.5 -60q133 0 223.5 60.5z" />
    <glyph glyph-name="guillemotright" unicode="&#xbb;" horiz-adv-x="1004" 
d="M202 112l-62 48l304 382l-304 380l62 48l342 -428zM502 112l-62 48l304 382l-304 380l62 48l342 -428z" />
    <glyph glyph-name="onequarter" unicode="&#xbc;" horiz-adv-x="1864" 
d="M290 1348l-170 -102v92l170 102h82v-900h-82v808zM212 60l1094 1380l72 -58l-1092 -1382zM1442 178h-426v80l304 642h92l-304 -642h334v268h82v-268h100v-80h-100v-178h-82v178z" />
    <glyph glyph-name="onehalf" unicode="&#xbd;" horiz-adv-x="1762" 
d="M290 1348l-170 -102v92l170 102h82v-900h-82v808zM212 60l1094 1380l72 -58l-1092 -1382zM1204 80h458v-80h-584l2 76l410 374q51 45 69.5 88t18.5 96q0 57 -27 105t-74 75.5t-103 27.5q-57 0 -105 -28.5t-75 -76t-26 -101.5h-84q0 80 38 145t104.5 102t147.5 37
q80 0 146 -38.5t104 -104t38 -143.5q0 -79 -29 -134.5t-95 -115.5z" />
    <glyph glyph-name="threequarters" unicode="&#xbe;" horiz-adv-x="1894" 
d="M504.5 1065.5q64.5 -35.5 100 -101.5t35.5 -152t-36 -152.5t-100.5 -103t-147.5 -36.5q-99 0 -173.5 52.5t-102.5 143.5l78 24q23 -68 74.5 -104t118.5 -36q96 0 150.5 57.5t54.5 154.5q0 96 -55.5 154t-146.5 58q-48 0 -106 -24l-42 64l318 298h-408v78h516v-80
l-276 -261q84 2 148.5 -33.5zM360 60l1094 1380l72 -58l-1092 -1382zM1592 178h-426v80l304 642h92l-304 -642h334v268h82v-268h100v-80h-100v-178h-82v178z" />
    <glyph glyph-name="questiondown" unicode="&#xbf;" horiz-adv-x="1008" 
d="M482 930v150h90v-150h-90zM572 637q0 -72 -7 -117t-33 -94q-27 -49 -67.5 -86t-104.5 -82q-40 -29 -63.5 -47t-42.5 -39q-35 -41 -49.5 -87.5t-14.5 -102.5q0 -122 64 -192q83 -96 254 -96q78 0 142 23t104 67q36 36 53 86.5t17 109.5h84q0 -71 -22.5 -138.5
t-69.5 -115.5q-57 -59 -139 -87.5t-173 -28.5q-94 0 -174.5 28.5t-135.5 87.5q-94 100 -94 258q0 71 23.5 136t68.5 110q33 35 109 89q62 44 98.5 76t56.5 71q16 31 21.5 62.5t5.5 75.5l-1 82h90v-49z" />
    <glyph glyph-name="Agrave" unicode="&#xc0;" horiz-adv-x="1218" 
d="M646 1620h-88l-96 270h88zM1088 0l-136 374h-686l-136 -374h-90l524 1440h90l524 -1440h-90zM295 454h628l-313 865z" />
    <glyph glyph-name="Aacute" unicode="&#xc1;" horiz-adv-x="1218" 
d="M756 1890l-96 -270h-88l96 270h88zM1088 0l-136 374h-686l-136 -374h-90l524 1440h90l524 -1440h-90zM295 454h628l-315 865z" />
    <glyph glyph-name="Acircumflex" unicode="&#xc2;" horiz-adv-x="1218" 
d="M610 1790l-146 -170h-100l200 240h92l200 -240h-100zM1088 0l-136 374h-686l-136 -374h-90l524 1440h90l524 -1440h-90zM295 454h628l-315 865z" />
    <glyph glyph-name="Atilde" unicode="&#xc3;" horiz-adv-x="1218" 
d="M340 1680q-5 18 -5 40q0 55 37.5 90.5t95.5 35.5q38 0 74.5 -13.5t87.5 -39.5q44 -22 70.5 -32.5t51.5 -10.5q28 0 43.5 16.5t15.5 43.5q0 18 -5 30h72q5 -17 5 -40q0 -56 -37.5 -93t-97.5 -37q-37 0 -73.5 13.5t-85.5 39.5q-43 22 -70.5 32.5t-52.5 10.5
q-30 0 -45 -16.5t-15 -39.5q0 -16 6 -30h-72zM1088 0l-136 374h-686l-136 -374h-90l524 1440h90l524 -1440h-90zM295 454h628l-315 865z" />
    <glyph glyph-name="Adieresis" unicode="&#xc4;" horiz-adv-x="1218" 
d="M490 1800v-120h-120v120h120zM850 1800v-120h-120v120h120zM1088 0l-136 374h-686l-136 -374h-90l524 1440h90l524 -1440h-90zM295 454h628l-315 865z" />
    <glyph glyph-name="Aring" unicode="&#xc5;" horiz-adv-x="1218" 
d="M513.5 1586q-44.5 26 -71 70.5t-26.5 97.5q0 52 26.5 96.5t71 71t96.5 26.5q53 0 97.5 -26.5t70.5 -71t26 -96.5q0 -53 -26 -97.5t-70.5 -70.5t-97.5 -26q-52 0 -96.5 26zM532.5 1832q-32.5 -32 -32.5 -78q0 -45 32.5 -77.5t77.5 -32.5q46 0 78 32.5t32 77.5q0 46 -32 78
t-78 32q-45 0 -77.5 -32zM1088 0l-136 374h-686l-136 -374h-90l524 1440h90l524 -1440h-90zM295 454h628l-315 865z" />
    <glyph glyph-name="AE" unicode="&#xc6;" horiz-adv-x="1810" 
d="M1710 1356h-796v-594h676v-84h-676v-594h796v-84h-880v374h-565l-135 -374h-90l524 1440h1146v-84zM294 454h536v902h-209z" />
    <glyph glyph-name="Ccedilla" unicode="&#xc7;" horiz-adv-x="1400" 
d="M1049 165q134 111 183 307l88 -20q-50 -204 -183.5 -329t-341.5 -148l-43 -117q120 -49 120 -164q0 -47 -24 -86.5t-64.5 -62.5t-87.5 -23q-57 0 -120 28l28 74q50 -20 86 -20q43 0 68.5 28t25.5 66q0 32 -18.5 52t-43.5 31t-72 27l60 162h-4q-210 0 -355 94.5
t-218 263.5t-73 392t73 392t218 263.5t355 94.5q246 0 402 -128t212 -354l-88 -20q-49 196 -183 307t-343 111q-183 0 -307.5 -85.5t-186.5 -238.5t-62 -354q0 -194 63.5 -341.5t188.5 -230t304 -82.5q209 0 343 111z" />
    <glyph glyph-name="Egrave" unicode="&#xc8;" horiz-adv-x="1120" 
d="M478 1890h88l96 -270h-88zM1020 1440v-84h-796v-594h676v-84h-676v-594h796v-84h-880v1440h880z" />
    <glyph glyph-name="Eacute" unicode="&#xc9;" horiz-adv-x="1120" 
d="M558 1620l96 270h88l-96 -270h-88zM1020 1440v-84h-796v-594h676v-84h-676v-594h796v-84h-880v1440h880z" />
    <glyph glyph-name="Ecircumflex" unicode="&#xca;" horiz-adv-x="1120" 
d="M524 1860h92l200 -240h-100l-146 170l-146 -170h-100zM1020 1440v-84h-796v-594h676v-84h-676v-594h796v-84h-880v1440h880z" />
    <glyph glyph-name="Edieresis" unicode="&#xcb;" horiz-adv-x="1120" 
d="M310 1800h120v-120h-120v120zM670 1800h120v-120h-120v120zM1020 1440v-84h-796v-594h676v-84h-676v-594h796v-84h-880v1440h880z" />
    <glyph glyph-name="Igrave" unicode="&#xcc;" horiz-adv-x="404" 
d="M60 1890h88l96 -270h-88zM244 1440v-1440h-84v1440h84z" />
    <glyph glyph-name="Iacute" unicode="&#xcd;" horiz-adv-x="404" 
d="M160 1620l96 270h88l-96 -270h-88zM244 1440v-1440h-84v1440h84z" />
    <glyph glyph-name="Icircumflex" unicode="&#xce;" horiz-adv-x="404" 
d="M156 1860h92l200 -240h-100l-146 170l-146 -170h-100zM244 1440v-1440h-84v1440h84z" />
    <glyph glyph-name="Idieresis" unicode="&#xcf;" horiz-adv-x="404" 
d="M-38 1800h120v-120h-120v120zM322 1800h120v-120h-120v120zM244 1440v-1440h-84v1440h84z" />
    <glyph glyph-name="Eth" unicode="&#xd0;" horiz-adv-x="1282" 
d="M992 1310.5q106 -97.5 158 -250t52 -340.5q0 -189 -52 -341t-157.5 -249.5t-260.5 -119.5q-68 -10 -192 -10h-422v678h-98v84h98v678h422q122 0 192 -10q154 -22 260 -119.5zM1017 295q95 165 95 425t-95 425t-299 199q-32 6 -81 9t-97 3h-332v-594h412v-84h-412v-594
h332q112 0 178 12q204 34 299 199z" />
    <glyph glyph-name="Ntilde" unicode="&#xd1;" horiz-adv-x="1324" 
d="M756.5 1633.5q-36.5 13.5 -85.5 39.5q-44 22 -71 32.5t-52 10.5q-30 0 -45 -16.5t-15 -39.5q0 -16 6 -30h-72q-5 18 -5 40q0 55 37.5 90.5t95.5 35.5q38 0 74.5 -13.5t87.5 -39.5q44 -22 70.5 -32.5t51.5 -10.5q28 0 43.5 16.5t15.5 43.5q0 18 -5 30h72q5 -17 5 -40
q0 -56 -37.5 -93t-97.5 -37q-37 0 -73.5 13.5zM224 1440l876 -1290v1290h84v-1440h-84l-876 1292v-1292h-84v1440h84z" />
    <glyph glyph-name="Ograve" unicode="&#xd2;" horiz-adv-x="1412" 
d="M574 1890h88l96 -270h-88zM351 64.5q-145 94.5 -218 263.5t-73 392t73 392t218 263.5t355 94.5t355 -94.5t218 -263.5t73 -392t-73 -392t-218 -263.5t-355 -94.5t-355 94.5zM1011.5 138q124.5 84 187.5 234t63 348t-63 348t-187.5 234t-305.5 84q-183 0 -307.5 -85.5
t-186.5 -238.5t-62 -354q0 -194 63.5 -341.5t188.5 -230t304 -82.5q181 0 305.5 84z" />
    <glyph glyph-name="Oacute" unicode="&#xd3;" horiz-adv-x="1412" 
d="M684 1620l96 270h88l-96 -270h-88zM351 64.5q-145 94.5 -218 263.5t-73 392t73 392t218 263.5t355 94.5t355 -94.5t218 -263.5t73 -392t-73 -392t-218 -263.5t-355 -94.5t-355 94.5zM1011.5 138q124.5 84 187.5 234t63 348t-63 348t-187.5 234t-305.5 84
q-183 0 -307.5 -85.5t-186.5 -238.5t-62 -354q0 -194 63.5 -341.5t188.5 -230t304 -82.5q181 0 305.5 84z" />
    <glyph glyph-name="Ocircumflex" unicode="&#xd4;" horiz-adv-x="1412" 
d="M660 1860h92l200 -240h-100l-146 170l-146 -170h-100zM351 64.5q-145 94.5 -218 263.5t-73 392t73 392t218 263.5t355 94.5t355 -94.5t218 -263.5t73 -392t-73 -392t-218 -263.5t-355 -94.5t-355 94.5zM1011.5 138q124.5 84 187.5 234t63 348t-63 348t-187.5 234
t-305.5 84q-183 0 -307.5 -85.5t-186.5 -238.5t-62 -354q0 -194 63.5 -341.5t188.5 -230t304 -82.5q181 0 305.5 84z" />
    <glyph glyph-name="Otilde" unicode="&#xd5;" horiz-adv-x="1412" 
d="M351 64.5q-145 94.5 -218 263.5t-73 392t73 392t218 263.5t355 94.5t355 -94.5t218 -263.5t73 -392t-73 -392t-218 -263.5t-355 -94.5t-355 94.5zM1011.5 138q124.5 84 187.5 234t63 348t-63 348t-187.5 234t-305.5 84q-183 0 -307.5 -85.5t-186.5 -238.5t-62 -354
q0 -194 63.5 -341.5t188.5 -230t304 -82.5q181 0 305.5 84zM787.5 1633.5q-36.5 13.5 -85.5 39.5q-43 22 -70.5 32.5t-52.5 10.5q-30 0 -45 -16.5t-15 -39.5q0 -16 6 -30h-72q-5 18 -5 40q0 55 37.5 90.5t95.5 35.5q38 0 74.5 -13.5t87.5 -39.5q44 -22 70.5 -32.5
t51.5 -10.5q28 0 43.5 16.5t15.5 43.5q0 18 -5 30h72q5 -17 5 -40q0 -56 -37.5 -93t-97.5 -37q-37 0 -73.5 13.5z" />
    <glyph glyph-name="Odieresis" unicode="&#xd6;" horiz-adv-x="1412" 
d="M466 1800h120v-120h-120v120zM826 1800h120v-120h-120v120zM351 64.5q-145 94.5 -218 263.5t-73 392t73 392t218 263.5t355 94.5t355 -94.5t218 -263.5t73 -392t-73 -392t-218 -263.5t-355 -94.5t-355 94.5zM1011.5 138q124.5 84 187.5 234t63 348t-63 348t-187.5 234
t-305.5 84q-183 0 -307.5 -85.5t-186.5 -238.5t-62 -354q0 -194 63.5 -341.5t188.5 -230t304 -82.5q181 0 305.5 84z" />
    <glyph glyph-name="multiply" unicode="&#xd7;" horiz-adv-x="950" 
d="M179 364l-59 60l296 295l-296 296l59 59l296 -295l296 295l59 -59l-296 -296l296 -295l-59 -60l-296 296z" />
    <glyph glyph-name="Oslash" unicode="&#xd8;" horiz-adv-x="1412" 
d="M1227 1209q62 -96 93.5 -220t31.5 -269q0 -223 -73 -392t-218 -263.5t-355 -94.5q-148 0 -264.5 48t-198.5 138l-171 -182l-62 58l179 192q-64 96 -96.5 221.5t-32.5 274.5q0 223 73 392t218 263.5t355 94.5q151 0 269 -49.5t201 -143.5l169 182l62 -55zM176 479
q26 -105 76 -187l861 919q-71 85 -173 130t-234 45q-183 0 -307.5 -86t-186.5 -239t-62 -355q0 -122 26 -227zM1011.5 138q124.5 84 187.5 234t63 348q0 253 -99 421l-859 -920q71 -81 172 -124t230 -43q181 0 305.5 84z" />
    <glyph glyph-name="Ugrave" unicode="&#xd9;" horiz-adv-x="1380" 
d="M573 1890h88l96 -270h-88zM406 37q-125 67 -195.5 190t-70.5 283v930h84v-902q0 -166 72.5 -276t180 -161t213.5 -51t213.5 51t180 161t72.5 276v902h84v-930q0 -159 -70.5 -282t-195.5 -190.5t-284 -67.5t-284 67z" />
    <glyph glyph-name="Uacute" unicode="&#xda;" horiz-adv-x="1380" 
d="M623 1620l96 270h88l-96 -270h-88zM406 37q-125 67 -195.5 190t-70.5 283v930h84v-902q0 -166 72.5 -276t180 -161t213.5 -51t213.5 51t180 161t72.5 276v902h84v-930q0 -159 -70.5 -282t-195.5 -190.5t-284 -67.5t-284 67z" />
    <glyph glyph-name="Ucircumflex" unicode="&#xdb;" horiz-adv-x="1380" 
d="M644 1860h92l200 -240h-100l-146 170l-146 -170h-100zM406 37q-125 67 -195.5 190t-70.5 283v930h84v-902q0 -166 72.5 -276t180 -161t213.5 -51t213.5 51t180 161t72.5 276v902h84v-930q0 -159 -70.5 -282t-195.5 -190.5t-284 -67.5t-284 67z" />
    <glyph glyph-name="Udieresis" unicode="&#xdc;" horiz-adv-x="1380" 
d="M450 1800h120v-120h-120v120zM810 1800h120v-120h-120v120zM406 37q-125 67 -195.5 190t-70.5 283v930h84v-902q0 -166 72.5 -276t180 -161t213.5 -51t213.5 51t180 161t72.5 276v902h84v-930q0 -159 -70.5 -282t-195.5 -190.5t-284 -67.5t-284 67z" />
    <glyph glyph-name="Yacute" unicode="&#xdd;" horiz-adv-x="1038" 
d="M447 1620l96 270h88l-96 -270h-88zM0 1440h96l424 -732l422 732h96l-476 -828v-612h-84v612z" />
    <glyph glyph-name="Thorn" unicode="&#xde;" horiz-adv-x="1142" 
d="M224 1440v-288h426q79 0 154 -30q79 -31 142 -90q64 -60 100 -142.5t36 -169.5q0 -80 -30 -155t-84 -135q-58 -66 -143.5 -104t-174.5 -38h-426v-288h-84v1440h84zM792.5 405.5q69.5 33.5 117.5 90.5q39 46 60.5 102t21.5 115q0 72 -27.5 139t-78.5 118
q-45 45 -108.5 71.5t-127.5 26.5h-426v-696h426q73 0 142.5 33.5z" />
    <glyph glyph-name="germandbls" unicode="&#xdf;" horiz-adv-x="1150" 
d="M484.5 -22q-44.5 6 -84.5 22v84q45 -16 85.5 -21t96.5 -5q106 0 187 41t126 118.5t45 184.5q0 96 -52.5 168.5t-147.5 113.5t-220 44v84q123 15 205.5 86.5t82.5 201.5q0 135 -76 210.5t-210 75.5q-97 0 -170.5 -44.5t-99.5 -129.5q-20 -65 -20 -170v-1042h-92v1064
q0 117 30 192q87 214 350 214q115 0 200 -42.5t131.5 -126t46.5 -203.5q0 -118 -55 -203.5t-153 -110.5q67 -3 147 -48.5t136.5 -131t56.5 -202.5q0 -130 -51.5 -227t-152.5 -150t-244 -53q-53 0 -97.5 6z" />
    <glyph glyph-name="agrave" unicode="&#xe0;" horiz-adv-x="1084" 
d="M604 1260h-88l-96 270h88zM957.5 789q6.5 -56 6.5 -113v-676h-78v197q-61 -109 -174.5 -168t-257.5 -59q-121 0 -205.5 43t-126.5 114.5t-42 158.5q0 132 82 206.5t212 101.5q156 31 440 62l66 8q1 124 -31.5 203.5t-106 119t-194.5 39.5q-136 0 -218.5 -60.5
t-115.5 -185.5l-92 24q36 149 147 227.5t283 78.5q148 0 248.5 -60.5t137.5 -165.5q13 -39 19.5 -95zM880 582l-23 -2q-143 -13 -258.5 -27t-206.5 -37q-93 -23 -158.5 -77.5t-65.5 -154.5q0 -57 27.5 -109.5t91 -86.5t163.5 -34q116 0 206 42t145.5 122t70.5 190
q8 56 8 174z" />
    <glyph glyph-name="aacute" unicode="&#xe1;" horiz-adv-x="1084" 
d="M689 1530l-96 -270h-88l96 270h88zM957.5 789q6.5 -56 6.5 -113v-676h-78v197q-61 -109 -174.5 -168t-257.5 -59q-121 0 -205.5 43t-126.5 114.5t-42 158.5q0 132 82 206.5t212 101.5q156 31 440 62l66 8q1 124 -31.5 203.5t-106 119t-194.5 39.5q-136 0 -218.5 -60.5
t-115.5 -185.5l-92 24q36 149 147 227.5t283 78.5q148 0 248.5 -60.5t137.5 -165.5q13 -39 19.5 -95zM880 582l-23 -2q-143 -13 -258.5 -27t-206.5 -37q-93 -23 -158.5 -77.5t-65.5 -154.5q0 -57 27.5 -109.5t91 -86.5t163.5 -34q116 0 206 42t145.5 122t70.5 190
q8 56 8 174z" />
    <glyph glyph-name="acircumflex" unicode="&#xe2;" horiz-adv-x="1084" 
d="M558 1430l-146 -170h-100l200 240h92l200 -240h-100zM957.5 789q6.5 -56 6.5 -113v-676h-78v197q-61 -109 -174.5 -168t-257.5 -59q-121 0 -205.5 43t-126.5 114.5t-42 158.5q0 132 82 206.5t212 101.5q156 31 440 62l66 8q1 124 -31.5 203.5t-106 119t-194.5 39.5
q-136 0 -218.5 -60.5t-115.5 -185.5l-92 24q36 149 147 227.5t283 78.5q148 0 248.5 -60.5t137.5 -165.5q13 -39 19.5 -95zM880 582l-23 -2q-143 -13 -258.5 -27t-206.5 -37q-93 -23 -158.5 -77.5t-65.5 -154.5q0 -57 27.5 -109.5t91 -86.5t163.5 -34q116 0 206 42
t145.5 122t70.5 190q8 56 8 174z" />
    <glyph glyph-name="atilde" unicode="&#xe3;" horiz-adv-x="1084" 
d="M294 1270q-5 18 -5 40q0 55 37.5 90.5t95.5 35.5q38 0 74.5 -13.5t87.5 -39.5q44 -22 70.5 -32.5t51.5 -10.5q28 0 43.5 16.5t15.5 43.5q0 18 -5 30h72q5 -17 5 -40q0 -56 -37.5 -93t-97.5 -37q-37 0 -73.5 13.5t-85.5 39.5q-44 22 -71 32.5t-52 10.5q-30 0 -45 -16.5
t-15 -39.5q0 -16 6 -30h-72zM957.5 789q6.5 -56 6.5 -113v-676h-78v197q-61 -109 -174.5 -168t-257.5 -59q-121 0 -205.5 43t-126.5 114.5t-42 158.5q0 132 82 206.5t212 101.5q156 31 440 62l66 8q1 124 -31.5 203.5t-106 119t-194.5 39.5q-136 0 -218.5 -60.5
t-115.5 -185.5l-92 24q36 149 147 227.5t283 78.5q148 0 248.5 -60.5t137.5 -165.5q13 -39 19.5 -95zM880 582l-23 -2q-143 -13 -258.5 -27t-206.5 -37q-93 -23 -158.5 -77.5t-65.5 -154.5q0 -57 27.5 -109.5t91 -86.5t163.5 -34q116 0 206 42t145.5 122t70.5 190
q8 56 8 174z" />
    <glyph glyph-name="adieresis" unicode="&#xe4;" horiz-adv-x="1084" 
d="M448 1440v-120h-120v120h120zM808 1440v-120h-120v120h120zM957.5 789q6.5 -56 6.5 -113v-676h-78v197q-61 -109 -174.5 -168t-257.5 -59q-121 0 -205.5 43t-126.5 114.5t-42 158.5q0 132 82 206.5t212 101.5q156 31 440 62l66 8q1 124 -31.5 203.5t-106 119t-194.5 39.5
q-136 0 -218.5 -60.5t-115.5 -185.5l-92 24q36 149 147 227.5t283 78.5q148 0 248.5 -60.5t137.5 -165.5q13 -39 19.5 -95zM880 582l-23 -2q-143 -13 -258.5 -27t-206.5 -37q-93 -23 -158.5 -77.5t-65.5 -154.5q0 -57 27.5 -109.5t91 -86.5t163.5 -34q116 0 206 42
t145.5 122t70.5 190q8 56 8 174z" />
    <glyph glyph-name="aring" unicode="&#xe5;" horiz-adv-x="1084" 
d="M460.5 1226q-44.5 26 -71 70.5t-26.5 97.5q0 52 26.5 96.5t71 71t96.5 26.5q53 0 97.5 -26.5t70.5 -71t26 -96.5q0 -53 -26 -97.5t-70.5 -70.5t-97.5 -26q-52 0 -96.5 26zM479.5 1472q-32.5 -32 -32.5 -78q0 -45 32.5 -77.5t77.5 -32.5q46 0 78 32.5t32 77.5q0 46 -32 78
t-78 32q-45 0 -77.5 -32zM957.5 789q6.5 -56 6.5 -113v-676h-78v197q-61 -109 -174.5 -168t-257.5 -59q-121 0 -205.5 43t-126.5 114.5t-42 158.5q0 132 82 206.5t212 101.5q156 31 440 62l66 8q1 124 -31.5 203.5t-106 119t-194.5 39.5q-136 0 -218.5 -60.5t-115.5 -185.5
l-92 24q36 149 147 227.5t283 78.5q148 0 248.5 -60.5t137.5 -165.5q13 -39 19.5 -95zM880 582l-23 -2q-143 -13 -258.5 -27t-206.5 -37q-93 -23 -158.5 -77.5t-65.5 -154.5q0 -57 27.5 -109.5t91 -86.5t163.5 -34q116 0 206 42t145.5 122t70.5 190q8 56 8 174z" />
    <glyph glyph-name="ae" unicode="&#xe6;" horiz-adv-x="1892" 
d="M1568 115q96 61 152 183l66 -40q-61 -140 -174.5 -214t-263.5 -74q-154 0 -262 78t-160 217q-60 -158 -185.5 -226.5t-278.5 -68.5q-118 0 -204 38.5t-132 111t-46 172.5q0 140 80 208t174.5 84t199.5 16h346l1 36q0 194 -77.5 292t-249.5 98q-132 0 -223 -55.5
t-121 -176.5l-88 28q20 96 82 160.5t152 96t196 31.5q155 0 252.5 -66.5t136.5 -190.5q57 123 161.5 190t249.5 67q151 0 254 -73.5t154.5 -207t51.5 -313.5h-848q4 -141 48.5 -245t129.5 -160.5t206 -56.5q124 0 220 61zM1076.5 911.5q-97.5 -114.5 -110.5 -311.5h757
q-16 203 -110 314.5t-265 111.5q-174 0 -271.5 -114.5zM684 112q103 58 148 156q26 55 36.5 123t11.5 129h-346q-97 0 -171.5 -12t-134.5 -62.5t-60 -155.5q0 -114 75 -175t207 -61q131 0 234 58z" />
    <glyph glyph-name="ccedilla" unicode="&#xe7;" horiz-adv-x="1078" 
d="M785.5 109.5q91.5 55.5 140.5 160.5l82 -36q-63 -121 -162.5 -187.5t-231.5 -75.5l-42 -113q120 -49 120 -164q0 -47 -24 -86.5t-64.5 -62.5t-87.5 -23q-57 0 -120 28l28 74q50 -20 86 -20q43 0 68.5 28t25.5 66q0 32 -18.5 52t-43.5 31t-72 27l60 163
q-144 10 -243.5 83.5t-151.5 198t-55 287.5q3 175 60 303t167 197.5t267 69.5q99 0 186 -32.5t151 -93t97 -142.5l-80 -34q-45 103 -138.5 160.5t-215.5 57.5q-197 0 -299 -130.5t-105 -355.5q2 -149 48 -258t136 -168.5t220 -59.5q120 0 211.5 55.5z" />
    <glyph glyph-name="egrave" unicode="&#xe8;" 
d="M640 1260h-88l-96 270h88zM808.5 116.5q101.5 62.5 161.5 181.5l70 -40q-66 -138 -187.5 -213t-278.5 -75q-152 0 -263.5 69t-171 197.5t-59.5 303.5q0 176 59.5 304.5t170.5 197t264 68.5q154 0 264.5 -70t169 -203.5t58.5 -320.5h-896q4 -146 53 -249.5t138 -158
t213 -54.5q133 0 234.5 62.5zM290.5 915q-104.5 -111 -118.5 -315h801q-17 207 -119.5 316.5t-279.5 109.5q-179 0 -283.5 -111z" />
    <glyph glyph-name="eacute" unicode="&#xe9;" 
d="M735 1530l-96 -270h-88l96 270h88zM808.5 116.5q101.5 62.5 161.5 181.5l70 -40q-66 -138 -187.5 -213t-278.5 -75q-152 0 -263.5 69t-171 197.5t-59.5 303.5q0 176 59.5 304.5t170.5 197t264 68.5q154 0 264.5 -70t169 -203.5t58.5 -320.5h-896q4 -146 53 -249.5
t138 -158t213 -54.5q133 0 234.5 62.5zM290.5 915q-104.5 -111 -118.5 -315h801q-17 207 -119.5 316.5t-279.5 109.5q-179 0 -283.5 -111z" />
    <glyph glyph-name="ecircumflex" unicode="&#xea;" 
d="M574 1430l-146 -170h-100l200 240h92l200 -240h-100zM808.5 116.5q101.5 62.5 161.5 181.5l70 -40q-66 -138 -187.5 -213t-278.5 -75q-152 0 -263.5 69t-171 197.5t-59.5 303.5q0 176 59.5 304.5t170.5 197t264 68.5q154 0 264.5 -70t169 -203.5t58.5 -320.5h-896
q4 -146 53 -249.5t138 -158t213 -54.5q133 0 234.5 62.5zM290.5 915q-104.5 -111 -118.5 -315h801q-17 207 -119.5 316.5t-279.5 109.5q-179 0 -283.5 -111z" />
    <glyph glyph-name="edieresis" unicode="&#xeb;" 
d="M454 1440v-120h-120v120h120zM814 1440v-120h-120v120h120zM808.5 116.5q101.5 62.5 161.5 181.5l70 -40q-66 -138 -187.5 -213t-278.5 -75q-152 0 -263.5 69t-171 197.5t-59.5 303.5q0 176 59.5 304.5t170.5 197t264 68.5q154 0 264.5 -70t169 -203.5t58.5 -320.5h-896
q4 -146 53 -249.5t138 -158t213 -54.5q133 0 234.5 62.5zM290.5 915q-104.5 -111 -118.5 -315h801q-17 207 -119.5 316.5t-279.5 109.5q-179 0 -283.5 -111z" />
    <glyph glyph-name="igrave" unicode="&#xec;" horiz-adv-x="404" 
d="M60 1530h88l96 -270h-88zM244 1080v-1080h-84v1080h84z" />
    <glyph glyph-name="iacute" unicode="&#xed;" horiz-adv-x="404" 
d="M160 1260l96 270h88l-96 -270h-88zM244 1080v-1080h-84v1080h84z" />
    <glyph glyph-name="icircumflex" unicode="&#xee;" horiz-adv-x="404" 
d="M156 1500h92l200 -240h-100l-146 170l-146 -170h-100zM244 1080v-1080h-84v1080h84z" />
    <glyph glyph-name="idieresis" unicode="&#xef;" horiz-adv-x="404" 
d="M-38 1440h120v-120h-120v120zM322 1440h120v-120h-120v120zM244 1080v-1080h-84v1080h84z" />
    <glyph glyph-name="eth" unicode="&#xf0;" 
d="M1034 987.5q19 -82.5 25.5 -191.5t6.5 -290q0 -162 -59.5 -284t-171 -188t-261.5 -64q-153 -2 -264 63.5t-169.5 187t-60.5 283.5q2 164 61.5 285t170 186t262.5 63q121 2 228 -47t168 -141q-18 160 -80.5 275t-168.5 180l-115 -147l-66 52l105 133q-84 34 -185 41l10 82
q125 -7 230 -53l118 151l66 -52l-109 -139q129 -82 201 -229q39 -74 58 -156.5zM794 109q90 55 136 156.5t46 240.5t-47.5 240.5t-138 155.5t-216.5 52q-129 2 -219.5 -53t-137.5 -157t-47 -240q0 -141 47 -242t137.5 -154.5t219.5 -53.5q130 0 220 55z" />
    <glyph glyph-name="ntilde" unicode="&#xf1;" 
d="M304 1270q-5 18 -5 40q0 55 37.5 90.5t95.5 35.5q38 0 74.5 -13.5t87.5 -39.5q44 -22 70.5 -32.5t51.5 -10.5q28 0 43.5 16.5t15.5 43.5q0 18 -5 30h72q5 -17 5 -40q0 -56 -37.5 -93t-97.5 -37q-37 0 -73.5 13.5t-85.5 39.5q-43 22 -70.5 32.5t-52.5 10.5
q-30 0 -45 -16.5t-15 -39.5q0 -16 6 -30h-72zM822.5 1042q98.5 -62 151 -178.5t52.5 -275.5v-588h-84v572q0 227 -91.5 338.5t-262.5 111.5q-126 0 -207.5 -57.5t-119 -155t-37.5 -219.5v-590h-84v1080h78v-175q58 101 154.5 150t215.5 49q136 0 234.5 -62z" />
    <glyph glyph-name="ograve" unicode="&#xf2;" horiz-adv-x="1148" 
d="M427 1530h88l96 -270h-88zM306 42q-111 72 -168.5 201.5t-57.5 298.5q0 170 58.5 298.5t170 199t265.5 70.5q158 0 269 -71.5t168 -199.5t57 -297q0 -172 -57.5 -301t-169 -200t-267.5 -71q-157 0 -268 72zM797.5 114.5q90.5 60.5 135.5 170.5t45 257q0 226 -103 355
t-301 129q-134 0 -224.5 -61t-135 -169.5t-44.5 -253.5q0 -148 46 -258t136.5 -170t221.5 -60q133 0 223.5 60.5z" />
    <glyph glyph-name="oacute" unicode="&#xf3;" horiz-adv-x="1148" 
d="M527 1260l96 270h88l-96 -270h-88zM306 42q-111 72 -168.5 201.5t-57.5 298.5q0 170 58.5 298.5t170 199t265.5 70.5q158 0 269 -71.5t168 -199.5t57 -297q0 -172 -57.5 -301t-169 -200t-267.5 -71q-157 0 -268 72zM797.5 114.5q90.5 60.5 135.5 170.5t45 257
q0 226 -103 355t-301 129q-134 0 -224.5 -61t-135 -169.5t-44.5 -253.5q0 -148 46 -258t136.5 -170t221.5 -60q133 0 223.5 60.5z" />
    <glyph glyph-name="ocircumflex" unicode="&#xf4;" horiz-adv-x="1148" 
d="M528 1500h92l200 -240h-100l-146 170l-146 -170h-100zM306 42q-111 72 -168.5 201.5t-57.5 298.5q0 170 58.5 298.5t170 199t265.5 70.5q158 0 269 -71.5t168 -199.5t57 -297q0 -172 -57.5 -301t-169 -200t-267.5 -71q-157 0 -268 72zM797.5 114.5q90.5 60.5 135.5 170.5
t45 257q0 226 -103 355t-301 129q-134 0 -224.5 -61t-135 -169.5t-44.5 -253.5q0 -148 46 -258t136.5 -170t221.5 -60q133 0 223.5 60.5z" />
    <glyph glyph-name="otilde" unicode="&#xf5;" horiz-adv-x="1148" 
d="M640.5 1273.5q-36.5 13.5 -85.5 39.5q-44 22 -71 32.5t-52 10.5q-30 0 -45 -16.5t-15 -39.5q0 -16 6 -30h-72q-5 18 -5 40q0 55 37.5 90.5t95.5 35.5q38 0 74.5 -13.5t87.5 -39.5q44 -22 70.5 -32.5t51.5 -10.5q28 0 43.5 16.5t15.5 43.5q0 18 -5 30h72q5 -17 5 -40
q0 -56 -37.5 -93t-97.5 -37q-37 0 -73.5 13.5zM306 42q-111 72 -168.5 201.5t-57.5 298.5q0 170 58.5 298.5t170 199t265.5 70.5q158 0 269 -71.5t168 -199.5t57 -297q0 -172 -57.5 -301t-169 -200t-267.5 -71q-157 0 -268 72zM797.5 114.5q90.5 60.5 135.5 170.5t45 257
q0 226 -103 355t-301 129q-134 0 -224.5 -61t-135 -169.5t-44.5 -253.5q0 -148 46 -258t136.5 -170t221.5 -60q133 0 223.5 60.5z" />
    <glyph glyph-name="odieresis" unicode="&#xf6;" horiz-adv-x="1148" 
d="M334 1440h120v-120h-120v120zM694 1440h120v-120h-120v120zM306 42q-111 72 -168.5 201.5t-57.5 298.5q0 170 58.5 298.5t170 199t265.5 70.5q158 0 269 -71.5t168 -199.5t57 -297q0 -172 -57.5 -301t-169 -200t-267.5 -71q-157 0 -268 72zM797.5 114.5
q90.5 60.5 135.5 170.5t45 257q0 226 -103 355t-301 129q-134 0 -224.5 -61t-135 -169.5t-44.5 -253.5q0 -148 46 -258t136.5 -170t221.5 -60q133 0 223.5 60.5z" />
    <glyph glyph-name="divide" unicode="&#xf7;" horiz-adv-x="1080" 
d="M120 762h840v-84h-840v84zM480 1022h120v-120h-120v120zM480 538h120v-120h-120v120z" />
    <glyph glyph-name="oslash" unicode="&#xf8;" horiz-adv-x="1148" 
d="M984 891q41 -70 62.5 -158.5t21.5 -190.5q0 -172 -57.5 -301t-169 -200t-267.5 -71q-115 0 -205.5 39.5t-154.5 112.5l-122 -122l-60 60l132 132q-84 144 -84 350q0 170 58.5 298.5t170 199t265.5 70.5q115 0 206 -38.5t154 -111.5l122 120l60 -58zM349.5 965
q-90.5 -61 -135 -169.5t-44.5 -253.5q0 -169 59 -285l644 642q-51 62 -126.5 94.5t-172.5 32.5q-134 0 -224.5 -61zM797.5 114.5q90.5 60.5 135.5 170.5t45 257q0 171 -58 286l-644 -644q51 -63 126 -96.5t172 -33.5q133 0 223.5 60.5z" />
    <glyph glyph-name="ugrave" unicode="&#xf9;" 
d="M635 1260h-88l-96 270h88zM1006 1080v-1080h-78v175q-58 -101 -154.5 -150t-215.5 -49q-136 0 -234.5 62t-151 178.5t-52.5 275.5v588h84v-572q0 -227 91.5 -338.5t262.5 -111.5q126 0 207.5 57.5t119 155t37.5 219.5v590h84z" />
    <glyph glyph-name="uacute" unicode="&#xfa;" 
d="M700 1530l-96 -270h-88l96 270h88zM1006 1080v-1080h-78v175q-58 -101 -154.5 -150t-215.5 -49q-136 0 -234.5 62t-151 178.5t-52.5 275.5v588h84v-572q0 -227 91.5 -338.5t262.5 -111.5q126 0 207.5 57.5t119 155t37.5 219.5v590h84z" />
    <glyph glyph-name="ucircumflex" unicode="&#xfb;" 
d="M562 1430l-146 -170h-100l200 240h92l200 -240h-100zM1006 1080v-1080h-78v175q-58 -101 -154.5 -150t-215.5 -49q-136 0 -234.5 62t-151 178.5t-52.5 275.5v588h84v-572q0 -227 91.5 -338.5t262.5 -111.5q126 0 207.5 57.5t119 155t37.5 219.5v590h84z" />
    <glyph glyph-name="udieresis" unicode="&#xfc;" 
d="M442 1440v-120h-120v120h120zM802 1440v-120h-120v120h120zM1006 1080v-1080h-78v175q-58 -101 -154.5 -150t-215.5 -49q-136 0 -234.5 62t-151 178.5t-52.5 275.5v588h84v-572q0 -227 91.5 -338.5t262.5 -111.5q126 0 207.5 57.5t119 155t37.5 219.5v590h84z" />
    <glyph glyph-name="yacute" unicode="&#xfd;" horiz-adv-x="1012" 
d="M637 1530l-96 -270h-88l96 270h88zM872 1080h90l-566 -1560h-94l178 479l-440 1081h92l390 -965z" />
    <glyph glyph-name="thorn" unicode="&#xfe;" horiz-adv-x="1152" 
d="M861.5 1035.5q102.5 -74.5 156.5 -203.5t54 -290q0 -164 -54.5 -294t-160.5 -204t-255 -74q-129 0 -225.5 64t-152.5 178v-692h-84v1920h84v-569q58 114 158 176.5t236 62.5q141 0 243.5 -74.5zM809.5 117q85.5 63 129 173.5t43.5 251.5t-42 250.5t-127.5 171.5
t-210.5 62q-123 0 -209.5 -61.5t-130.5 -170.5t-44 -252q0 -141 44 -251.5t130.5 -173.5t209.5 -63q122 0 207.5 63z" />
    <glyph glyph-name="ydieresis" unicode="&#xff;" horiz-adv-x="1012" 
d="M394 1440v-120h-120v120h120zM754 1440v-120h-120v120h120zM872 1080h90l-566 -1560h-94l178 479l-440 1081h92l390 -965z" />
    <glyph glyph-name="Amacron" unicode="&#x100;" horiz-adv-x="1218" 
d="M850 1764v-84h-480v84h480zM1088 0l-136 374h-686l-136 -374h-90l524 1440h90l524 -1440h-90zM295 454h628l-315 865z" />
    <glyph glyph-name="amacron" unicode="&#x101;" horiz-adv-x="1084" 
d="M828 1404v-84h-480v84h480zM957.5 789q6.5 -56 6.5 -113v-676h-78v197q-61 -109 -174.5 -168t-257.5 -59q-121 0 -205.5 43t-126.5 114.5t-42 158.5q0 132 82 206.5t212 101.5q156 31 440 62l66 8q1 124 -31.5 203.5t-106 119t-194.5 39.5q-136 0 -218.5 -60.5
t-115.5 -185.5l-92 24q36 149 147 227.5t283 78.5q148 0 248.5 -60.5t137.5 -165.5q13 -39 19.5 -95zM880 582l-23 -2q-143 -13 -258.5 -27t-206.5 -37q-93 -23 -158.5 -77.5t-65.5 -154.5q0 -57 27.5 -109.5t91 -86.5t163.5 -34q116 0 206 42t145.5 122t70.5 190
q8 56 8 174z" />
    <glyph glyph-name="Abreve" unicode="&#x102;" horiz-adv-x="1218" 
d="M495.5 1602.5q-52.5 30.5 -83 83t-30.5 114.5h78q0 -40 20.5 -74.5t55 -55t74.5 -20.5q41 0 75.5 20.5t54.5 55t20 74.5h78q0 -62 -30.5 -114.5t-83 -83t-114.5 -30.5t-114.5 30.5zM1088 0l-136 374h-686l-136 -374h-90l524 1440h90l524 -1440h-90zM295 454h628l-315 865
z" />
    <glyph glyph-name="abreve" unicode="&#x103;" horiz-adv-x="1084" 
d="M445.5 1242.5q-52.5 30.5 -83 83t-30.5 114.5h78q0 -40 20.5 -74.5t55 -55t74.5 -20.5q41 0 75.5 20.5t54.5 55t20 74.5h78q0 -62 -30.5 -114.5t-83 -83t-114.5 -30.5t-114.5 30.5zM957.5 789q6.5 -56 6.5 -113v-676h-78v197q-61 -109 -174.5 -168t-257.5 -59
q-121 0 -205.5 43t-126.5 114.5t-42 158.5q0 132 82 206.5t212 101.5q156 31 440 62l66 8q1 124 -31.5 203.5t-106 119t-194.5 39.5q-136 0 -218.5 -60.5t-115.5 -185.5l-92 24q36 149 147 227.5t283 78.5q148 0 248.5 -60.5t137.5 -165.5q13 -39 19.5 -95zM880 582l-23 -2
q-143 -13 -258.5 -27t-206.5 -37q-93 -23 -158.5 -77.5t-65.5 -154.5q0 -57 27.5 -109.5t91 -86.5t163.5 -34q116 0 206 42t145.5 122t70.5 190q8 56 8 174z" />
    <glyph glyph-name="Aogonek" unicode="&#x104;" horiz-adv-x="1218" 
d="M1190 -402q-32 -41 -72 -61.5t-82 -20.5q-46 0 -86.5 25t-65 66.5t-24.5 88.5q0 77 59.5 165t156.5 172l-124 341h-686l-136 -374h-90l524 1440h90l524 -1440q-96 -63 -163 -148t-67 -156q0 -44 26 -72t62 -28q26 0 53.5 15.5t50.5 42.5zM295 454h628l-315 865z" />
    <glyph glyph-name="aogonek" unicode="&#x105;" horiz-adv-x="1084" 
d="M976 -402q-32 -41 -72 -61.5t-82 -20.5q-46 0 -86.5 25t-65 66.5t-24.5 88.5q0 82 66.5 176t173.5 181v144q-61 -109 -174.5 -168t-257.5 -59q-121 0 -205.5 43t-126.5 114.5t-42 158.5q0 132 82 206.5t212 101.5q156 31 440 62l66 8q1 124 -31.5 203.5t-106 119
t-194.5 39.5q-136 0 -218.5 -60.5t-115.5 -185.5l-92 24q36 149 147 227.5t283 78.5q148 0 248.5 -60.5t137.5 -165.5q13 -39 19.5 -95t6.5 -113v-676q-96 -63 -163 -148t-67 -156q0 -44 26 -72t62 -28q26 0 53.5 15.5t50.5 42.5zM880 582l-23 -2q-143 -13 -258.5 -27
t-206.5 -37q-93 -23 -158.5 -77.5t-65.5 -154.5q0 -57 27.5 -109.5t91 -86.5t163.5 -34q116 0 206 42t145.5 122t70.5 190q8 56 8 174z" />
    <glyph glyph-name="Cacute" unicode="&#x106;" horiz-adv-x="1400" 
d="M669 1620l96 270h88l-96 -270h-88zM351 64.5q-145 94.5 -218 263.5t-73 392t73 392t218 263.5t355 94.5q246 0 402 -128t212 -354l-88 -20q-49 196 -183 307t-343 111q-183 0 -307.5 -85.5t-186.5 -238.5t-62 -354q0 -194 63.5 -341.5t188.5 -230t304 -82.5
q209 0 343 111t183 307l88 -20q-56 -226 -212 -354t-402 -128q-210 0 -355 94.5z" />
    <glyph glyph-name="cacute" unicode="&#x107;" horiz-adv-x="1078" 
d="M552 1260l96 270h88l-96 -270h-88zM307 41q-110 71 -167 199.5t-60 299.5q3 175 60 303t167 197.5t267 69.5q99 0 186 -32.5t151 -93t97 -142.5l-80 -34q-45 103 -138.5 160.5t-215.5 57.5q-197 0 -299 -130.5t-105 -355.5q2 -149 48 -258t136 -168.5t220 -59.5
q120 0 211.5 55.5t140.5 160.5l82 -36q-67 -130 -177 -197t-257 -67q-157 0 -267 71z" />
    <glyph glyph-name="Ccircumflex" unicode="&#x108;" horiz-adv-x="1400" 
d="M661 1860h92l200 -240h-100l-146 170l-146 -170h-100zM351 64.5q-145 94.5 -218 263.5t-73 392t73 392t218 263.5t355 94.5q246 0 402 -128t212 -354l-88 -20q-49 196 -183 307t-343 111q-183 0 -307.5 -85.5t-186.5 -238.5t-62 -354q0 -194 63.5 -341.5t188.5 -230
t304 -82.5q209 0 343 111t183 307l88 -20q-56 -226 -212 -354t-402 -128q-210 0 -355 94.5z" />
    <glyph glyph-name="ccircumflex" unicode="&#x109;" horiz-adv-x="1078" 
d="M528 1500h92l200 -240h-100l-146 170l-146 -170h-100zM307 41q-110 71 -167 199.5t-60 299.5q3 175 60 303t167 197.5t267 69.5q99 0 186 -32.5t151 -93t97 -142.5l-80 -34q-45 103 -138.5 160.5t-215.5 57.5q-197 0 -299 -130.5t-105 -355.5q2 -149 48 -258t136 -168.5
t220 -59.5q120 0 211.5 55.5t140.5 160.5l82 -36q-67 -130 -177 -197t-257 -67q-157 0 -267 71z" />
    <glyph glyph-name="Cdotaccent" unicode="&#x10a;" horiz-adv-x="1400" 
d="M666 1800h120v-120h-120v120zM351 64.5q-145 94.5 -218 263.5t-73 392t73 392t218 263.5t355 94.5q246 0 402 -128t212 -354l-88 -20q-49 196 -183 307t-343 111q-183 0 -307.5 -85.5t-186.5 -238.5t-62 -354q0 -194 63.5 -341.5t188.5 -230t304 -82.5q209 0 343 111
t183 307l88 -20q-56 -226 -212 -354t-402 -128q-210 0 -355 94.5z" />
    <glyph glyph-name="cdotaccent" unicode="&#x10b;" horiz-adv-x="1078" 
d="M524 1440h120v-120h-120v120zM307 41q-110 71 -167 199.5t-60 299.5q3 175 60 303t167 197.5t267 69.5q99 0 186 -32.5t151 -93t97 -142.5l-80 -34q-45 103 -138.5 160.5t-215.5 57.5q-197 0 -299 -130.5t-105 -355.5q2 -149 48 -258t136 -168.5t220 -59.5
q120 0 211.5 55.5t140.5 160.5l82 -36q-67 -130 -177 -197t-257 -67q-157 0 -267 71z" />
    <glyph glyph-name="Ccaron" unicode="&#x10c;" horiz-adv-x="1400" 
d="M622 1860l146 -170l146 170h100l-200 -240h-92l-200 240h100zM351 64.5q-145 94.5 -218 263.5t-73 392t73 392t218 263.5t355 94.5q246 0 402 -128t212 -354l-88 -20q-49 196 -183 307t-343 111q-183 0 -307.5 -85.5t-186.5 -238.5t-62 -354q0 -194 63.5 -341.5
t188.5 -230t304 -82.5q209 0 343 111t183 307l88 -20q-56 -226 -212 -354t-402 -128q-210 0 -355 94.5z" />
    <glyph glyph-name="ccaron" unicode="&#x10d;" horiz-adv-x="1078" 
d="M428 1500l146 -170l146 170h100l-200 -240h-92l-200 240h100zM307 41q-110 71 -167 199.5t-60 299.5q3 175 60 303t167 197.5t267 69.5q99 0 186 -32.5t151 -93t97 -142.5l-80 -34q-45 103 -138.5 160.5t-215.5 57.5q-197 0 -299 -130.5t-105 -355.5q2 -149 48 -258
t136 -168.5t220 -59.5q120 0 211.5 55.5t140.5 160.5l82 -36q-67 -130 -177 -197t-257 -67q-157 0 -267 71z" />
    <glyph glyph-name="Dcaron" unicode="&#x10e;" horiz-adv-x="1304" 
d="M422 1860l146 -170l146 170h100l-200 -240h-92l-200 240h100zM754 1430q154 -22 260 -119.5t158 -250t52 -340.5q0 -189 -52 -341t-157.5 -249.5t-260.5 -119.5q-68 -10 -192 -10h-422v1440h422q122 0 192 -10zM740 96q204 34 299 199t95 425t-95 425t-299 199
q-32 6 -81 9t-97 3h-332v-1272h332q112 0 178 12z" />
    <glyph glyph-name="dcaron" unicode="&#x10f;" horiz-adv-x="1346" 
d="M1012 1440v-1440h-78v224q-56 -119 -154 -186.5t-230 -67.5q-149 0 -255 74t-160.5 204t-54.5 294q0 161 54 290t156.5 203.5t243.5 74.5q136 0 236 -62.5t158 -176.5v569h84zM759.5 117q86.5 63 130.5 173.5t44 251.5q0 143 -44 252t-130.5 170.5t-209.5 61.5
q-125 0 -210.5 -62t-127.5 -171.5t-42 -250.5t43.5 -251.5t129 -173.5t207.5 -63q123 0 209.5 63zM1294.5 1173.5q11.5 21.5 11.5 64.5v42h-66v180h120v-240q0 -56 -27 -88.5t-68 -32.5q-13 0 -25 3l6 52q37 -2 48.5 19.5z" />
    <glyph glyph-name="Dcroat" unicode="&#x110;" horiz-adv-x="1282" 
d="M992 1310.5q106 -97.5 158 -250t52 -340.5q0 -189 -52 -341t-157.5 -249.5t-260.5 -119.5q-68 -10 -192 -10h-422v678h-98v84h98v678h422q122 0 192 -10q154 -22 260 -119.5zM1017 295q95 165 95 425t-95 425t-299 199q-32 6 -81 9t-97 3h-332v-594h412v-84h-412v-594
h332q112 0 178 12q204 34 299 199z" />
    <glyph glyph-name="dcroat" unicode="&#x111;" horiz-adv-x="1152" 
d="M1160 1200h-148v-1200h-78v224q-56 -119 -154 -186.5t-230 -67.5q-149 0 -255 74t-160.5 204t-54.5 294q0 161 54 290t156.5 203.5t243.5 74.5q136 0 236 -62.5t158 -176.5v329h-248v84h248v156h84v-156h148v-84zM759.5 117q86.5 63 130.5 173.5t44 251.5q0 143 -44 252
t-130.5 170.5t-209.5 61.5q-125 0 -210.5 -62t-127.5 -171.5t-42 -250.5t43.5 -251.5t129 -173.5t207.5 -63q123 0 209.5 63z" />
    <glyph glyph-name="Emacron" unicode="&#x112;" horiz-adv-x="1120" 
d="M340 1764h480v-84h-480v84zM1020 1440v-84h-796v-594h676v-84h-676v-594h796v-84h-880v1440h880z" />
    <glyph glyph-name="emacron" unicode="&#x113;" 
d="M834 1404v-84h-480v84h480zM808.5 116.5q101.5 62.5 161.5 181.5l70 -40q-66 -138 -187.5 -213t-278.5 -75q-152 0 -263.5 69t-171 197.5t-59.5 303.5q0 176 59.5 304.5t170.5 197t264 68.5q154 0 264.5 -70t169 -203.5t58.5 -320.5h-896q4 -146 53 -249.5t138 -158
t213 -54.5q133 0 234.5 62.5zM290.5 915q-104.5 -111 -118.5 -315h801q-17 207 -119.5 316.5t-279.5 109.5q-179 0 -283.5 -111z" />
    <glyph glyph-name="Edotaccent" unicode="&#x116;" horiz-adv-x="1120" 
d="M530 1800h120v-120h-120v120zM1020 1440v-84h-796v-594h676v-84h-676v-594h796v-84h-880v1440h880z" />
    <glyph glyph-name="edotaccent" unicode="&#x117;" 
d="M634 1440v-120h-120v120h120zM808.5 116.5q101.5 62.5 161.5 181.5l70 -40q-66 -138 -187.5 -213t-278.5 -75q-152 0 -263.5 69t-171 197.5t-59.5 303.5q0 176 59.5 304.5t170.5 197t264 68.5q154 0 264.5 -70t169 -203.5t58.5 -320.5h-896q4 -146 53 -249.5t138 -158
t213 -54.5q133 0 234.5 62.5zM290.5 915q-104.5 -111 -118.5 -315h801q-17 207 -119.5 316.5t-279.5 109.5q-179 0 -283.5 -111z" />
    <glyph glyph-name="Eogonek" unicode="&#x118;" horiz-adv-x="1120" 
d="M1032 -402q-32 -41 -72 -61.5t-82 -20.5q-46 0 -86.5 25t-65 66.5t-24.5 88.5q0 69 48.5 148t130.5 156h-741v1440h880v-84h-796v-594h676v-84h-676v-594h796v-84q-96 -63 -163 -148t-67 -156q0 -44 26 -72t62 -28q26 0 53.5 15.5t50.5 42.5z" />
    <glyph glyph-name="eogonek" unicode="&#x119;" 
d="M732.5 -195.5q-20.5 -37.5 -30.5 -72.5q-7 -26 -7 -45q0 -34 23 -57q27 -27 63 -27q50 0 109 53l52 -58q-40 -40 -90 -62q-36 -15 -72 -15q-35 0 -65.5 12.5t-54.5 36.5q-48 48 -48 118q0 28 10 66q22 80 88 166q19 24 47 55l34 38q-100 -43 -217 -43q-152 0 -263.5 69
t-171 197.5t-59.5 303.5q0 176 59.5 304.5t170.5 197t264 68.5q154 0 264.5 -70t169 -203.5t58.5 -320.5h-896q4 -146 53 -249.5t138 -158t213 -54.5q133 0 234.5 62.5t161.5 181.5l70 -40l-8 -17q-46 -99 -204 -296l-44 -57q-31 -46 -51.5 -83.5zM290.5 915
q-104.5 -111 -118.5 -315h801q-17 207 -119.5 316.5t-279.5 109.5q-179 0 -283.5 -111z" />
    <glyph glyph-name="Ecaron" unicode="&#x11a;" horiz-adv-x="1120" 
d="M440 1860l146 -170l146 170h100l-200 -240h-92l-200 240h100zM1020 1440v-84h-796v-594h676v-84h-676v-594h796v-84h-880v1440h880z" />
    <glyph glyph-name="ecaron" unicode="&#x11b;" 
d="M620 1260h-92l-200 240h100l146 -170l146 170h100zM808.5 116.5q101.5 62.5 161.5 181.5l70 -40q-66 -138 -187.5 -213t-278.5 -75q-152 0 -263.5 69t-171 197.5t-59.5 303.5q0 176 59.5 304.5t170.5 197t264 68.5q154 0 264.5 -70t169 -203.5t58.5 -320.5h-896
q4 -146 53 -249.5t138 -158t213 -54.5q133 0 234.5 62.5zM290.5 915q-104.5 -111 -118.5 -315h801q-17 207 -119.5 316.5t-279.5 109.5q-179 0 -283.5 -111z" />
    <glyph glyph-name="Gcircumflex" unicode="&#x11c;" horiz-adv-x="1374" 
d="M641 1860h92l200 -240h-100l-146 170l-146 -170h-100zM351 64.5q-145 94.5 -218 263.5t-73 392t73 391.5t218 262.5t355 94q199 0 338 -93.5t200 -252.5l-82 -34q-54 138 -172 217t-284 79q-183 0 -307.5 -85t-186.5 -237.5t-62 -353.5q0 -194 63.5 -341.5t188.5 -230
t304 -82.5q266 0 392 154.5t126 427.5h-384v84h470q4 -38 4 -86q0 -194 -65 -343.5t-201 -235t-342 -85.5q-210 0 -355 94.5z" />
    <glyph glyph-name="gcircumflex" unicode="&#x11d;" horiz-adv-x="1152" 
d="M546 1430l-146 -170h-100l200 240h92l200 -240h-100zM1012 1080v-1020q0 -111 -10 -186q-24 -197 -133 -290.5t-317 -93.5q-131 0 -243.5 56.5t-180.5 183.5l74 50q51 -104 145.5 -154t204.5 -50q143 0 224.5 53.5t115.5 158.5t34 272v148q-57 -112 -153 -175t-223 -63
q-149 0 -255 74t-160.5 204t-54.5 294q0 161 54 290t156.5 203.5t243.5 74.5q140 0 242 -66t158 -185v221h78zM759.5 117q86.5 63 130.5 173.5t44 251.5q0 143 -44 252t-130.5 170.5t-209.5 61.5q-125 0 -210.5 -62t-127.5 -171.5t-42 -250.5t43.5 -251.5t129 -173.5
t207.5 -63q123 0 209.5 63z" />
    <glyph glyph-name="Gbreve" unicode="&#x11e;" horiz-adv-x="1374" 
d="M596.5 1602.5q-52.5 30.5 -83 83t-30.5 114.5h78q0 -40 20.5 -74.5t55 -55t74.5 -20.5q41 0 75.5 20.5t54.5 55t20 74.5h78q0 -62 -30.5 -114.5t-83 -83t-114.5 -30.5t-114.5 30.5zM351 64.5q-145 94.5 -218 263.5t-73 392t73 391.5t218 262.5t355 94q199 0 338 -93.5
t200 -252.5l-82 -34q-54 138 -172 217t-284 79q-183 0 -307.5 -85t-186.5 -237.5t-62 -353.5q0 -194 63.5 -341.5t188.5 -230t304 -82.5q266 0 392 154.5t126 427.5h-384v84h470q4 -38 4 -86q0 -194 -65 -343.5t-201 -235t-342 -85.5q-210 0 -355 94.5z" />
    <glyph glyph-name="gbreve" unicode="&#x11f;" horiz-adv-x="1152" 
d="M489.5 1242.5q-52.5 30.5 -83 83t-30.5 114.5h78q0 -40 20.5 -74.5t55 -55t74.5 -20.5q41 0 75.5 20.5t54.5 55t20 74.5h78q0 -62 -30.5 -114.5t-83 -83t-114.5 -30.5t-114.5 30.5zM1012 1080v-1020q0 -111 -10 -186q-24 -197 -133 -290.5t-317 -93.5q-131 0 -243.5 56.5
t-180.5 183.5l74 50q51 -104 145.5 -154t204.5 -50q143 0 224.5 53.5t115.5 158.5t34 272v148q-57 -112 -153 -175t-223 -63q-149 0 -255 74t-160.5 204t-54.5 294q0 161 54 290t156.5 203.5t243.5 74.5q140 0 242 -66t158 -185v221h78zM759.5 117q86.5 63 130.5 173.5
t44 251.5q0 143 -44 252t-130.5 170.5t-209.5 61.5q-125 0 -210.5 -62t-127.5 -171.5t-42 -250.5t43.5 -251.5t129 -173.5t207.5 -63q123 0 209.5 63z" />
    <glyph glyph-name="Gdotaccent" unicode="&#x120;" horiz-adv-x="1374" 
d="M666 1800h120v-120h-120v120zM351 64.5q-145 94.5 -218 263.5t-73 392t73 391.5t218 262.5t355 94q199 0 338 -93.5t200 -252.5l-82 -34q-54 138 -172 217t-284 79q-183 0 -307.5 -85t-186.5 -237.5t-62 -353.5q0 -194 63.5 -341.5t188.5 -230t304 -82.5q266 0 392 154.5
t126 427.5h-384v84h470q4 -38 4 -86q0 -194 -65 -343.5t-201 -235t-342 -85.5q-210 0 -355 94.5z" />
    <glyph glyph-name="gdotaccent" unicode="&#x121;" horiz-adv-x="1152" 
d="M666 1440v-120h-120v120h120zM1012 1080v-1020q0 -111 -10 -186q-24 -197 -133 -290.5t-317 -93.5q-131 0 -243.5 56.5t-180.5 183.5l74 50q51 -104 145.5 -154t204.5 -50q143 0 224.5 53.5t115.5 158.5t34 272v148q-57 -112 -153 -175t-223 -63q-149 0 -255 74
t-160.5 204t-54.5 294q0 161 54 290t156.5 203.5t243.5 74.5q140 0 242 -66t158 -185v221h78zM759.5 117q86.5 63 130.5 173.5t44 251.5q0 143 -44 252t-130.5 170.5t-209.5 61.5q-125 0 -210.5 -62t-127.5 -171.5t-42 -250.5t43.5 -251.5t129 -173.5t207.5 -63
q123 0 209.5 63z" />
    <glyph glyph-name="uni0122" unicode="&#x122;" horiz-adv-x="1374" 
d="M351 64.5q-145 94.5 -218 263.5t-73 392t73 391.5t218 262.5t355 94q199 0 338 -93.5t200 -252.5l-82 -34q-54 138 -172 217t-284 79q-183 0 -307.5 -85t-186.5 -237.5t-62 -353.5q0 -194 63.5 -341.5t188.5 -230t304 -82.5q266 0 392 154.5t126 427.5h-384v84h470
q4 -38 4 -86q0 -194 -65 -343.5t-201 -235t-342 -85.5q-210 0 -355 94.5zM676 -442q16 8 26.5 25.5t7.5 44.5h-62v120h120v-120q0 -48 -19 -79t-46.5 -45t-54.5 -14v60q12 0 28 8z" />
    <glyph glyph-name="uni0123" unicode="&#x123;" horiz-adv-x="1152" 
d="M646 1320h-120v120q0 48 19 79t46.5 45t54.5 14v-60q-12 0 -28 -8t-26.5 -25.5t-7.5 -44.5h62v-120zM1012 1080v-1020q0 -111 -10 -186q-24 -197 -133 -290.5t-317 -93.5q-131 0 -243.5 56.5t-180.5 183.5l74 50q51 -104 145.5 -154t204.5 -50q143 0 224.5 53.5
t115.5 158.5t34 272v148q-57 -112 -153 -175t-223 -63q-149 0 -255 74t-160.5 204t-54.5 294q0 161 54 290t156.5 203.5t243.5 74.5q140 0 242 -66t158 -185v221h78zM759.5 117q86.5 63 130.5 173.5t44 251.5q0 143 -44 252t-130.5 170.5t-209.5 61.5q-125 0 -210.5 -62
t-127.5 -171.5t-42 -250.5t43.5 -251.5t129 -173.5t207.5 -63q123 0 209.5 63z" />
    <glyph glyph-name="Hcircumflex" unicode="&#x124;" horiz-adv-x="1320" 
d="M614 1860h92l200 -240h-100l-146 170l-146 -170h-100zM224 1440v-678h872v678h84v-1440h-84v678h-872v-678h-84v1440h84z" />
    <glyph glyph-name="hcircumflex" unicode="&#x125;" 
d="M325 1620l-146 170l-146 -170h-100l200 240h92l200 -240h-100zM822.5 1042q98.5 -62 151 -178.5t52.5 -275.5v-588h-84v572q0 227 -91.5 338.5t-262.5 111.5q-126 0 -207.5 -57.5t-119 -155t-37.5 -219.5v-590h-84v1440h78v-535q58 101 154.5 150t215.5 49
q136 0 234.5 -62z" />
    <glyph glyph-name="Hbar" unicode="&#x126;" horiz-adv-x="1360" 
d="M1340 1080v-84h-140v-996h-84v678h-872v-678h-84v996h-140v84h140v360h84v-360h872v360h84v-360h140zM1116 762v234h-872v-234h872z" />
    <glyph glyph-name="hbar" unicode="&#x127;" 
d="M822.5 1042q98.5 -62 151 -178.5t52.5 -275.5v-588h-84v572q0 227 -91.5 338.5t-262.5 111.5q-126 0 -207.5 -57.5t-119 -155t-37.5 -219.5v-590h-84v1200h-140v84h140v156h78v-156h262v-84h-262v-295q58 101 154.5 150t215.5 49q136 0 234.5 -62z" />
    <glyph glyph-name="Itilde" unicode="&#x128;" horiz-adv-x="404" 
d="M267.5 1633.5q-36.5 13.5 -85.5 39.5q-44 22 -71 32.5t-52 10.5q-30 0 -45 -16.5t-15 -39.5q0 -16 6 -30h-72q-5 18 -5 40q0 55 37.5 90.5t95.5 35.5q38 0 74.5 -13.5t87.5 -39.5q44 -22 70.5 -32.5t51.5 -10.5q28 0 43.5 16.5t15.5 43.5q0 18 -5 30h72q5 -17 5 -40
q0 -56 -37.5 -93t-97.5 -37q-37 0 -73.5 13.5zM244 1440v-1440h-84v1440h84z" />
    <glyph glyph-name="itilde" unicode="&#x129;" horiz-adv-x="404" 
d="M267.5 1273.5q-36.5 13.5 -85.5 39.5q-44 22 -71 32.5t-52 10.5q-30 0 -45 -16.5t-15 -39.5q0 -16 6 -30h-72q-5 18 -5 40q0 55 37.5 90.5t95.5 35.5q38 0 74.5 -13.5t87.5 -39.5q44 -22 70.5 -32.5t51.5 -10.5q28 0 43.5 16.5t15.5 43.5q0 18 -5 30h72q5 -17 5 -40
q0 -56 -37.5 -93t-97.5 -37q-37 0 -73.5 13.5zM244 1080v-1080h-84v1080h84z" />
    <glyph glyph-name="Imacron" unicode="&#x12a;" horiz-adv-x="404" 
d="M-38 1764h480v-84h-480v84zM244 1440v-1440h-84v1440h84z" />
    <glyph glyph-name="imacron" unicode="&#x12b;" horiz-adv-x="404" 
d="M-38 1404h480v-84h-480v84zM244 1080v-1080h-84v1080h84z" />
    <glyph glyph-name="Iogonek" unicode="&#x12e;" horiz-adv-x="404" 
d="M256 -402q-32 -41 -72 -61.5t-82 -20.5q-46 0 -86.5 25t-65 66.5t-24.5 88.5q0 81 64.5 173.5t169.5 178.5v1392h84v-1440q-96 -63 -163 -148t-67 -156q0 -44 26 -72t62 -28q26 0 53.5 15.5t50.5 42.5z" />
    <glyph glyph-name="iogonek" unicode="&#x12f;" horiz-adv-x="404" 
d="M244 1440v-128h-84v128h84zM256 -402q-32 -41 -72 -61.5t-82 -20.5q-46 0 -86.5 25t-65 66.5t-24.5 88.5q0 81 64.5 173.5t169.5 178.5v1032h84v-1080q-96 -63 -163 -148t-67 -156q0 -44 26 -72t62 -28q26 0 53.5 15.5t50.5 42.5z" />
    <glyph glyph-name="Idotaccent" unicode="&#x130;" horiz-adv-x="404" 
d="M142 1800h120v-120h-120v120zM244 1440v-1440h-84v1440h84z" />
    <glyph glyph-name="dotlessi" unicode="&#x131;" horiz-adv-x="404" 
d="M160 1080h84v-1080h-84v1080z" />
    <glyph glyph-name="Jcircumflex" unicode="&#x134;" horiz-adv-x="878" 
d="M628 1860h92l200 -240h-100l-146 170l-146 -170h-100zM197.5 6.5q-74.5 34.5 -126 97.5t-71.5 146l86 20q15 -61 54 -110t96.5 -76.5t125.5 -27.5q71 0 134 32t100 98q24 45 30 94t6 144v1016h84v-1016v-44q0 -80 -8.5 -133t-37.5 -105q-47 -83 -129 -126.5t-183 -43.5
q-86 0 -160.5 34.5z" />
    <glyph glyph-name="jcircumflex" unicode="&#x135;" horiz-adv-x="450" 
d="M202 1500h92l200 -240h-100l-146 170l-146 -170h-100zM48 -394q70 0 114 38.5t44 125.5v1310h84v-1300q0 -138 -57 -199t-187 -61h-66v86h68z" />
    <glyph glyph-name="uni0136" unicode="&#x136;" horiz-adv-x="1116" 
d="M140 1440h84v-1440h-84v1440zM346 752l770 -752h-116l-776 752l712 688h116zM524 -252h120v-120q0 -48 -19 -79t-46.5 -45t-54.5 -14v60q12 0 28 8t26.5 25.5t7.5 44.5h-62v120z" />
    <glyph glyph-name="uni0137" unicode="&#x137;" horiz-adv-x="936" 
d="M224 1440v-880l540 520h126l-564 -540l650 -540h-144l-608 520v-520h-84v1440h84zM476 -442q16 8 26.5 25.5t7.5 44.5h-62v120h120v-120q0 -48 -19 -79t-46.5 -45t-54.5 -14v60q12 0 28 8z" />
    <glyph glyph-name="Lacute" unicode="&#x139;" horiz-adv-x="990" 
d="M160 1620l96 270h88l-96 -270h-88zM244 1440v-1356h716v-84h-800v1440h84z" />
    <glyph glyph-name="lacute" unicode="&#x13a;" horiz-adv-x="404" 
d="M160 1620l96 270h88l-96 -270h-88zM244 1470v-1470h-84v1470h84z" />
    <glyph glyph-name="uni013B" unicode="&#x13b;" horiz-adv-x="990" 
d="M244 1440v-1356h716v-84h-800v1440h84zM528 -442q16 8 26.5 25.5t7.5 44.5h-62v120h120v-120q0 -48 -19 -79t-46.5 -45t-54.5 -14v60q12 0 28 8z" />
    <glyph glyph-name="uni013C" unicode="&#x13c;" horiz-adv-x="404" 
d="M244 1470v-1470h-84v1470h84zM170 -442q16 8 26.5 25.5t7.5 44.5h-62v120h120v-120q0 -48 -19 -79t-46.5 -45t-54.5 -14v60q12 0 28 8z" />
    <glyph glyph-name="Lcaron" unicode="&#x13d;" horiz-adv-x="990" 
d="M160 1440h84v-1356h716v-84h-800v1440zM688.5 1173.5q11.5 21.5 11.5 64.5v42h-66v180h120v-240q0 -56 -27 -88.5t-68 -32.5q-13 0 -25 3l6 52q37 -2 48.5 19.5z" />
    <glyph glyph-name="lcaron" unicode="&#x13e;" horiz-adv-x="520" 
d="M160 1470h84v-1470h-84v1470zM468.5 1173.5q11.5 21.5 11.5 64.5v42h-66v180h120v-240q0 -56 -27 -88.5t-68 -32.5q-13 0 -25 3l6 52q37 -2 48.5 19.5z" />
    <glyph glyph-name="Lslash" unicode="&#x141;" horiz-adv-x="990" 
d="M244 84h716v-84h-800v486l-62 -36v100l62 36v854h84v-806l380 218v-98l-380 -220v-450z" />
    <glyph glyph-name="lslash" unicode="&#x142;" horiz-adv-x="722" 
d="M624 936v-98l-220 -127v-711h-84v662l-222 -128v100l222 127v709h84v-660z" />
    <glyph glyph-name="Nacute" unicode="&#x143;" horiz-adv-x="1324" 
d="M640 1620l96 270h88l-96 -270h-88zM224 1440l876 -1290v1290h84v-1440h-84l-876 1292v-1292h-84v1440h84z" />
    <glyph glyph-name="nacute" unicode="&#x144;" 
d="M745 1530l-96 -270h-88l96 270h88zM822.5 1042q98.5 -62 151 -178.5t52.5 -275.5v-588h-84v572q0 227 -91.5 338.5t-262.5 111.5q-126 0 -207.5 -57.5t-119 -155t-37.5 -219.5v-590h-84v1080h78v-175q58 101 154.5 150t215.5 49q136 0 234.5 -62z" />
    <glyph glyph-name="uni0145" unicode="&#x145;" horiz-adv-x="1324" 
d="M224 1440l876 -1290v1290h84v-1440h-84l-876 1292v-1292h-84v1440h84zM650 -442q16 8 26.5 25.5t7.5 44.5h-62v120h120v-120q0 -48 -19 -79t-46.5 -45t-54.5 -14v60q12 0 28 8z" />
    <glyph glyph-name="uni0146" unicode="&#x146;" 
d="M822.5 1042q98.5 -62 151 -178.5t52.5 -275.5v-588h-84v572q0 227 -91.5 338.5t-262.5 111.5q-126 0 -207.5 -57.5t-119 -155t-37.5 -219.5v-590h-84v1080h78v-175q58 101 154.5 150t215.5 49q136 0 234.5 -62zM524 -252h120v-120q0 -48 -19 -79t-46.5 -45t-54.5 -14v60
q12 0 28 8t26.5 25.5t7.5 44.5h-62v120z" />
    <glyph glyph-name="Ncaron" unicode="&#x147;" horiz-adv-x="1324" 
d="M544 1860l146 -170l146 170h100l-200 -240h-92l-200 240h100zM224 1440l876 -1290v1290h84v-1440h-84l-876 1292v-1292h-84v1440h84z" />
    <glyph glyph-name="ncaron" unicode="&#x148;" 
d="M626 1260h-92l-200 240h100l146 -170l146 170h100zM822.5 1042q98.5 -62 151 -178.5t52.5 -275.5v-588h-84v572q0 227 -91.5 338.5t-262.5 111.5q-126 0 -207.5 -57.5t-119 -155t-37.5 -219.5v-590h-84v1080h78v-175q58 101 154.5 150t215.5 49q136 0 234.5 -62z" />
    <glyph glyph-name="Eng" unicode="&#x14a;" horiz-adv-x="1324" 
d="M1184 -190q0 -87 -36.5 -127.5t-115.5 -40.5q-39 0 -82 10v82q33 -6 58 -6q37 0 56.5 14t27.5 48.5t8 99.5q0 109 -42 172l-834 1230v-1292h-84v1440h84l876 -1290v1290h84v-1630z" />
    <glyph glyph-name="eng" unicode="&#x14b;" 
d="M822.5 1042q98.5 -62 151 -178.5t52.5 -275.5v-778q0 -80 -27.5 -118t-76.5 -48q-27 -3 -48 -3q-40 0 -82 11v82q37 -5 57 -5q39 0 59 15.5t27 49t7 96.5v682q0 227 -91.5 338.5t-262.5 111.5q-126 0 -207.5 -57.5t-119 -155t-37.5 -219.5v-590h-84v1080h78v-175
q58 101 154.5 150t215.5 49q136 0 234.5 -62z" />
    <glyph glyph-name="Omacron" unicode="&#x14c;" horiz-adv-x="1412" 
d="M466 1764h480v-84h-480v84zM351 64.5q-145 94.5 -218 263.5t-73 392t73 392t218 263.5t355 94.5t355 -94.5t218 -263.5t73 -392t-73 -392t-218 -263.5t-355 -94.5t-355 94.5zM1011.5 138q124.5 84 187.5 234t63 348t-63 348t-187.5 234t-305.5 84q-183 0 -307.5 -85.5
t-186.5 -238.5t-62 -354q0 -194 63.5 -341.5t188.5 -230t304 -82.5q181 0 305.5 84z" />
    <glyph glyph-name="omacron" unicode="&#x14d;" horiz-adv-x="1148" 
d="M334 1404h480v-84h-480v84zM306 42q-111 72 -168.5 201.5t-57.5 298.5q0 170 58.5 298.5t170 199t265.5 70.5q158 0 269 -71.5t168 -199.5t57 -297q0 -172 -57.5 -301t-169 -200t-267.5 -71q-157 0 -268 72zM797.5 114.5q90.5 60.5 135.5 170.5t45 257q0 226 -103 355
t-301 129q-134 0 -224.5 -61t-135 -169.5t-44.5 -253.5q0 -148 46 -258t136.5 -170t221.5 -60q133 0 223.5 60.5z" />
    <glyph glyph-name="Ohungarumlaut" unicode="&#x150;" horiz-adv-x="1412" 
d="M351 64.5q-145 94.5 -218 263.5t-73 392t73 392t218 263.5t355 94.5t355 -94.5t218 -263.5t73 -392t-73 -392t-218 -263.5t-355 -94.5t-355 94.5zM1011.5 138q124.5 84 187.5 234t63 348t-63 348t-187.5 234t-305.5 84q-183 0 -307.5 -85.5t-186.5 -238.5t-62 -354
q0 -194 63.5 -341.5t188.5 -230t304 -82.5q181 0 305.5 84zM839 1620l96 270h88l-96 -270h-88zM489 1620l96 270h88l-96 -270h-88z" />
    <glyph glyph-name="ohungarumlaut" unicode="&#x151;" horiz-adv-x="1148" 
d="M306 42q-111 72 -168.5 201.5t-57.5 298.5q0 170 58.5 298.5t170 199t265.5 70.5q158 0 269 -71.5t168 -199.5t57 -297q0 -172 -57.5 -301t-169 -200t-267.5 -71q-157 0 -268 72zM797.5 114.5q90.5 60.5 135.5 170.5t45 257q0 226 -103 355t-301 129q-134 0 -224.5 -61
t-135 -169.5t-44.5 -253.5q0 -148 46 -258t136.5 -170t221.5 -60q133 0 223.5 60.5zM711 1260l96 270h88l-96 -270h-88zM361 1260l96 270h88l-96 -270h-88z" />
    <glyph glyph-name="OE" unicode="&#x152;" horiz-adv-x="2248" 
d="M1352 1356v-594h676v-84h-676v-594h796v-84h-880v304q-76 -159 -218 -246.5t-344 -87.5q-210 0 -355 94.5t-218 263.5t-73 392t73 392t218 263.5t355 94.5q202 0 344 -87.5t218 -246.5v304h880v-84h-796zM1011.5 138q124.5 84 187.5 234t63 348t-63 348t-187.5 234
t-305.5 84q-183 0 -307.5 -85.5t-186.5 -238.5t-62 -354q0 -194 63.5 -341.5t188.5 -230t304 -82.5q181 0 305.5 84z" />
    <glyph glyph-name="oe" unicode="&#x153;" horiz-adv-x="2046" 
d="M1708.5 116.5q101.5 62.5 161.5 181.5l70 -40q-66 -138 -187.5 -213t-278.5 -75q-163 0 -279.5 79.5t-170.5 224.5q-54 -145 -169 -224.5t-281 -79.5q-157 0 -268 72t-168.5 201.5t-57.5 298.5q0 170 58.5 298.5t170 199t265.5 70.5q167 0 281.5 -80t168.5 -223
q54 146 170 224.5t280 78.5q154 0 264.5 -70t169 -203.5t58.5 -320.5h-896q4 -146 53 -249.5t138 -158t213 -54.5q133 0 234.5 62.5zM797.5 114.5q90.5 60.5 135.5 170.5t45 257q0 226 -103 355t-301 129q-134 0 -224.5 -61t-135 -169.5t-44.5 -253.5q0 -148 46 -258
t136.5 -170t221.5 -60q133 0 223.5 60.5zM1190.5 915q-104.5 -111 -118.5 -315h801q-17 207 -119.5 316.5t-279.5 109.5q-179 0 -283.5 -111z" />
    <glyph glyph-name="Racute" unicode="&#x154;" horiz-adv-x="1222" 
d="M688 1890l-96 -270h-88l96 270h88zM1042 0l-279 576h-539v-576h-84v1440h530q44 0 92 -8q102 -16 179 -75.5t119 -150t42 -198.5q0 -139 -68.5 -247.5t-187.5 -153.5l296 -607h-100zM670 660q45 0 88 8q81 16 138 65t86.5 121t29.5 154t-29.5 154t-86.5 121t-138 65
q-43 8 -88 8h-446v-696h446z" />
    <glyph glyph-name="racute" unicode="&#x155;" horiz-adv-x="670" 
d="M444 1530l-96 -270h-88l96 270h88zM398.5 1068.5q66.5 23.5 134.5 23.5q48 0 87 -12v-80q-47 10 -88 10q-115 0 -194 -74q-53 -49 -78 -115.5t-30.5 -131.5t-5.5 -157v-532h-84v1080h78v-169q28 51 68 89q46 45 112.5 68.5z" />
    <glyph glyph-name="uni0156" unicode="&#x156;" horiz-adv-x="1222" 
d="M1042 0l-279 576h-539v-576h-84v1440h530q44 0 92 -8q102 -16 179 -75.5t119 -150t42 -198.5q0 -139 -68.5 -247.5t-187.5 -153.5l296 -607h-100zM670 660q45 0 88 8q81 16 138 65t86.5 121t29.5 154t-29.5 154t-86.5 121t-138 65q-43 8 -88 8h-446v-696h446zM530 -252
h120v-120q0 -48 -19 -79t-46.5 -45t-54.5 -14v60q12 0 28 8t26.5 25.5t7.5 44.5h-62v120z" />
    <glyph glyph-name="uni0157" unicode="&#x157;" horiz-adv-x="670" 
d="M398.5 1068.5q66.5 23.5 134.5 23.5q48 0 87 -12v-80q-47 10 -88 10q-115 0 -194 -74q-53 -49 -78 -115.5t-30.5 -131.5t-5.5 -157v-532h-84v1080h78v-169q28 51 68 89q46 45 112.5 68.5zM122 -252h120v-120q0 -48 -19 -79t-46.5 -45t-54.5 -14v60q12 0 28 8t26.5 25.5
t7.5 44.5h-62v120z" />
    <glyph glyph-name="Rcaron" unicode="&#x158;" horiz-adv-x="1222" 
d="M598 1620h-92l-200 240h100l146 -170l146 170h100zM1042 0l-279 576h-539v-576h-84v1440h530q44 0 92 -8q102 -16 179 -75.5t119 -150t42 -198.5q0 -139 -68.5 -247.5t-187.5 -153.5l296 -607h-100zM670 660q45 0 88 8q81 16 138 65t86.5 121t29.5 154t-29.5 154
t-86.5 121t-138 65q-43 8 -88 8h-446v-696h446z" />
    <glyph glyph-name="rcaron" unicode="&#x159;" horiz-adv-x="670" 
d="M426 1260h-92l-200 240h100l146 -170l146 170h100zM398.5 1068.5q66.5 23.5 134.5 23.5q48 0 87 -12v-80q-47 10 -88 10q-115 0 -194 -74q-53 -49 -78 -115.5t-30.5 -131.5t-5.5 -157v-532h-84v1080h78v-169q28 51 68 89q46 45 112.5 68.5z" />
    <glyph glyph-name="Sacute" unicode="&#x15a;" horiz-adv-x="1178" 
d="M552 1620l96 270h88l-96 -270h-88zM356 17.5q-117 47.5 -193.5 135t-102.5 205.5l84 16q26 -98 92 -170.5t164 -111t218 -38.5q125 0 219.5 40t146.5 113t52 169q0 89 -42 145.5t-97 84.5t-123 48l-360 108q-298 89 -298 330q0 109 59.5 195t166.5 134.5t244 48.5
q140 0 253 -52t184 -147t89 -221l-84 -16q-14 104 -74 184t-155.5 124t-212.5 44q-111 0 -197.5 -38.5t-134.5 -105t-48 -148.5q0 -80 43 -132t103 -80t142 -52l298 -90q79 -23 147.5 -58t123.5 -110.5t55 -195.5q0 -123 -61.5 -214.5t-174.5 -141.5t-264 -50
q-145 0 -262 47.5z" />
    <glyph glyph-name="sacute" unicode="&#x15b;" horiz-adv-x="1028" 
d="M477 1260l96 270h88l-96 -270h-88zM317 6.5q-96 34.5 -157 99.5t-80 154l86 16q18 -67 69 -116.5t128.5 -76.5t172.5 -27q97 0 169.5 28.5t111.5 81.5t39 124q0 61 -26.5 97.5t-98.5 66.5t-225 72q-157 43 -241 82t-118.5 87.5t-34.5 122.5q0 85 50.5 151.5t141.5 103.5
t208 37q118 0 214 -39.5t154.5 -110.5t67.5 -162l-86 -16q-13 74 -61 129.5t-124 85t-171 29.5q-89 1 -158.5 -24.5t-108.5 -72.5t-39 -107q0 -52 29.5 -88t100 -65.5t200.5 -62.5q165 -42 253.5 -83.5t125.5 -96.5t37 -140q0 -97 -49.5 -168t-142.5 -108.5t-220 -37.5
q-121 0 -217 34.5z" />
    <glyph glyph-name="Scircumflex" unicode="&#x15c;" horiz-adv-x="1178" 
d="M558 1860h92l200 -240h-100l-146 170l-146 -170h-100zM356 17.5q-117 47.5 -193.5 135t-102.5 205.5l84 16q26 -98 92 -170.5t164 -111t218 -38.5q125 0 219.5 40t146.5 113t52 169q0 89 -42 145.5t-97 84.5t-123 48l-360 108q-298 89 -298 330q0 109 59.5 195
t166.5 134.5t244 48.5q140 0 253 -52t184 -147t89 -221l-84 -16q-14 104 -74 184t-155.5 124t-212.5 44q-111 0 -197.5 -38.5t-134.5 -105t-48 -148.5q0 -80 43 -132t103 -80t142 -52l298 -90q79 -23 147.5 -58t123.5 -110.5t55 -195.5q0 -123 -61.5 -214.5t-174.5 -141.5
t-264 -50q-145 0 -262 47.5z" />
    <glyph glyph-name="scircumflex" unicode="&#x15d;" horiz-adv-x="1028" 
d="M488 1500h92l200 -240h-100l-146 170l-146 -170h-100zM317 6.5q-96 34.5 -157 99.5t-80 154l86 16q18 -67 69 -116.5t128.5 -76.5t172.5 -27q97 0 169.5 28.5t111.5 81.5t39 124q0 61 -26.5 97.5t-98.5 66.5t-225 72q-157 43 -241 82t-118.5 87.5t-34.5 122.5
q0 85 50.5 151.5t141.5 103.5t208 37q118 0 214 -39.5t154.5 -110.5t67.5 -162l-86 -16q-13 74 -61 129.5t-124 85t-171 29.5q-89 1 -158.5 -24.5t-108.5 -72.5t-39 -107q0 -52 29.5 -88t100 -65.5t200.5 -62.5q165 -42 253.5 -83.5t125.5 -96.5t37 -140q0 -97 -49.5 -168
t-142.5 -108.5t-220 -37.5q-121 0 -217 34.5z" />
    <glyph glyph-name="Scedilla" unicode="&#x15e;" horiz-adv-x="1178" 
d="M1063 171.5q-55 -88.5 -156.5 -140.5t-238.5 -60l-42 -113q120 -49 120 -164q0 -47 -24 -86.5t-64.5 -62.5t-87.5 -23q-57 0 -120 28l28 74q50 -20 86 -20q43 0 68.5 28t25.5 66q0 32 -18.5 52t-43.5 31t-72 27l60 163q-137 5 -246.5 54t-181 134t-96.5 199l84 16
q26 -98 92 -170.5t164 -111t218 -38.5q125 0 219.5 40t146.5 113t52 169q0 89 -42 145.5t-97 84.5t-123 48l-360 108q-298 89 -298 330q0 109 59.5 195t166.5 134.5t244 48.5q140 0 253 -52t184 -147t89 -221l-84 -16q-14 104 -74 184t-155.5 124t-212.5 44
q-111 0 -197.5 -38.5t-134.5 -105t-48 -148.5q0 -80 43 -132t103 -80t142 -52l298 -90q79 -23 147.5 -58t123.5 -110.5t55 -195.5q0 -116 -55 -204.5z" />
    <glyph glyph-name="scedilla" unicode="&#x15f;" horiz-adv-x="1028" 
d="M783.5 522.5q88.5 -41.5 125.5 -96.5t37 -140q0 -133 -91 -215t-254 -96l-43 -117q120 -49 120 -164q0 -47 -24 -86.5t-64.5 -62.5t-87.5 -23q-57 0 -120 28l28 74q50 -20 86 -20q43 0 68.5 28t25.5 66q0 32 -18.5 52t-43.5 31t-72 27l61 164q-117 2 -209 37.5t-151 99.5
t-77 151l86 16q18 -67 69 -116.5t128.5 -76.5t172.5 -27q97 0 169.5 28.5t111.5 81.5t39 124q0 61 -26.5 97.5t-98.5 66.5t-225 72q-157 43 -241 82t-118.5 87.5t-34.5 122.5q0 85 50.5 151.5t141.5 103.5t208 37q118 0 214 -39.5t154.5 -110.5t67.5 -162l-86 -16
q-13 74 -61 129.5t-124 85t-171 29.5q-89 1 -158.5 -24.5t-108.5 -72.5t-39 -107q0 -52 29.5 -88t100 -65.5t200.5 -62.5q165 -42 253.5 -83.5z" />
    <glyph glyph-name="Scaron" unicode="&#x160;" horiz-adv-x="1178" 
d="M470 1860l146 -170l146 170h100l-200 -240h-92l-200 240h100zM356 17.5q-117 47.5 -193.5 135t-102.5 205.5l84 16q26 -98 92 -170.5t164 -111t218 -38.5q125 0 219.5 40t146.5 113t52 169q0 89 -42 145.5t-97 84.5t-123 48l-360 108q-298 89 -298 330q0 109 59.5 195
t166.5 134.5t244 48.5q140 0 253 -52t184 -147t89 -221l-84 -16q-14 104 -74 184t-155.5 124t-212.5 44q-111 0 -197.5 -38.5t-134.5 -105t-48 -148.5q0 -80 43 -132t103 -80t142 -52l298 -90q79 -23 147.5 -58t123.5 -110.5t55 -195.5q0 -123 -61.5 -214.5t-174.5 -141.5
t-264 -50q-145 0 -262 47.5z" />
    <glyph glyph-name="scaron" unicode="&#x161;" horiz-adv-x="1028" 
d="M394 1500l146 -170l146 170h100l-200 -240h-92l-200 240h100zM317 6.5q-96 34.5 -157 99.5t-80 154l86 16q18 -67 69 -116.5t128.5 -76.5t172.5 -27q97 0 169.5 28.5t111.5 81.5t39 124q0 61 -26.5 97.5t-98.5 66.5t-225 72q-157 43 -241 82t-118.5 87.5t-34.5 122.5
q0 85 50.5 151.5t141.5 103.5t208 37q118 0 214 -39.5t154.5 -110.5t67.5 -162l-86 -16q-13 74 -61 129.5t-124 85t-171 29.5q-89 1 -158.5 -24.5t-108.5 -72.5t-39 -107q0 -52 29.5 -88t100 -65.5t200.5 -62.5q165 -42 253.5 -83.5t125.5 -96.5t37 -140q0 -97 -49.5 -168
t-142.5 -108.5t-220 -37.5q-121 0 -217 34.5z" />
    <glyph glyph-name="uni0162" unicode="&#x162;" horiz-adv-x="1180" 
d="M548 1356h-528v84h1140v-84h-528v-1356h-84v1356zM398 -464l28 74q50 -20 86 -20q43 0 68.5 28t25.5 66q0 32 -18.5 52t-43.5 31t-72 27l76 206h84l-58 -156q120 -49 120 -164q0 -47 -24 -86.5t-64.5 -62.5t-87.5 -23q-57 0 -120 28z" />
    <glyph glyph-name="uni0163" unicode="&#x163;" horiz-adv-x="758" 
d="M358 358v-60q0 -49 4 -78.5t18 -55.5q25 -51 71.5 -73.5t118.5 -22.5q56 0 128 12v-80q-72 -15 -128 -15q-34 0 -59 4l-49 -131q120 -49 120 -164q0 -47 -24 -86.5t-64.5 -62.5t-87.5 -23q-57 0 -120 28l28 74q50 -20 86 -20q43 0 68.5 28t25.5 66q0 32 -18.5 52
t-43.5 31t-72 27l74 200q-92 35 -130 118q-19 42 -24.5 87t-5.5 115v30v638h-254v84h254v300h84v-300h340v-84h-340v-638z" />
    <glyph glyph-name="Tcaron" unicode="&#x164;" horiz-adv-x="1180" 
d="M444 1860l146 -170l146 170h100l-200 -240h-92l-200 240h100zM20 1356v84h1140v-84h-528v-1356h-84v1356h-528z" />
    <glyph glyph-name="tcaron" unicode="&#x165;" horiz-adv-x="758" 
d="M358 358v-60q0 -49 4 -78.5t18 -55.5q25 -51 71.5 -73.5t118.5 -22.5q56 0 128 12v-80q-72 -15 -128 -15q-92 0 -162.5 34.5t-103.5 106.5q-19 42 -24.5 87t-5.5 115v30v638h-254v84h254v300h84v-300h340v-84h-340v-638zM632.5 1313.5q11.5 21.5 11.5 64.5v42h-66v180
h120v-240q0 -56 -27 -88.5t-68 -32.5q-13 0 -25 3l6 52q37 -2 48.5 19.5z" />
    <glyph glyph-name="Tbar" unicode="&#x166;" horiz-adv-x="1180" 
d="M1160 1356h-528v-594h378v-84h-378v-678h-84v678h-378v84h378v594h-528v84h1140v-84z" />
    <glyph glyph-name="tbar" unicode="&#x167;" horiz-adv-x="798" 
d="M358 996v-414h340v-84h-340v-140v-60q0 -49 4 -78.5t18 -55.5q25 -51 71.5 -73.5t118.5 -22.5q56 0 128 12v-80q-72 -15 -128 -15q-92 0 -162.5 34.5t-103.5 106.5q-19 42 -24.5 87t-5.5 115v30v140h-254v84h254v414h-254v84h254v300h84v-300h340v-84h-340z" />
    <glyph glyph-name="Utilde" unicode="&#x168;" horiz-adv-x="1380" 
d="M406 37q-125 67 -195.5 190t-70.5 283v930h84v-902q0 -166 72.5 -276t180 -161t213.5 -51t213.5 51t180 161t72.5 276v902h84v-930q0 -159 -70.5 -282t-195.5 -190.5t-284 -67.5t-284 67zM760.5 1633.5q-36.5 13.5 -85.5 39.5q-43 22 -70.5 32.5t-52.5 10.5
q-30 0 -45 -16.5t-15 -39.5q0 -16 6 -30h-72q-5 18 -5 40q0 55 37.5 90.5t95.5 35.5q38 0 74.5 -13.5t87.5 -39.5q44 -22 70.5 -32.5t51.5 -10.5q28 0 43.5 16.5t15.5 43.5q0 18 -5 30h72q5 -17 5 -40q0 -56 -37.5 -93t-97.5 -37q-37 0 -73.5 13.5z" />
    <glyph glyph-name="utilde" unicode="&#x169;" 
d="M1006 1080v-1080h-78v175q-58 -101 -154.5 -150t-215.5 -49q-136 0 -234.5 62t-151 178.5t-52.5 275.5v588h84v-572q0 -227 91.5 -338.5t262.5 -111.5q126 0 207.5 57.5t119 155t37.5 219.5v590h84zM652.5 1273.5q-36.5 13.5 -85.5 39.5q-43 22 -70.5 32.5t-52.5 10.5
q-30 0 -45 -16.5t-15 -39.5q0 -16 6 -30h-72q-5 18 -5 40q0 55 37.5 90.5t95.5 35.5q38 0 74.5 -13.5t87.5 -39.5q44 -22 70.5 -32.5t51.5 -10.5q28 0 43.5 16.5t15.5 43.5q0 18 -5 30h72q5 -17 5 -40q0 -56 -37.5 -93t-97.5 -37q-37 0 -73.5 13.5z" />
    <glyph glyph-name="Umacron" unicode="&#x16a;" horiz-adv-x="1380" 
d="M450 1764h480v-84h-480v84zM406 37q-125 67 -195.5 190t-70.5 283v930h84v-902q0 -166 72.5 -276t180 -161t213.5 -51t213.5 51t180 161t72.5 276v902h84v-930q0 -159 -70.5 -282t-195.5 -190.5t-284 -67.5t-284 67z" />
    <glyph glyph-name="umacron" unicode="&#x16b;" 
d="M802 1404v-84h-480v84h480zM1006 1080v-1080h-78v175q-58 -101 -154.5 -150t-215.5 -49q-136 0 -234.5 62t-151 178.5t-52.5 275.5v588h84v-572q0 -227 91.5 -338.5t262.5 -111.5q126 0 207.5 57.5t119 155t37.5 219.5v590h84z" />
    <glyph glyph-name="Ubreve" unicode="&#x16c;" horiz-adv-x="1380" 
d="M575.5 1602.5q-52.5 30.5 -83 83t-30.5 114.5h78q0 -40 20.5 -74.5t55 -55t74.5 -20.5q41 0 75.5 20.5t54.5 55t20 74.5h78q0 -62 -30.5 -114.5t-83 -83t-114.5 -30.5t-114.5 30.5zM406 37q-125 67 -195.5 190t-70.5 283v930h84v-902q0 -166 72.5 -276t180 -161
t213.5 -51t213.5 51t180 161t72.5 276v902h84v-930q0 -159 -70.5 -282t-195.5 -190.5t-284 -67.5t-284 67z" />
    <glyph glyph-name="ubreve" unicode="&#x16d;" 
d="M448.5 1242.5q-52.5 30.5 -83 83t-30.5 114.5h78q0 -40 20.5 -74.5t55 -55t74.5 -20.5q41 0 75.5 20.5t54.5 55t20 74.5h78q0 -62 -30.5 -114.5t-83 -83t-114.5 -30.5t-114.5 30.5zM1006 1080v-1080h-78v175q-58 -101 -154.5 -150t-215.5 -49q-136 0 -234.5 62
t-151 178.5t-52.5 275.5v588h84v-572q0 -227 91.5 -338.5t262.5 -111.5q126 0 207.5 57.5t119 155t37.5 219.5v590h84z" />
    <glyph glyph-name="Uring" unicode="&#x16e;" horiz-adv-x="1380" 
d="M593.5 1586q-44.5 26 -71 70.5t-26.5 97.5q0 52 26.5 96.5t71 71t96.5 26.5q53 0 97.5 -26.5t70.5 -71t26 -96.5q0 -53 -26 -97.5t-70.5 -70.5t-97.5 -26q-52 0 -96.5 26zM768 1676.5q32 32.5 32 77.5q0 46 -32 78t-78 32q-45 0 -77.5 -32t-32.5 -78q0 -45 32.5 -77.5
t77.5 -32.5q46 0 78 32.5zM406 37q-125 67 -195.5 190t-70.5 283v930h84v-902q0 -166 72.5 -276t180 -161t213.5 -51t213.5 51t180 161t72.5 276v902h84v-930q0 -159 -70.5 -282t-195.5 -190.5t-284 -67.5t-284 67z" />
    <glyph glyph-name="uring" unicode="&#x16f;" 
d="M467.5 1226q-44.5 26 -71 70.5t-26.5 97.5q0 52 26.5 96.5t71 71t96.5 26.5q53 0 97.5 -26.5t70.5 -71t26 -96.5q0 -53 -26 -97.5t-70.5 -70.5t-97.5 -26q-52 0 -96.5 26zM486.5 1472q-32.5 -32 -32.5 -78q0 -45 32.5 -77.5t77.5 -32.5q46 0 78 32.5t32 77.5q0 46 -32 78
t-78 32q-45 0 -77.5 -32zM1006 1080v-1080h-78v175q-58 -101 -154.5 -150t-215.5 -49q-136 0 -234.5 62t-151 178.5t-52.5 275.5v588h84v-572q0 -227 91.5 -338.5t262.5 -111.5q126 0 207.5 57.5t119 155t37.5 219.5v590h84z" />
    <glyph glyph-name="Uhungarumlaut" unicode="&#x170;" horiz-adv-x="1380" 
d="M406 37q-125 67 -195.5 190t-70.5 283v930h84v-902q0 -166 72.5 -276t180 -161t213.5 -51t213.5 51t180 161t72.5 276v902h84v-930q0 -159 -70.5 -282t-195.5 -190.5t-284 -67.5t-284 67zM808 1620l96 270h88l-96 -270h-88zM458 1620l96 270h88l-96 -270h-88z" />
    <glyph glyph-name="uhungarumlaut" unicode="&#x171;" 
d="M1006 1080v-1080h-78v175q-58 -101 -154.5 -150t-215.5 -49q-136 0 -234.5 62t-151 178.5t-52.5 275.5v588h84v-572q0 -227 91.5 -338.5t262.5 -111.5q126 0 207.5 57.5t119 155t37.5 219.5v590h84zM687 1260l96 270h88l-96 -270h-88zM337 1260l96 270h88l-96 -270h-88z
" />
    <glyph glyph-name="Uogonek" unicode="&#x172;" horiz-adv-x="1380" 
d="M1240 1440v-930q0 -149 -62 -267t-173 -188q-89 -63 -149 -143t-60 -146q0 -44 26 -72t62 -28q26 0 53.5 15.5t50.5 42.5l50 -56q-32 -41 -72 -61.5t-82 -20.5q-46 0 -86.5 25t-65 66.5t-24.5 88.5q0 96 94 213q-54 -9 -112 -9q-159 0 -284 67t-195.5 190t-70.5 283v930
h84v-902q0 -166 72.5 -276t180 -161t213.5 -51t213.5 51t180 161t72.5 276v902h84z" />
    <glyph glyph-name="uogonek" unicode="&#x173;" 
d="M1018 -402q-32 -41 -72 -61.5t-82 -20.5q-46 0 -86.5 25t-65 66.5t-24.5 88.5q0 82 66.5 176t173.5 181v122q-58 -101 -154.5 -150t-215.5 -49q-136 0 -234.5 62t-151 178.5t-52.5 275.5v588h84v-572q0 -227 91.5 -338.5t262.5 -111.5q126 0 207.5 57.5t119 155
t37.5 219.5v590h84v-1080q-96 -63 -163 -148t-67 -156q0 -44 26 -72t62 -28q26 0 53.5 15.5t50.5 42.5z" />
    <glyph glyph-name="Wcircumflex" unicode="&#x174;" horiz-adv-x="1818" 
d="M864 1860h92l200 -240h-100l-146 170l-146 -170h-100zM126 1440l370 -1288l368 1288h88l370 -1288l368 1288h88l-412 -1440h-88l-370 1286l-368 -1286h-88l-412 1440h86z" />
    <glyph glyph-name="wcircumflex" unicode="&#x175;" horiz-adv-x="1488" 
d="M698 1500h92l200 -240h-100l-146 170l-146 -170h-100zM128 1080l286 -936l286 936h88l286 -936l288 936h86l-330 -1080h-88l-286 938l-286 -938h-88l-330 1080h88z" />
    <glyph glyph-name="Ycircumflex" unicode="&#x176;" horiz-adv-x="1038" 
d="M474 1860h92l200 -240h-100l-146 170l-146 -170h-100zM0 1440h96l424 -732l422 732h96l-476 -828v-612h-84v612z" />
    <glyph glyph-name="ycircumflex" unicode="&#x177;" horiz-adv-x="1012" 
d="M522 1430l-146 -170h-100l200 240h92l200 -240h-100zM872 1080h90l-566 -1560h-94l178 479l-440 1081h92l390 -965z" />
    <glyph glyph-name="Ydieresis" unicode="&#x178;" horiz-adv-x="1038" 
d="M280 1800h120v-120h-120v120zM640 1800h120v-120h-120v120zM0 1440h96l424 -732l422 732h96l-476 -828v-612h-84v612z" />
    <glyph glyph-name="Zacute" unicode="&#x179;" horiz-adv-x="1162" 
d="M519 1620l96 270h88l-96 -270h-88zM938 1356h-838v84h962v-34l-834 -1324h834v-82h-962v30z" />
    <glyph glyph-name="zacute" unicode="&#x17a;" horiz-adv-x="1054" 
d="M527 1260l96 270h88l-96 -270h-88zM820 992h-732v88h886v-34l-780 -958h732v-88h-886v30z" />
    <glyph glyph-name="Zdotaccent" unicode="&#x17b;" horiz-adv-x="1162" 
d="M574 1800h120v-120h-120v120zM938 1356h-838v84h962v-34l-834 -1324h834v-82h-962v30z" />
    <glyph glyph-name="zdotaccent" unicode="&#x17c;" horiz-adv-x="1054" 
d="M472 1440h120v-120h-120v120zM820 992h-732v88h886v-34l-780 -958h732v-88h-886v30z" />
    <glyph glyph-name="Zcaron" unicode="&#x17d;" horiz-adv-x="1162" 
d="M486 1860l146 -170l146 170h100l-200 -240h-92l-200 240h100zM938 1356h-838v84h962v-34l-834 -1324h834v-82h-962v30z" />
    <glyph glyph-name="zcaron" unicode="&#x17e;" horiz-adv-x="1054" 
d="M406 1500l146 -170l146 170h100l-200 -240h-92l-200 240h100zM820 992h-732v88h886v-34l-780 -958h732v-88h-886v30z" />
    <glyph glyph-name="florin" unicode="&#x192;" horiz-adv-x="1448" 
d="M1259 1457.5q57 -12.5 94.5 -28t34.5 -19.5l-42 -72q-41 20 -96.5 34t-113.5 14q-104 0 -201.5 -56.5t-124.5 -221.5l-57 -346h493v-84h-506l-52 -316q-38 -231 -151.5 -311.5t-232.5 -80.5q-78 0 -146.5 21.5t-97.5 36.5l36 76q3 -1 62 -25.5t148 -24.5q98 0 183.5 68
t116.5 254l49 302h-395v84h409l59 360q24 146 99.5 223t158.5 101t156 24q60 0 117 -12.5z" />
    <glyph glyph-name="Ohorn" unicode="&#x1a0;" horiz-adv-x="1412" 
d="M1280.5 1109q71.5 -168 71.5 -389q0 -223 -73 -392t-218 -263.5t-355 -94.5t-355 94.5t-218 263.5t-73 392t73 392t218 263.5t355 94.5q96 0 186 -22h1l20 -6q42 -10 65 -10q35 0 69 17q40 20 56.5 52.5t16.5 76.5q0 24 -3 48h84q6 -36 6 -71q0 -101 -67 -152
q-33 -24 -70 -33q139 -93 210.5 -261zM1011.5 138q124.5 84 187.5 234t63 348t-63 348t-187.5 234t-305.5 84q-183 0 -307.5 -85.5t-186.5 -238.5t-62 -354q0 -194 63.5 -341.5t188.5 -230t304 -82.5q181 0 305.5 84z" />
    <glyph glyph-name="ohorn" unicode="&#x1a1;" horiz-adv-x="1148" 
d="M1024.5 806q43.5 -117 43.5 -264q0 -172 -57.5 -301t-169 -200t-267.5 -71q-157 0 -268 72t-168.5 201.5t-57.5 298.5q0 170 58.5 298.5t170 199t265.5 70.5q96 0 178 -28q53 -15 87 -15q37 0 68 16q40 20 56.5 52.5t16.5 76.5q0 24 -3 48h84q6 -36 6 -71
q0 -101 -67 -152q-19 -15 -46 -25.5t-57 -14.5q84 -74 127.5 -191zM797.5 114.5q90.5 60.5 135.5 170.5t45 257q0 226 -103 355t-301 129q-134 0 -224.5 -61t-135 -169.5t-44.5 -253.5q0 -148 46 -258t136.5 -170t221.5 -60q133 0 223.5 60.5z" />
    <glyph glyph-name="Uhorn" unicode="&#x1af;" horiz-adv-x="1380" 
d="M1412 1547q0 -101 -67 -151q-41 -31 -105 -33v-853q0 -159 -70.5 -282t-195.5 -190.5t-284 -67.5t-284 67t-195.5 190t-70.5 283v930h84v-902q0 -166 72.5 -276t180 -161t213.5 -51t213.5 51t180 161t72.5 276v902h21q5 0 29.5 1t45.5 6q41 10 57.5 39t16.5 72
q0 27 -5 62h84q7 -42 7 -73z" />
    <glyph glyph-name="uhorn" unicode="&#x1b0;" 
d="M1178 1187q0 -101 -67 -151q-41 -31 -105 -33v-1003h-78v175q-58 -101 -154.5 -150t-215.5 -49q-136 0 -234.5 62t-151 178.5t-52.5 275.5v588h84v-572q0 -227 91.5 -338.5t262.5 -111.5q126 0 207.5 57.5t119 155t37.5 219.5v590h21q5 0 29.5 1t45.5 6q41 10 57.5 39
t16.5 72q0 27 -5 62h84q7 -42 7 -73z" />
    <glyph glyph-name="uni0218" unicode="&#x218;" horiz-adv-x="1178" 
d="M356 17.5q-117 47.5 -193.5 135t-102.5 205.5l84 16q26 -98 92 -170.5t164 -111t218 -38.5q125 0 219.5 40t146.5 113t52 169q0 89 -42 145.5t-97 84.5t-123 48l-360 108q-298 89 -298 330q0 109 59.5 195t166.5 134.5t244 48.5q140 0 253 -52t184 -147t89 -221l-84 -16
q-14 104 -74 184t-155.5 124t-212.5 44q-111 0 -197.5 -38.5t-134.5 -105t-48 -148.5q0 -80 43 -132t103 -80t142 -52l298 -90q79 -23 147.5 -58t123.5 -110.5t55 -195.5q0 -123 -61.5 -214.5t-174.5 -141.5t-264 -50q-145 0 -262 47.5zM610 -442q16 8 26.5 25.5t7.5 44.5
h-62v120h120v-120q0 -48 -19 -79t-46.5 -45t-54.5 -14v60q12 0 28 8z" />
    <glyph glyph-name="uni0219" unicode="&#x219;" horiz-adv-x="1028" 
d="M317 6.5q-96 34.5 -157 99.5t-80 154l86 16q18 -67 69 -116.5t128.5 -76.5t172.5 -27q97 0 169.5 28.5t111.5 81.5t39 124q0 61 -26.5 97.5t-98.5 66.5t-225 72q-157 43 -241 82t-118.5 87.5t-34.5 122.5q0 85 50.5 151.5t141.5 103.5t208 37q118 0 214 -39.5
t154.5 -110.5t67.5 -162l-86 -16q-13 74 -61 129.5t-124 85t-171 29.5q-89 1 -158.5 -24.5t-108.5 -72.5t-39 -107q0 -52 29.5 -88t100 -65.5t200.5 -62.5q165 -42 253.5 -83.5t125.5 -96.5t37 -140q0 -97 -49.5 -168t-142.5 -108.5t-220 -37.5q-121 0 -217 34.5zM488 -442
q16 8 26.5 25.5t7.5 44.5h-62v120h120v-120q0 -48 -19 -79t-46.5 -45t-54.5 -14v60q12 0 28 8z" />
    <glyph glyph-name="uni021A" unicode="&#x21a;" horiz-adv-x="1180" 
d="M20 1356v84h1140v-84h-528v-1356h-84v1356h-528zM558 -442q16 8 26.5 25.5t7.5 44.5h-62v120h120v-120q0 -48 -19 -79t-46.5 -45t-54.5 -14v60q12 0 28 8z" />
    <glyph glyph-name="uni021B" unicode="&#x21b;" horiz-adv-x="758" 
d="M358 358v-60q0 -49 4 -78.5t18 -55.5q25 -51 71.5 -73.5t118.5 -22.5q56 0 128 12v-80q-72 -15 -128 -15q-92 0 -162.5 34.5t-103.5 106.5q-19 42 -24.5 87t-5.5 115v30v638h-254v84h254v300h84v-300h340v-84h-340v-638zM316 -252h120v-120q0 -48 -19 -79t-46.5 -45
t-54.5 -14v60q12 0 28 8t26.5 25.5t7.5 44.5h-62v120z" />
    <glyph glyph-name="uni0259" unicode="&#x259;" 
d="M835.5 1041q111.5 -69 171 -197.5t59.5 -303.5q0 -176 -59.5 -304.5t-170.5 -197t-264 -68.5q-154 0 -264.5 70t-169 203.5t-58.5 320.5h896q-4 146 -53 249.5t-138 158t-213 54.5q-133 0 -234.5 -62.5t-161.5 -181.5l-70 40q66 138 187.5 213t278.5 75q152 0 263.5 -69z
M855.5 165q104.5 111 118.5 315h-801q17 -207 119.5 -316.5t279.5 -109.5q179 0 283.5 111z" />
    <glyph glyph-name="circumflex" unicode="&#x2c6;" horiz-adv-x="972" 
d="M440 1860h92l200 -240h-100l-146 170l-146 -170h-100z" />
    <glyph glyph-name="caron" unicode="&#x2c7;" horiz-adv-x="948" 
d="M240 1860h100l146 -170l146 170h100l-200 -240h-92z" />
    <glyph glyph-name="breve" unicode="&#x2d8;" horiz-adv-x="936" 
d="M353.5 1602.5q-52.5 30.5 -83 83t-30.5 114.5h78q0 -40 20.5 -74.5t55 -55t74.5 -20.5q41 0 75.5 20.5t54.5 55t20 74.5h78q0 -62 -30.5 -114.5t-83 -83t-114.5 -30.5t-114.5 30.5z" />
    <glyph glyph-name="dotaccent" unicode="&#x2d9;" horiz-adv-x="600" 
d="M240 1800h120v-120h-120v120z" />
    <glyph glyph-name="ring" unicode="&#x2da;" horiz-adv-x="876" 
d="M341.5 1586q-44.5 26 -71 70.5t-26.5 97.5q0 52 26.5 96.5t71 71t96.5 26.5q53 0 97.5 -26.5t70.5 -71t26 -96.5q0 -53 -26 -97.5t-70.5 -70.5t-97.5 -26q-52 0 -96.5 26zM516 1676.5q32 32.5 32 77.5q0 46 -32 78t-78 32q-45 0 -77.5 -32t-32.5 -78q0 -45 32.5 -77.5
t77.5 -32.5q46 0 78 32.5z" />
    <glyph glyph-name="ogonek" unicode="&#x2db;" horiz-adv-x="812" 
d="M329.5 -459q-40.5 25 -65 66.5t-24.5 88.5q0 85 71.5 183t184.5 187l62 -66q-96 -63 -163 -148t-67 -156q0 -44 26 -72t62 -28q26 0 53.5 15.5t50.5 42.5l50 -56q-32 -41 -72 -61.5t-82 -20.5q-46 0 -86.5 25z" />
    <glyph glyph-name="tilde" unicode="&#x2dc;" horiz-adv-x="1030" 
d="M580.5 1633.5q-36.5 13.5 -85.5 39.5q-43 22 -70.5 32.5t-52.5 10.5q-30 0 -45 -16.5t-15 -39.5q0 -16 6 -30h-72q-5 18 -5 40q0 55 37.5 90.5t95.5 35.5q38 0 74.5 -13.5t87.5 -39.5q44 -22 70.5 -32.5t51.5 -10.5q28 0 43.5 16.5t15.5 43.5q0 18 -5 30h72q5 -17 5 -40
q0 -56 -37.5 -93t-97.5 -37q-37 0 -73.5 13.5z" />
    <glyph glyph-name="hungarumlaut" unicode="&#x2dd;" horiz-adv-x="994" 
d="M573 1620l96 270h88l-96 -270h-88zM223 1620l96 270h88l-96 -270h-88z" />
    <glyph glyph-name="uni0374" unicode="&#x374;" horiz-adv-x="464" 
d="M120 1170l96 270h88l-96 -270h-88z" />
    <glyph glyph-name="uni0375" unicode="&#x375;" horiz-adv-x="464" 
d="M120 -372l96 270h88l-96 -270h-88z" />
    <glyph glyph-name="uni037E" unicode="&#x37e;" horiz-adv-x="560" 
d="M274.5 -106.5q11.5 21.5 11.5 64.5v42h-66v180h120v-240q0 -56 -27 -88.5t-68 -32.5q-13 0 -25 3l6 52q37 -2 48.5 19.5zM220 1080h120v-120h-120v120z" />
    <glyph glyph-name="tonos" unicode="&#x384;" horiz-adv-x="1200" 
d="M498 1170l96 270h88l-96 -270h-88z" />
    <glyph glyph-name="dieresistonos" unicode="&#x385;" horiz-adv-x="1200" 
d="M514 1260l96 270h88l-96 -270h-88zM322 1440h120v-120h-120v120zM760 1440h120v-120h-120v120z" />
    <glyph glyph-name="Alphatonos" unicode="&#x386;" horiz-adv-x="1218" 
d="M1088 0l-136 374h-686l-136 -374h-90l524 1440h90l524 -1440h-90zM295 454h628l-315 865zM138 1170l96 270h88l-96 -270h-88z" />
    <glyph glyph-name="anoteleia" unicode="&#x387;" horiz-adv-x="1200" 
d="M143.5 573q-23.5 23 -23.5 57t23.5 57t58.5 23q32 0 55 -23t23 -57t-23 -57t-55 -23q-35 0 -58.5 23z" />
    <glyph glyph-name="Epsilontonos" unicode="&#x388;" horiz-adv-x="1360" 
d="M380 1440h880v-84h-796v-594h676v-84h-676v-594h796v-84h-880v1440zM40 1170l96 270h88l-96 -270h-88z" />
    <glyph glyph-name="Etatonos" unicode="&#x389;" horiz-adv-x="1562" 
d="M382 1440h84v-678h872v678h84v-1440h-84v678h-872v-678h-84v1440zM40 1170l96 270h88l-96 -270h-88z" />
    <glyph glyph-name="Iotatonos" unicode="&#x38a;" horiz-adv-x="603" 
d="M379 1440h84v-1440h-84v1440zM40 1170l96 270h88l-96 -270h-88z" />
    <glyph glyph-name="Omicrontonos" unicode="&#x38c;" horiz-adv-x="1590" 
d="M529 64.5q-145 94.5 -218 263.5t-73 392t73 392t218 263.5t355 94.5t355 -94.5t218 -263.5t73 -392t-73 -392t-218 -263.5t-355 -94.5t-355 94.5zM1189.5 138q124.5 84 187.5 234t63 348t-63 348t-187.5 234t-305.5 84q-183 0 -307.5 -85.5t-186.5 -238.5t-62 -354
q0 -194 63.5 -341.5t188.5 -230t304 -82.5q181 0 305.5 84zM68 1170l96 270h88l-96 -270h-88z" />
    <glyph glyph-name="Upsilontonos" unicode="&#x38e;" horiz-adv-x="1368" 
d="M808 612l-478 828h96l424 -732l422 732h96l-476 -828v-612h-84v612zM80 1170l96 270h88l-96 -270h-88z" />
    <glyph glyph-name="Omegatonos" unicode="&#x38f;" horiz-adv-x="1622" 
d="M544 84q-148 112 -231 281.5t-83 384.5q0 205 77 368t223 256.5t346 93.5t346 -93.5t223 -256.5t77 -368q0 -215 -83 -384.5t-231 -281.5h312v-84h-452l2 84q88 46 170.5 137t137 225.5t54.5 297.5q0 174 -68 320t-194 233t-294 87q-169 0 -295.5 -89t-193.5 -239
t-67 -326q0 -163 55.5 -294.5t138 -219t168.5 -132.5v-84h-452v84h314zM68 1170l96 270h88l-96 -270h-88z" />
    <glyph glyph-name="iotadieresistonos" unicode="&#x390;" horiz-adv-x="644" 
d="M190 126q-19 42 -24.5 87t-5.5 115v30v722h84v-722l-1 -73q0 -41 4.5 -68.5t18.5 -54.5q22 -42 55 -63t83 -27q33 -3 66 -3q66 0 114 11v-80q-65 -14 -127 -14q-36 0 -63 4q-150 19 -204 136zM148 1260l96 270h88l-96 -270h-88zM-44 1440h120v-120h-120v120zM394 1440
h120v-120h-120v120z" />
    <glyph glyph-name="Alpha" unicode="&#x391;" horiz-adv-x="1218" 
d="M1088 0l-136 374h-686l-136 -374h-90l524 1440h90l524 -1440h-90zM295 454h628l-315 865z" />
    <glyph glyph-name="Beta" unicode="&#x392;" horiz-adv-x="1202" 
d="M1076 617.5q68 -96.5 68 -229.5q0 -120 -55.5 -207.5t-151 -134t-213.5 -46.5h-584v1440h546q104 0 192.5 -45t141 -126t52.5 -183q0 -99 -50 -184.5t-135 -134.5q121 -53 189 -149.5zM224 800h462q80 0 148 39t108 106t40 147q0 78 -39 138.5t-106.5 94t-150.5 33.5
h-462v-558zM872.5 119q83.5 35 131.5 102t48 159t-44.5 169.5t-119.5 123t-164 45.5h-500v-634h460q105 0 188.5 35z" />
    <glyph glyph-name="Gamma" unicode="&#x393;" horiz-adv-x="1040" 
d="M140 1440h880v-84h-796v-1356h-84v1440z" />
    <glyph glyph-name="uni0394" unicode="&#x394;" horiz-adv-x="1218" 
d="M654 1440l524 -1440h-1138l524 1440h90zM160 84h897l-449 1234z" />
    <glyph glyph-name="Epsilon" unicode="&#x395;" horiz-adv-x="1120" 
d="M140 1440h880v-84h-796v-594h676v-84h-676v-594h796v-84h-880v1440z" />
    <glyph glyph-name="Zeta" unicode="&#x396;" horiz-adv-x="1162" 
d="M100 30l838 1326h-838v84h962v-34l-834 -1324h834v-82h-962v30z" />
    <glyph glyph-name="Eta" unicode="&#x397;" horiz-adv-x="1320" 
d="M140 1440h84v-678h872v678h84v-1440h-84v678h-872v-678h-84v1440z" />
    <glyph glyph-name="Theta" unicode="&#x398;" horiz-adv-x="1412" 
d="M351 64.5q-145 94.5 -218 263.5t-73 392t73 392t218 263.5t355 94.5t355 -94.5t218 -263.5t73 -392t-73 -392t-218 -263.5t-355 -94.5t-355 94.5zM1011.5 138q124.5 84 187.5 234t63 348t-63 348t-187.5 234t-305.5 84q-183 0 -307.5 -85.5t-186.5 -238.5t-62 -354
q0 -194 63.5 -341.5t188.5 -230t304 -82.5q181 0 305.5 84zM466 762h480v-84h-480v84z" />
    <glyph glyph-name="Iota" unicode="&#x399;" horiz-adv-x="404" 
d="M160 1440h84v-1440h-84v1440z" />
    <glyph glyph-name="Kappa" unicode="&#x39a;" horiz-adv-x="1116" 
d="M140 1440h84v-1440h-84v1440zM346 752l770 -752h-116l-776 752l712 688h116z" />
    <glyph glyph-name="Lambda" unicode="&#x39b;" horiz-adv-x="1158" 
d="M534 1440h90l524 -1440h-90l-480 1318l-478 -1318h-90z" />
    <glyph glyph-name="Mu" unicode="&#x39c;" horiz-adv-x="1662" 
d="M140 1440h80l612 -1338l606 1338h84v-1438h-84v1236l-560 -1238h-94l-560 1238v-1238h-84v1440z" />
    <glyph glyph-name="Nu" unicode="&#x39d;" horiz-adv-x="1324" 
d="M140 1440h84l876 -1290v1290h84v-1440h-84l-876 1292v-1292h-84v1440z" />
    <glyph glyph-name="Xi" unicode="&#x39e;" horiz-adv-x="1340" 
d="M140 1440h1060v-84h-1060v84zM240 762h860v-84h-860v84zM140 84h1060v-84h-1060v84z" />
    <glyph glyph-name="Omicron" unicode="&#x39f;" horiz-adv-x="1412" 
d="M351 64.5q-145 94.5 -218 263.5t-73 392t73 392t218 263.5t355 94.5t355 -94.5t218 -263.5t73 -392t-73 -392t-218 -263.5t-355 -94.5t-355 94.5zM1011.5 138q124.5 84 187.5 234t63 348t-63 348t-187.5 234t-305.5 84q-183 0 -307.5 -85.5t-186.5 -238.5t-62 -354
q0 -194 63.5 -341.5t188.5 -230t304 -82.5q181 0 305.5 84z" />
    <glyph glyph-name="Pi" unicode="&#x3a0;" horiz-adv-x="1340" 
d="M140 1440h1060v-1440h-84v1356h-892v-1356h-84v1440z" />
    <glyph glyph-name="Rho" unicode="&#x3a1;" horiz-adv-x="1162" 
d="M670 1440q44 0 92 -8q102 -16 179 -75.5t119 -150t42 -198.5t-42 -198.5t-119 -150t-179 -75.5q-48 -8 -92 -8h-446v-576h-84v1440h530zM758 668q81 16 138 65t86.5 121t29.5 154t-29.5 154t-86.5 121t-138 65q-43 8 -88 8h-446v-696h446q45 0 88 8z" />
    <glyph glyph-name="Sigma" unicode="&#x3a3;" horiz-adv-x="1320" 
d="M140 80l630 640l-630 636v84h1040v-84h-898l614 -620v-32l-614 -620h860v-84h-1002v80z" />
    <glyph glyph-name="Tau" unicode="&#x3a4;" horiz-adv-x="1180" 
d="M548 1356h-528v84h1140v-84h-528v-1356h-84v1356z" />
    <glyph glyph-name="Upsilon" unicode="&#x3a5;" horiz-adv-x="1038" 
d="M478 612l-478 828h96l424 -732l422 732h96l-476 -828v-612h-84v612z" />
    <glyph glyph-name="Phi" unicode="&#x3a6;" horiz-adv-x="1384" 
d="M565 175q-135 0 -250.5 70t-185 204t-69.5 317t69.5 317t185 204t250.5 70q46 0 85 -7v90h84v-90q39 7 85 7q135 0 250.5 -70t185 -204t69.5 -317t-69.5 -317t-185 -204t-250.5 -70q-46 0 -85 7v-182h-84v182q-39 -7 -85 -7zM587 1270q-121 0 -220.5 -61.5t-158 -176
t-58.5 -266.5t58.5 -266t158 -175t220.5 -61q35 0 63 4v998q-28 4 -63 4zM797 264q121 0 220.5 61t158 175t58.5 266t-58.5 266.5t-158 176t-220.5 61.5q-35 0 -63 -4v-998q28 -4 63 -4z" />
    <glyph glyph-name="Chi" unicode="&#x3a7;" 
d="M526 730l-494 710h100l440 -642l442 642h100l-494 -710l506 -730h-100l-454 660l-452 -660h-100z" />
    <glyph glyph-name="Psi" unicode="&#x3a8;" horiz-adv-x="1380" 
d="M355 466.5q-120 88.5 -177 231.5q-25 63 -31.5 113t-6.5 99v530h84v-426q0 -60 3.5 -114.5t16.5 -109.5q23 -97 78.5 -172.5t139 -119t186.5 -44.5v986h84v-986q103 0 186.5 43.5t139 119.5t78.5 173q13 55 16.5 109.5t3.5 114.5v426h84v-530q0 -49 -6.5 -99t-31.5 -113
q-57 -144 -178 -232.5t-292 -91.5v-374h-84v374q-173 4 -293 92.5z" />
    <glyph glyph-name="uni03A9" unicode="&#x3a9;" horiz-adv-x="1412" 
d="M374 84q-148 112 -231 281.5t-83 384.5q0 205 77 368t223 256.5t346 93.5t346 -93.5t223 -256.5t77 -368q0 -215 -83 -384.5t-231 -281.5h312v-84h-452l2 84q88 46 170.5 137t137 225.5t54.5 297.5q0 174 -68 320t-194 233t-294 87q-169 0 -295.5 -89t-193.5 -239
t-67 -326q0 -163 55.5 -294.5t138 -219t168.5 -132.5v-84h-452v84h314z" />
    <glyph glyph-name="Iotadieresis" unicode="&#x3aa;" horiz-adv-x="404" 
d="M-38 1800h120v-120h-120v120zM322 1800h120v-120h-120v120zM244 1440v-1440h-84v1440h84z" />
    <glyph glyph-name="Upsilondieresis" unicode="&#x3ab;" horiz-adv-x="1038" 
d="M280 1800h120v-120h-120v120zM640 1800h120v-120h-120v120zM0 1440h96l424 -732l422 732h96l-476 -828v-612h-84v612z" />
    <glyph glyph-name="alphatonos" unicode="&#x3ac;" horiz-adv-x="1192" 
d="M713 1530l-96 -270h-88l96 270h88zM1052 1080v-1080h-78v281q-44 -147 -155.5 -229t-268.5 -82q-149 0 -255 74t-160.5 203.5t-54.5 292.5t54.5 292t161 203.5t256.5 74.5q157 0 267.5 -81t154.5 -227v278h78zM759.5 117q86.5 63 130.5 173.5t44 251.5q0 143 -44 252
t-130.5 170.5t-209.5 61.5q-125 0 -210.5 -62t-127.5 -171.5t-42 -250.5t43.5 -251.5t129 -173.5t207.5 -63q123 0 209.5 63z" />
    <glyph glyph-name="epsilontonos" unicode="&#x3ad;" horiz-adv-x="994" 
d="M610 1530l-96 -270h-88l96 270h88zM934 258q-69 -139 -187.5 -213.5t-284.5 -74.5q-110 0 -197 40.5t-136 113.5t-49 168q0 87 41 164t120 106q-65 38 -101 99t-36 145q0 91 45.5 160t126 106.5t184.5 37.5q275 0 424 -188l-66 -56q-58 74 -150 117t-198 43
q-79 0 -142.5 -25t-100.5 -75t-37 -122q0 -97 72.5 -150.5t199.5 -53.5h158v-82h-160q-160 0 -227 -53.5t-67 -164.5q0 -76 38.5 -131.5t108 -85t161.5 -29.5q132 0 231 62t159 182z" />
    <glyph glyph-name="etatonos" unicode="&#x3ae;" 
d="M745 1530l-96 -270h-88l96 270h88zM822.5 1042q98.5 -62 151 -178.5t52.5 -275.5v-588h-84v572q0 227 -91.5 338.5t-262.5 111.5q-126 0 -207.5 -57.5t-119 -155t-37.5 -219.5v-590h-84v1080h78v-175q58 101 154.5 150t215.5 49q136 0 234.5 -62z" />
    <glyph glyph-name="iotatonos" unicode="&#x3af;" horiz-adv-x="644" 
d="M162 1260l96 270h88l-96 -270h-88zM190 126q-19 42 -24.5 87t-5.5 115v30v722h84v-722l-1 -73q0 -41 4.5 -68.5t18.5 -54.5q22 -42 55 -63t83 -27q33 -3 66 -3q66 0 114 11v-80q-65 -14 -127 -14q-36 0 -63 4q-150 19 -204 136z" />
    <glyph glyph-name="upsilondieresistonos" unicode="&#x3b0;" horiz-adv-x="1116" 
d="M204 1080v-572q0 -227 91.5 -338.5t262.5 -111.5t262.5 111.5t91.5 338.5v572h84v-588q0 -159 -52.5 -275.5t-151 -178.5t-234.5 -62t-234.5 62t-151 178.5t-52.5 275.5v588h84zM471 1260l96 270h88l-96 -270h-88zM279 1440h120v-120h-120v120zM717 1440h120v-120h-120
v120z" />
    <glyph glyph-name="alpha" unicode="&#x3b1;" horiz-adv-x="1192" 
d="M1052 1080v-1080h-78v281q-44 -147 -155.5 -229t-268.5 -82q-149 0 -255 74t-160.5 203.5t-54.5 292.5t54.5 292t161 203.5t256.5 74.5q157 0 267.5 -81t154.5 -227v278h78zM759.5 117q86.5 63 130.5 173.5t44 251.5q0 143 -44 252t-130.5 170.5t-209.5 61.5
q-125 0 -210.5 -62t-127.5 -171.5t-42 -250.5t43.5 -251.5t129 -173.5t207.5 -63q123 0 209.5 63z" />
    <glyph glyph-name="beta" unicode="&#x3b2;" horiz-adv-x="1086" 
d="M168 1256q38 99 126 156.5t224 57.5q114 0 199.5 -42.5t132 -125t46.5 -198.5q0 -123 -53.5 -209t-154.5 -111q76 -7 154.5 -52.5t132 -133t53.5 -212.5q0 -119 -52 -213t-152.5 -148.5t-241.5 -54.5q-120 0 -211.5 39t-148.5 109v-598h-82v1560q0 104 28 176zM768 98
q80 42 125 118t45 174q0 103 -50.5 177.5t-145 115.5t-224.5 45v84q127 17 207.5 88.5t80.5 205.5q0 86 -34.5 149t-99 97t-152.5 34q-98 0 -170.5 -43.5t-99.5 -130.5q-20 -65 -20 -170v-634q0 -86 16 -144q18 -61 67.5 -108.5t121 -73.5t151.5 -26q102 0 182 42z" />
    <glyph glyph-name="gamma" unicode="&#x3b3;" horiz-adv-x="956" 
d="M432 0l-392 1080h90l348 -958l350 958h88l-392 -1080v-360h-92v360z" />
    <glyph glyph-name="delta" unicode="&#x3b4;" horiz-adv-x="1148" 
d="M986.5 829q81.5 -133 81.5 -323q0 -160 -57.5 -280.5t-169 -187t-267.5 -66.5q-157 0 -268 66t-168.5 185t-57.5 277q0 140 45.5 251t132 181t206.5 87q-107 38 -169.5 94.5t-62.5 148.5q0 74 43 125.5t123 70.5q48 12 114 12h400v-76h-382q-51 0 -98 -10
q-55 -13 -86.5 -43.5t-31.5 -78.5q0 -55 49 -94.5t131 -70t258 -85.5q153 -50 234.5 -183zM796.5 111.5q90.5 55.5 136 157.5t45.5 241q0 209 -103 326.5t-301 117.5q-134 0 -224.5 -55.5t-135 -156.5t-44.5 -236q0 -138 46 -239t136.5 -156t221.5 -55q132 0 222.5 55.5z
" />
    <glyph glyph-name="epsilon" unicode="&#x3b5;" horiz-adv-x="994" 
d="M934 258q-69 -139 -187.5 -213.5t-284.5 -74.5q-110 0 -197 40.5t-136 113.5t-49 168q0 87 41 164t120 106q-65 38 -101 99t-36 145q0 91 45.5 160t126 106.5t184.5 37.5q275 0 424 -188l-66 -56q-58 74 -150 117t-198 43q-79 0 -142.5 -25t-100.5 -75t-37 -122
q0 -97 72.5 -150.5t199.5 -53.5h158v-82h-160q-160 0 -227 -53.5t-67 -164.5q0 -76 38.5 -131.5t108 -85t161.5 -29.5q132 0 231 62t159 182z" />
    <glyph glyph-name="zeta" unicode="&#x3b6;" horiz-adv-x="980" 
d="M861 -184q0 83 -30 122t-94.5 50.5t-194.5 11.5q-141 0 -235.5 19t-160.5 95t-66 232q0 75 22 147t86.5 170t187.5 231l67 70q276 289 377 392h-680v84h800v-84l-271 -280l-203 -210q-119 -125 -184 -215t-89.5 -159t-24.5 -140q0 -104 44 -163t132 -84t230 -25
q106 0 168 -10q203 -33 203 -242q0 -26 -5 -68h-82q3 30 3 56z" />
    <glyph glyph-name="eta" unicode="&#x3b7;" 
d="M822.5 1042q98.5 -62 151 -178.5t52.5 -275.5v-588h-84v572q0 227 -91.5 338.5t-262.5 111.5q-126 0 -207.5 -57.5t-119 -155t-37.5 -219.5v-590h-84v1080h78v-175q58 101 154.5 150t215.5 49q136 0 234.5 -62z" />
    <glyph glyph-name="theta" unicode="&#x3b8;" horiz-adv-x="1276" 
d="M947 1363.5q126 -104.5 187.5 -275t61.5 -368.5q0 -207 -61 -377t-187 -271.5t-310 -101.5q-183 0 -309 105t-187.5 275.5t-61.5 369.5q0 198 61.5 368.5t187.5 275t309 104.5t309 -104.5zM392.5 1300q-102.5 -84 -158 -225t-63.5 -313h935q-5 171 -60.5 312.5
t-159.5 225.5t-248 84q-143 0 -245.5 -84zM883.5 138.5q102.5 84.5 158 226t63.5 313.5h-935q5 -171 60.5 -313t159.5 -226.5t248 -84.5q143 0 245.5 84.5z" />
    <glyph glyph-name="iota" unicode="&#x3b9;" horiz-adv-x="644" 
d="M190 126q-19 42 -24.5 87t-5.5 115v30v722h84v-722l-1 -73q0 -41 4.5 -68.5t18.5 -54.5q22 -42 55 -63t83 -27q33 -3 66 -3q66 0 114 11v-80q-65 -14 -127 -14q-36 0 -63 4q-150 19 -204 136z" />
    <glyph glyph-name="kappa" unicode="&#x3ba;" horiz-adv-x="936" 
d="M140 1080h84v-520l540 520h126l-564 -540l650 -540h-144l-608 520v-520h-84v1080z" />
    <glyph glyph-name="lambda" unicode="&#x3bb;" horiz-adv-x="996" 
d="M446 1151q-36 98 -59.5 144.5t-64.5 72.5t-112 26h-50v76h60q55 0 90 -8q60 -13 102.5 -59t69.5 -107t65 -167q7 -22 17 -49l392 -1080h-90l-348 958l-350 -958h-88l392 1080z" />
    <glyph glyph-name="uni03BC" unicode="&#x3bc;" horiz-adv-x="1166" 
d="M224 1080v-572q0 -227 91.5 -338.5t262.5 -111.5q126 0 207.5 57.5t119 155t37.5 219.5v590h84v-1080h-78v174q-58 -100 -154.5 -149t-215.5 -49q-121 0 -212.5 49t-147.5 143v-648h-78v1560h84z" />
    <glyph glyph-name="nu" unicode="&#x3bd;" horiz-adv-x="956" 
d="M40 1080h88l350 -958l348 958h90l-392 -1080h-92z" />
    <glyph glyph-name="xi" unicode="&#x3be;" horiz-adv-x="1072" 
d="M986 -185q0 86 -32 125t-98.5 49.5t-207.5 10.5q-568 0 -568 414q0 146 68 235.5t190 120.5q-98 43 -155 130.5t-57 205.5t58 200.5t156.5 123t219.5 40.5q177 0 300 -85.5t192 -236.5l-88 -34q-70 137 -163.5 204.5t-240.5 67.5q-101 0 -178.5 -31.5t-121.5 -95
t-44 -155.5q0 -132 88.5 -207t249.5 -83q46 -2 166 -2v-84q-18 0 -166 -6q-122 -5 -205 -32t-131 -91t-48 -175q0 -179 128 -261.5t386 -82.5q120 0 184 -10q90 -14 146.5 -70.5t56.5 -170.5q0 -27 -5 -69h-82q2 20 2 55z" />
    <glyph glyph-name="omicron" unicode="&#x3bf;" horiz-adv-x="1148" 
d="M306 42q-111 72 -168.5 201.5t-57.5 298.5q0 170 58.5 298.5t170 199t265.5 70.5q158 0 269 -71.5t168 -199.5t57 -297q0 -172 -57.5 -301t-169 -200t-267.5 -71q-157 0 -268 72zM797.5 114.5q90.5 60.5 135.5 170.5t45 257q0 226 -103 355t-301 129q-134 0 -224.5 -61
t-135 -169.5t-44.5 -253.5q0 -148 46 -258t136.5 -170t221.5 -60q133 0 223.5 60.5z" />
    <glyph glyph-name="pi" unicode="&#x3c0;" horiz-adv-x="1280" 
d="M280 996h-240v84h1200v-84h-240v-996h-84v996h-552v-996h-84v996z" />
    <glyph glyph-name="rho" unicode="&#x3c1;" horiz-adv-x="1144" 
d="M144 634q9 139 64.5 246.5t155 168.5t234.5 61q149 0 254 -74.5t158.5 -203t53.5 -290.5q0 -164 -54.5 -293.5t-159.5 -204t-250 -74.5q-130 0 -228.5 58.5t-147.5 157.5v-666h-84v962q0 92 4 152zM801.5 117q85.5 63 129 173.5t43.5 251.5t-42 250.5t-127.5 171.5
t-210.5 62q-123 0 -206 -60.5t-123.5 -169t-40.5 -252.5t40.5 -254t123.5 -173t206 -63q122 0 207.5 63z" />
    <glyph glyph-name="uni03C2" unicode="&#x3c2;" horiz-adv-x="1078" 
d="M861 -184q0 84 -31.5 121.5t-91 47t-196.5 15.5q-284 12 -373 167.5t-89 344.5q0 192 57 326t165.5 203t263.5 69q157 0 273.5 -70t168.5 -198l-80 -34q-45 103 -139 160.5t-219 57.5q-131 0 -220.5 -64t-134.5 -176t-45 -256q0 -102 29 -202.5t111.5 -174t231.5 -73.5
q140 0 200 -10q203 -32 203 -241q0 -27 -5 -69h-82q3 31 3 56z" />
    <glyph glyph-name="sigma" unicode="&#x3c3;" horiz-adv-x="1168" 
d="M1128 996h-266q97 -69 151.5 -192t54.5 -278q0 -163 -60.5 -289t-172.5 -196.5t-261 -70.5t-261 70.5t-172.5 196.5t-60.5 289q0 149 50 266.5t143 190.5t221 91q48 6 160 6h474v-84zM931.5 771.5q-46.5 105.5 -137.5 164.5t-220 60q-130 1 -221 -59t-137 -167t-46 -244
q0 -143 48 -249.5t139 -164.5t217 -58q129 0 220 58.5t137.5 165t46.5 248.5q0 140 -46.5 245.5z" />
    <glyph glyph-name="tau" unicode="&#x3c4;" horiz-adv-x="990" 
d="M478 126q-19 42 -24.5 87t-5.5 115v30v638h-398v84h880v-84h-398v-638l-1 -73q0 -41 4.5 -68.5t18.5 -54.5q22 -42 55 -63t83 -27q33 -3 66 -3q66 0 114 11v-80q-65 -14 -127 -14q-36 0 -63 4q-150 19 -204 136z" />
    <glyph glyph-name="upsilon" unicode="&#x3c5;" horiz-adv-x="1116" 
d="M204 1080v-572q0 -227 91.5 -338.5t262.5 -111.5t262.5 111.5t91.5 338.5v572h84v-588q0 -159 -52.5 -275.5t-151 -178.5t-234.5 -62t-234.5 62t-151 178.5t-52.5 275.5v588h84z" />
    <glyph glyph-name="phi" unicode="&#x3c6;" horiz-adv-x="1436" 
d="M567 -29q-138 0 -248.5 68.5t-174.5 196.5t-64 302t64 303.5t175 198.5t249 69q46 0 88 -7v336h84v-336q42 7 88 7q138 0 249 -69t175 -198.5t64 -303.5t-64 -302t-174.5 -196.5t-248.5 -68.5q-47 0 -89 7v-428h-84v428q-42 -7 -89 -7zM585 1024q-107 0 -201.5 -51.5
t-154 -160.5t-59.5 -274q0 -164 59.5 -272.5t153.5 -159t200 -50.5q37 0 73 6v956q-35 6 -71 6zM813 56q106 0 200 50.5t153.5 159t59.5 272.5q0 165 -59.5 274t-154 160.5t-201.5 51.5q-37 0 -71 -6v-956q36 -6 73 -6z" />
    <glyph glyph-name="chi" unicode="&#x3c7;" horiz-adv-x="1018" 
d="M460 546l-430 534h104l376 -472l374 472h104l-430 -534l440 -546h-106l-382 484l-384 -484h-106z" />
    <glyph glyph-name="psi" unicode="&#x3c8;" horiz-adv-x="1340" 
d="M422.5 16q-93.5 43 -160.5 115t-104 163q-25 62 -31.5 113t-6.5 99v574h84v-470q0 -142 20 -224q23 -95 82 -171.5t143 -120t179 -44.5v1030h84v-1030q95 1 179 44.5t143 120t82 171.5q20 82 20 224v470h84v-574q0 -48 -6.5 -99t-31.5 -113q-35 -88 -101 -160
t-160 -116.5t-209 -47.5v-420h-84v420q-112 3 -205.5 46z" />
    <glyph glyph-name="omega" unicode="&#x3c9;" horiz-adv-x="1524" 
d="M1353 851q91 -156 91 -381q0 -153 -43.5 -265.5t-130.5 -174.5t-214 -62q-106 0 -183.5 48.5t-110.5 144.5q-33 -96 -110 -144.5t-182 -48.5q-193 0 -291.5 135t-98.5 367q0 226 92 382t292 258l44 -78q-179 -92 -258.5 -225.5t-79.5 -328.5q0 -124 33.5 -220t101 -151
t167.5 -55q143 0 195.5 94t52.5 256v286h84v-286q0 -159 52.5 -254.5t195.5 -95.5q101 0 169 56t100.5 152t32.5 218q0 197 -80.5 330t-257.5 224l44 78q202 -103 293 -259z" />
    <glyph glyph-name="iotadieresis" unicode="&#x3ca;" horiz-adv-x="604" 
d="M-38 1440h120v-120h-120v120zM322 1440h120v-120h-120v120zM190 126q-19 42 -24.5 87t-5.5 115v30v722h84v-722l-1 -73q0 -41 4.5 -68.5t18.5 -54.5q22 -42 55 -63t83 -27q33 -3 66 -3q66 0 114 11v-80q-65 -14 -127 -14q-36 0 -63 4q-150 19 -204 136z" />
    <glyph glyph-name="upsilondieresis" unicode="&#x3cb;" horiz-adv-x="1116" 
d="M318 1440h120v-120h-120v120zM678 1440h120v-120h-120v120zM204 508q0 -227 91.5 -338.5t262.5 -111.5t262.5 111.5t91.5 338.5v572h84v-588q0 -159 -52.5 -275.5t-151 -178.5t-234.5 -62t-234.5 62t-151 178.5t-52.5 275.5v588h84v-572z" />
    <glyph glyph-name="omicrontonos" unicode="&#x3cc;" horiz-adv-x="1148" 
d="M527 1260l96 270h88l-96 -270h-88zM306 42q-111 72 -168.5 201.5t-57.5 298.5q0 170 58.5 298.5t170 199t265.5 70.5q158 0 269 -71.5t168 -199.5t57 -297q0 -172 -57.5 -301t-169 -200t-267.5 -71q-157 0 -268 72zM797.5 114.5q90.5 60.5 135.5 170.5t45 257
q0 226 -103 355t-301 129q-134 0 -224.5 -61t-135 -169.5t-44.5 -253.5q0 -148 46 -258t136.5 -170t221.5 -60q133 0 223.5 60.5z" />
    <glyph glyph-name="upsilontonos" unicode="&#x3cd;" horiz-adv-x="1116" 
d="M489 1260l96 270h88l-96 -270h-88zM204 508q0 -227 91.5 -338.5t262.5 -111.5t262.5 111.5t91.5 338.5v572h84v-588q0 -159 -52.5 -275.5t-151 -178.5t-234.5 -62t-234.5 62t-151 178.5t-52.5 275.5v588h84v-572z" />
    <glyph glyph-name="omegatonos" unicode="&#x3ce;" horiz-adv-x="1524" 
d="M891 1530l-96 -270h-88l96 270h88zM1353 851q91 -156 91 -381q0 -153 -43.5 -265.5t-130.5 -174.5t-214 -62q-106 0 -183.5 48.5t-110.5 144.5q-33 -96 -110 -144.5t-182 -48.5q-193 0 -291.5 135t-98.5 367q0 226 92 382t292 258l44 -78q-179 -92 -258.5 -225.5
t-79.5 -328.5q0 -124 33.5 -220t101 -151t167.5 -55q143 0 195.5 94t52.5 256v286h84v-286q0 -159 52.5 -254.5t195.5 -95.5q101 0 169 56t100.5 152t32.5 218q0 197 -80.5 330t-257.5 224l44 78q202 -103 293 -259z" />
    <glyph glyph-name="uni0400" unicode="&#x400;" horiz-adv-x="1120" 
d="M478 1890h88l96 -270h-88zM1020 1440v-84h-796v-594h676v-84h-676v-594h796v-84h-880v1440h880z" />
    <glyph glyph-name="uni0401" unicode="&#x401;" horiz-adv-x="1120" 
d="M310 1800h120v-120h-120v120zM670 1800h120v-120h-120v120zM1020 1440v-84h-796v-594h676v-84h-676v-594h796v-84h-880v1440h880z" />
    <glyph glyph-name="uni0402" unicode="&#x402;" horiz-adv-x="1252" 
d="M0 1356v84h540v-84h-322v-458q60 107 174 159.5t268 52.5q248 0 380 -135.5t132 -406.5q0 -171 -54 -298.5t-163 -198.5t-269 -71v84q126 0 216 58t138 169.5t48 270.5q0 228 -106.5 336t-321.5 108q-165 0 -267.5 -64t-142.5 -202q-17 -61 -21.5 -126t-4.5 -158v-476
h-84v1356h-140z" />
    <glyph glyph-name="uni0403" unicode="&#x403;" horiz-adv-x="1040" 
d="M375 1620l96 270h88l-96 -270h-88zM1020 1440v-84h-796v-1356h-84v1440h880z" />
    <glyph glyph-name="uni0404" unicode="&#x404;" horiz-adv-x="1424" 
d="M390.5 68.5q-147.5 98.5 -221.5 268.5t-69 383q5 228 79.5 396.5t217.5 261t349 92.5q157 0 283.5 -58.5t212.5 -170.5t122 -269l-88 -14q-28 131 -100 226.5t-181.5 146.5t-248.5 53q-173 2 -295.5 -76t-188 -219t-72.5 -327h540v-84h-540q3 -127 32 -231t100 -199
q74 -99 185 -146.5t249 -47.5q125 0 229 48t177.5 138.5t107.5 215.5l84 -24q-34 -142 -119.5 -246t-211 -160t-277.5 -56q-208 0 -355.5 98.5z" />
    <glyph glyph-name="uni0405" unicode="&#x405;" horiz-adv-x="1178" 
d="M356 17.5q-117 47.5 -193.5 135t-102.5 205.5l84 16q26 -98 92 -170.5t164 -111t218 -38.5q125 0 219.5 40t146.5 113t52 169q0 89 -42 145.5t-97 84.5t-123 48l-360 108q-298 89 -298 330q0 109 59.5 195t166.5 134.5t244 48.5q140 0 253 -52t184 -147t89 -221l-84 -16
q-14 104 -74 184t-155.5 124t-212.5 44q-111 0 -197.5 -38.5t-134.5 -105t-48 -148.5q0 -80 43 -132t103 -80t142 -52l298 -90q79 -23 147.5 -58t123.5 -110.5t55 -195.5q0 -123 -61.5 -214.5t-174.5 -141.5t-264 -50q-145 0 -262 47.5z" />
    <glyph glyph-name="uni0406" unicode="&#x406;" horiz-adv-x="404" 
d="M160 1440h84v-1440h-84v1440z" />
    <glyph glyph-name="uni0407" unicode="&#x407;" horiz-adv-x="404" 
d="M-38 1800h120v-120h-120v120zM322 1800h120v-120h-120v120zM244 1440v-1440h-84v1440h84z" />
    <glyph glyph-name="uni0408" unicode="&#x408;" horiz-adv-x="878" 
d="M197.5 6.5q-74.5 34.5 -126 97.5t-71.5 146l86 20q15 -61 54 -110t96.5 -76.5t125.5 -27.5q71 0 134 32t100 98q24 45 30 94t6 144v1016h84v-1016v-44q0 -80 -8.5 -133t-37.5 -105q-47 -83 -129 -126.5t-183 -43.5q-86 0 -160.5 34.5z" />
    <glyph glyph-name="uni0409" unicode="&#x409;" horiz-adv-x="2166" 
d="M1925 780.5q77 -59.5 119 -150t42 -198.5t-42 -198.5t-119 -150t-179 -75.5q-48 -8 -92 -8h-530v1356h-700q-9 -130 -11 -177q-16 -256 -30 -424t-41 -367q-19 -132 -40.5 -214t-67.5 -135t-126 -53q-42 0 -88 14v84q29 -3 53 -3q58 0 88 29t49.5 102t41.5 230
q33 228 51 441.5t33 556.5h872v-576h446q44 0 92 -8q102 -16 179 -75.5zM1880 157q57 49 86.5 121t29.5 154t-29.5 154t-86.5 121t-138 65q-43 8 -88 8h-446v-696h446q45 0 88 8q81 16 138 65z" />
    <glyph glyph-name="uni040A" unicode="&#x40a;" horiz-adv-x="2058" 
d="M1817 780.5q77 -59.5 119 -150t42 -198.5t-42 -198.5t-119 -150t-179 -75.5q-48 -8 -92 -8h-530v780h-792v-780h-84v1440h84v-576h792v576h84v-576h446q44 0 92 -8q102 -16 179 -75.5zM1772 157q57 49 86.5 121t29.5 154t-29.5 154t-86.5 121t-138 65q-43 8 -88 8h-446
v-696h446q45 0 88 8q81 16 138 65z" />
    <glyph glyph-name="uni040B" unicode="&#x40b;" horiz-adv-x="1254" 
d="M988.5 777q125.5 -141 125.5 -385v-392h-84v356q0 238 -106 356t-324 118q-117 0 -214.5 -30t-161.5 -76v-724h-84v1356h-140v84h540v-84h-316v-526q159 88 366 88q273 0 398.5 -141z" />
    <glyph glyph-name="uni040C" unicode="&#x40c;" horiz-adv-x="1116" 
d="M731 1890l-96 -270h-88l96 270h88zM140 1440h84v-1440h-84v1440zM346 752l770 -752h-116l-776 752l712 688h116z" />
    <glyph glyph-name="uni040D" unicode="&#x40d;" horiz-adv-x="1324" 
d="M546 1890h88l96 -270h-88zM140 1440h84v-1290l876 1290h84v-1440h-84v1292l-876 -1292h-84v1440z" />
    <glyph glyph-name="uni040E" unicode="&#x40e;" horiz-adv-x="1228" 
d="M475.5 1602.5q-52.5 30.5 -83 83t-30.5 114.5h78q0 -40 20.5 -74.5t55 -55t74.5 -20.5q41 0 75.5 20.5t54.5 55t20 74.5h78q0 -62 -30.5 -114.5t-83 -83t-114.5 -30.5t-114.5 30.5zM40 1440h90l476 -1036l482 1036h90l-664 -1440h-96l144 310z" />
    <glyph glyph-name="uni040F" unicode="&#x40f;" horiz-adv-x="1420" 
d="M668 0h-528v1440h84v-1356h972v1356h84v-1440h-528v-240h-84v240z" />
    <glyph glyph-name="uni0410" unicode="&#x410;" horiz-adv-x="1218" 
d="M1088 0l-136 374h-686l-136 -374h-90l524 1440h90l524 -1440h-90zM295 454h628l-315 865z" />
    <glyph glyph-name="uni0411" unicode="&#x411;" horiz-adv-x="1162" 
d="M980 1440v-84h-756v-492h446q44 0 92 -8q102 -16 179 -75.5t119 -150t42 -198.5t-42 -198.5t-119 -150t-179 -75.5q-48 -8 -92 -8h-530v1440h840zM758 92q81 16 138 65t86.5 121t29.5 154t-29.5 154t-86.5 121t-138 65q-43 8 -88 8h-446v-696h446q45 0 88 8z" />
    <glyph glyph-name="uni0412" unicode="&#x412;" horiz-adv-x="1202" 
d="M1076 617.5q68 -96.5 68 -229.5q0 -120 -55.5 -207.5t-151 -134t-213.5 -46.5h-584v1440h546q104 0 192.5 -45t141 -126t52.5 -183q0 -99 -50 -184.5t-135 -134.5q121 -53 189 -149.5zM224 800h462q80 0 148 39t108 106t40 147q0 78 -39 138.5t-106.5 94t-150.5 33.5
h-462v-558zM872.5 119q83.5 35 131.5 102t48 159t-44.5 169.5t-119.5 123t-164 45.5h-500v-634h460q105 0 188.5 35z" />
    <glyph glyph-name="uni0413" unicode="&#x413;" horiz-adv-x="1040" 
d="M140 1440h880v-84h-796v-1356h-84v1440z" />
    <glyph glyph-name="uni0414" unicode="&#x414;" horiz-adv-x="1456" 
d="M244.5 149.5q57.5 65.5 79 159t38.5 246.5l6 53q18 153 27 293.5t19 366.5q2 44 8 172h854v-1356h100v-324h-84v240h-1128v-240h-84v324q107 0 164.5 65.5zM1192 1356h-688q-11 -255 -22 -432t-30 -360q-20 -202 -53 -316t-101 -164h894v1272z" />
    <glyph glyph-name="uni0415" unicode="&#x415;" horiz-adv-x="1120" 
d="M140 1440h880v-84h-796v-594h676v-84h-676v-594h796v-84h-880v1440z" />
    <glyph glyph-name="uni0416" unicode="&#x416;" horiz-adv-x="1748" 
d="M84 1440h116l632 -688l-696 -752h-116l702 752zM832 1440h84v-1440h-84v1440zM1026 752l702 -752h-116l-696 752l632 688h116z" />
    <glyph glyph-name="uni0417" unicode="&#x417;" horiz-adv-x="1122" 
d="M326 11q-104 41 -170 110.5t-96 158.5l86 36q37 -119 147.5 -190.5t276.5 -71.5q124 0 214.5 40.5t139 117.5t48.5 184q0 157 -100.5 222t-283.5 72q-148 6 -166 6v84q122 0 166 2q106 5 182.5 43.5t116 105t39.5 153.5q0 94 -44.5 162t-124 104t-181.5 36
q-140 0 -235.5 -68.5t-162.5 -203.5l-88 34q67 150 192 236t296 86q121 0 221 -45t158.5 -132t58.5 -209q0 -124 -59 -215.5t-153 -130.5q122 -31 190 -119t68 -227q0 -127 -58.5 -222.5t-169.5 -147.5t-266 -52q-138 0 -242 41z" />
    <glyph glyph-name="uni0418" unicode="&#x418;" horiz-adv-x="1324" 
d="M1184 0h-84v1292l-876 -1292h-84v1440h84v-1290l876 1290h84v-1440z" />
    <glyph glyph-name="uni0419" unicode="&#x419;" horiz-adv-x="1324" 
d="M567.5 1602.5q-52.5 30.5 -83 83t-30.5 114.5h78q0 -40 20.5 -74.5t55 -55t74.5 -20.5q41 0 75.5 20.5t54.5 55t20 74.5h78q0 -62 -30.5 -114.5t-83 -83t-114.5 -30.5t-114.5 30.5zM140 1440h84v-1290l876 1290h84v-1440h-84v1292l-876 -1292h-84v1440z" />
    <glyph glyph-name="uni041A" unicode="&#x41a;" horiz-adv-x="1116" 
d="M140 1440h84v-1440h-84v1440zM346 752l770 -752h-116l-776 752l712 688h116z" />
    <glyph glyph-name="uni041B" unicode="&#x41b;" horiz-adv-x="1368" 
d="M93 81q58 0 88 29t49.5 102t41.5 230q33 228 51 441.5t33 556.5h872v-1440h-84v1356h-700q-9 -130 -11 -177q-16 -256 -30 -424t-41 -367q-19 -132 -40.5 -214t-67.5 -135t-126 -53q-42 0 -88 14v84q29 -3 53 -3z" />
    <glyph glyph-name="uni041C" unicode="&#x41c;" horiz-adv-x="1662" 
d="M140 1440h80l612 -1338l606 1338h84v-1438h-84v1236l-560 -1238h-94l-560 1238v-1238h-84v1440z" />
    <glyph glyph-name="uni041D" unicode="&#x41d;" horiz-adv-x="1320" 
d="M140 1440h84v-678h872v678h84v-1440h-84v678h-872v-678h-84v1440z" />
    <glyph glyph-name="uni041E" unicode="&#x41e;" horiz-adv-x="1412" 
d="M351 64.5q-145 94.5 -218 263.5t-73 392t73 392t218 263.5t355 94.5t355 -94.5t218 -263.5t73 -392t-73 -392t-218 -263.5t-355 -94.5t-355 94.5zM1011.5 138q124.5 84 187.5 234t63 348t-63 348t-187.5 234t-305.5 84q-183 0 -307.5 -85.5t-186.5 -238.5t-62 -354
q0 -194 63.5 -341.5t188.5 -230t304 -82.5q181 0 305.5 84z" />
    <glyph glyph-name="uni041F" unicode="&#x41f;" horiz-adv-x="1340" 
d="M140 1440h1060v-1440h-84v1356h-892v-1356h-84v1440z" />
    <glyph glyph-name="uni0420" unicode="&#x420;" horiz-adv-x="1162" 
d="M670 1440q44 0 92 -8q102 -16 179 -75.5t119 -150t42 -198.5t-42 -198.5t-119 -150t-179 -75.5q-48 -8 -92 -8h-446v-576h-84v1440h530zM758 668q81 16 138 65t86.5 121t29.5 154t-29.5 154t-86.5 121t-138 65q-43 8 -88 8h-446v-696h446q45 0 88 8z" />
    <glyph glyph-name="uni0421" unicode="&#x421;" horiz-adv-x="1400" 
d="M351 64.5q-145 94.5 -218 263.5t-73 392t73 392t218 263.5t355 94.5q246 0 402 -128t212 -354l-88 -20q-49 196 -183 307t-343 111q-183 0 -307.5 -85.5t-186.5 -238.5t-62 -354q0 -194 63.5 -341.5t188.5 -230t304 -82.5q209 0 343 111t183 307l88 -20
q-56 -226 -212 -354t-402 -128q-210 0 -355 94.5z" />
    <glyph glyph-name="uni0422" unicode="&#x422;" horiz-adv-x="1180" 
d="M548 1356h-528v84h1140v-84h-528v-1356h-84v1356z" />
    <glyph glyph-name="uni0423" unicode="&#x423;" horiz-adv-x="1228" 
d="M562 310l-522 1130h90l476 -1036l482 1036h90l-664 -1440h-96z" />
    <glyph glyph-name="uni0424" unicode="&#x424;" horiz-adv-x="1384" 
d="M565 175q-135 0 -250.5 70t-185 204t-69.5 317t69.5 317t185 204t250.5 70q46 0 85 -7v90h84v-90q39 7 85 7q135 0 250.5 -70t185 -204t69.5 -317t-69.5 -317t-185 -204t-250.5 -70q-46 0 -85 7v-182h-84v182q-39 -7 -85 -7zM587 1270q-121 0 -220.5 -61.5t-158 -176
t-58.5 -266.5t58.5 -266t158 -175t220.5 -61q35 0 63 4v998q-28 4 -63 4zM797 264q121 0 220.5 61t158 175t58.5 266t-58.5 266.5t-158 176t-220.5 61.5q-35 0 -63 -4v-998q28 -4 63 -4z" />
    <glyph glyph-name="uni0425" unicode="&#x425;" 
d="M526 730l-494 710h100l440 -642l442 642h100l-494 -710l506 -730h-100l-454 660l-452 -660h-100z" />
    <glyph glyph-name="uni0426" unicode="&#x426;" horiz-adv-x="1388" 
d="M1284 0h-1144v1440h84v-1356h912v1356h84v-1356h148v-244h-84v160z" />
    <glyph glyph-name="uni0427" unicode="&#x427;" horiz-adv-x="1254" 
d="M1114 1440v-1440h-84v610q-159 -88 -366 -88q-273 0 -398.5 141t-125.5 385v392h84v-356q0 -238 106 -356t324 -118q117 0 214.5 30t161.5 76v724h84z" />
    <glyph glyph-name="uni0428" unicode="&#x428;" horiz-adv-x="1760" 
d="M140 1440h84v-1356h614v1356h84v-1356h614v1356h84v-1440h-1480v1440z" />
    <glyph glyph-name="uni0429" unicode="&#x429;" horiz-adv-x="1788" 
d="M1620 84h148v-244h-84v160h-1544v1440h84v-1356h614v1356h84v-1356h614v1356h84v-1356z" />
    <glyph glyph-name="uni042A" unicode="&#x42a;" horiz-adv-x="1182" 
d="M-20 1356v84h264v-576h446q44 0 92 -8q102 -16 179 -75.5t119 -150t42 -198.5t-42 -198.5t-119 -150t-179 -75.5q-48 -8 -92 -8h-530v1356h-180zM778 92q81 16 138 65t86.5 121t29.5 154t-29.5 154t-86.5 121t-138 65q-43 8 -88 8h-446v-696h446q45 0 88 8z" />
    <glyph glyph-name="uni042B" unicode="&#x42b;" horiz-adv-x="1466" 
d="M224 1440v-576h446q44 0 92 -8q102 -16 179 -75.5t119 -150t42 -198.5t-42 -198.5t-119 -150t-179 -75.5q-48 -8 -92 -8h-530v1440h84zM758 92q81 16 138 65t86.5 121t29.5 154t-29.5 154t-86.5 121t-138 65q-43 8 -88 8h-446v-696h446q45 0 88 8zM1242 1440h84v-1440
h-84v1440z" />
    <glyph glyph-name="uni042C" unicode="&#x42c;" horiz-adv-x="1182" 
d="M224 1440v-576h446q44 0 92 -8q102 -16 179 -75.5t119 -150t42 -198.5t-42 -198.5t-119 -150t-179 -75.5q-48 -8 -92 -8h-530v1440h84zM758 92q81 16 138 65t86.5 121t29.5 154t-29.5 154t-86.5 121t-138 65q-43 8 -88 8h-446v-696h446q45 0 88 8z" />
    <glyph glyph-name="uni042D" unicode="&#x42d;" horiz-adv-x="1384" 
d="M400.5 26q-125.5 56 -211 160t-119.5 246l84 24q34 -125 107.5 -215.5t177.5 -138.5t229 -48q138 0 249 47.5t185 146.5q71 95 100 199t32 231h-540v84h540q-7 186 -72.5 327t-188 219t-295.5 76q-139 -2 -248.5 -53t-181.5 -146.5t-100 -226.5l-88 14q36 157 122 269
t212.5 170.5t283.5 58.5q206 0 349 -92.5t217.5 -261t79.5 -396.5q5 -213 -69 -383t-221.5 -268.5t-355.5 -98.5q-152 0 -277.5 56z" />
    <glyph glyph-name="uni042E" unicode="&#x42e;" horiz-adv-x="1796" 
d="M1487 1363.5q126 -104.5 187.5 -275t61.5 -368.5q0 -207 -61 -377t-187 -271.5t-310 -101.5q-177 0 -300.5 98t-187 258.5t-69.5 351.5h-397v-678h-84v1440h84v-678h397q6 191 69.5 351t187 257.5t300.5 97.5q183 0 309 -104.5zM1434.5 147q105.5 93 158.5 248t53 338
q0 177 -54.5 325.5t-160.5 237t-253 88.5q-151 0 -256.5 -92.5t-158.5 -247t-53 -337.5q0 -177 54.5 -326t160.5 -238t253 -89q151 0 256.5 93z" />
    <glyph glyph-name="uni042F" unicode="&#x42f;" horiz-adv-x="1222" 
d="M1082 1440v-1440h-84v576h-539l-279 -576h-100l296 607q-119 45 -187.5 153.5t-68.5 247.5q0 108 42 198.5t119 150t179 75.5q48 8 92 8h530zM998 1356h-446q-45 0 -88 -8q-81 -16 -138 -65t-86.5 -121t-29.5 -154t29.5 -154t86.5 -121t138 -65q43 -8 88 -8h446v696z" />
    <glyph glyph-name="uni0430" unicode="&#x430;" horiz-adv-x="1084" 
d="M957.5 789q6.5 -56 6.5 -113v-676h-78v197q-61 -109 -174.5 -168t-257.5 -59q-121 0 -205.5 43t-126.5 114.5t-42 158.5q0 132 82 206.5t212 101.5q156 31 440 62l66 8q1 124 -31.5 203.5t-106 119t-194.5 39.5q-136 0 -218.5 -60.5t-115.5 -185.5l-92 24
q36 149 147 227.5t283 78.5q148 0 248.5 -60.5t137.5 -165.5q13 -39 19.5 -95zM880 582l-23 -2q-143 -13 -258.5 -27t-206.5 -37q-93 -23 -158.5 -77.5t-65.5 -154.5q0 -57 27.5 -109.5t91 -86.5t163.5 -34q116 0 206 42t145.5 122t70.5 190q8 56 8 174z" />
    <glyph glyph-name="uni0431" unicode="&#x431;" 
d="M205.5 119q-125.5 149 -125.5 457q0 123 18 273t40 225q23 78 71.5 145.5t114.5 108.5q75 50 182 73.5t266 43.5q124 16 164 25l12 -80q-25 -4 -50.5 -7.5t-50.5 -7.5q-169 -23 -287.5 -49.5t-195.5 -75.5q-85 -51 -132.5 -160t-59.5 -266q62 101 171 157.5t245 56.5
q145 0 253 -66t166.5 -187.5t58.5 -282.5q0 -162 -60 -282t-173.5 -185t-270.5 -65q-231 0 -356.5 149zM792.5 109.5q90.5 55.5 137 156.5t46.5 238q0 139 -48 240t-139.5 155.5t-218.5 54.5t-216.5 -54.5t-136.5 -155.5t-47 -240t46 -240t136.5 -155.5t219.5 -54.5
q130 0 220.5 55.5z" />
    <glyph glyph-name="uni0432" unicode="&#x432;" horiz-adv-x="1040" 
d="M554 1080q98 0 170 -18q96 -25 150 -102t54 -176q0 -105 -58 -178q-25 -34 -66 -56q27 -6 66 -32q56 -38 83 -97.5t27 -134.5q0 -108 -51.5 -177t-136.5 -93q-37 -11 -77 -13.5t-91 -2.5h-484v1080h414zM654 586q33 4 58 12q62 20 94 71.5t32 116.5q0 68 -33.5 118.5
t-94.5 71.5q-58 20 -146 20h-340v-414h370q27 0 60 4zM684 87q36 3 62 9q72 16 108 68t36 122q0 86 -53.5 142t-144.5 66q-32 4 -100 4h-368v-414h400q24 0 60 3z" />
    <glyph glyph-name="uni0433" unicode="&#x433;" horiz-adv-x="910" 
d="M140 1080h720v-84h-636v-996h-84v1080z" />
    <glyph glyph-name="uni0434" unicode="&#x434;" horiz-adv-x="1150" 
d="M160.5 109.5q38.5 25.5 62.5 76.5t43 136q27 120 41.5 279.5t28.5 478.5h654v-996h100v-324h-84v240h-862v-240h-84v324q62 0 100.5 25.5zM906 996h-484q-13 -249 -29.5 -432t-46.5 -290q-23 -79 -40.5 -121.5t-45.5 -68.5h646v912z" />
    <glyph glyph-name="uni0435" unicode="&#x435;" 
d="M808.5 116.5q101.5 62.5 161.5 181.5l70 -40q-66 -138 -187.5 -213t-278.5 -75q-152 0 -263.5 69t-171 197.5t-59.5 303.5q0 176 59.5 304.5t170.5 197t264 68.5q154 0 264.5 -70t169 -203.5t58.5 -320.5h-896q4 -146 53 -249.5t138 -158t213 -54.5q133 0 234.5 62.5z
M290.5 915q-104.5 -111 -118.5 -315h801q-17 207 -119.5 316.5t-279.5 109.5q-179 0 -283.5 -111z" />
    <glyph glyph-name="uni0436" unicode="&#x436;" horiz-adv-x="1308" 
d="M36 1080h100l476 -540l-492 -540h-100l496 540zM612 1080h84v-1080h-84v1080zM792 540l496 -540h-100l-492 540l476 540h100z" />
    <glyph glyph-name="uni0437" unicode="&#x437;" horiz-adv-x="994" 
d="M873 456q41 -77 41 -164q0 -95 -49 -168t-136 -113.5t-197 -40.5q-166 0 -284.5 74.5t-187.5 213.5l70 40q60 -120 159 -182t231 -62q92 0 161.5 29.5t108 85t38.5 131.5q0 111 -67 164.5t-227 53.5h-160v82h158q127 0 199.5 53.5t72.5 150.5q0 72 -37 122t-100.5 75
t-142.5 25q-106 0 -198 -43t-150 -117l-66 56q149 188 424 188q104 0 184.5 -37.5t126 -106.5t45.5 -160q0 -84 -36 -145t-101 -99q79 -29 120 -106z" />
    <glyph glyph-name="uni0438" unicode="&#x438;" horiz-adv-x="1086" 
d="M946 0h-84v932l-644 -932h-78v1080h84v-932l644 932h78v-1080z" />
    <glyph glyph-name="uni0439" unicode="&#x439;" horiz-adv-x="1086" 
d="M439.5 1242.5q-52.5 30.5 -83 83t-30.5 114.5h78q0 -40 20.5 -74.5t55 -55t74.5 -20.5q41 0 75.5 20.5t54.5 55t20 74.5h78q0 -62 -30.5 -114.5t-83 -83t-114.5 -30.5t-114.5 30.5zM862 0v932l-644 -932h-78v1080h84v-932l644 932h78v-1080h-84z" />
    <glyph glyph-name="uni043A" unicode="&#x43a;" horiz-adv-x="936" 
d="M140 1080h84v-520l540 520h126l-564 -540l650 -540h-144l-608 520v-520h-84v1080z" />
    <glyph glyph-name="uni043B" unicode="&#x43b;" horiz-adv-x="1112" 
d="M79 76q42 0 65.5 20.5t35 54.5t20.5 93q24 148 41.5 338t36.5 498h694v-1080h-84v996h-524q-40 -585 -88 -824q-13 -65 -29 -102.5t-47 -57t-84 -19.5q-35 0 -76 7v80q19 -4 39 -4z" />
    <glyph glyph-name="uni043C" unicode="&#x43c;" horiz-adv-x="1340" 
d="M140 1080h86l444 -976l444 976h86v-1080h-84v880l-400 -880h-92l-400 880v-880h-84v1080z" />
    <glyph glyph-name="uni043D" unicode="&#x43d;" horiz-adv-x="1140" 
d="M140 1080h84v-498h692v498h84v-1080h-84v498h-692v-498h-84v1080z" />
    <glyph glyph-name="uni043E" unicode="&#x43e;" horiz-adv-x="1148" 
d="M306 42q-111 72 -168.5 201.5t-57.5 298.5q0 170 58.5 298.5t170 199t265.5 70.5q158 0 269 -71.5t168 -199.5t57 -297q0 -172 -57.5 -301t-169 -200t-267.5 -71q-157 0 -268 72zM797.5 114.5q90.5 60.5 135.5 170.5t45 257q0 226 -103 355t-301 129q-134 0 -224.5 -61
t-135 -169.5t-44.5 -253.5q0 -148 46 -258t136.5 -170t221.5 -60q133 0 223.5 60.5z" />
    <glyph glyph-name="uni043F" unicode="&#x43f;" horiz-adv-x="1086" 
d="M140 1080h806v-1080h-84v996h-638v-996h-84v1080z" />
    <glyph glyph-name="uni0440" unicode="&#x440;" horiz-adv-x="1152" 
d="M861.5 1035.5q102.5 -74.5 156.5 -203.5t54 -290q0 -164 -54.5 -294t-160.5 -204t-255 -74q-129 0 -225.5 64t-152.5 178v-692h-84v1560h78v-221q56 119 158 185t242 66q141 0 243.5 -74.5zM809.5 117q85.5 63 129 173.5t43.5 251.5t-42 250.5t-127.5 171.5t-210.5 62
q-123 0 -209.5 -61.5t-130.5 -170.5t-44 -252q0 -141 44 -251.5t130.5 -173.5t209.5 -63q122 0 207.5 63z" />
    <glyph glyph-name="uni0441" unicode="&#x441;" horiz-adv-x="1078" 
d="M307 41q-110 71 -167 199.5t-60 299.5q3 175 60 303t167 197.5t267 69.5q99 0 186 -32.5t151 -93t97 -142.5l-80 -34q-45 103 -138.5 160.5t-215.5 57.5q-197 0 -299 -130.5t-105 -355.5q2 -149 48 -258t136 -168.5t220 -59.5q120 0 211.5 55.5t140.5 160.5l82 -36
q-67 -130 -177 -197t-257 -67q-157 0 -267 71z" />
    <glyph glyph-name="uni0442" unicode="&#x442;" horiz-adv-x="980" 
d="M448 996h-398v84h880v-84h-398v-996h-84v996z" />
    <glyph glyph-name="uni0443" unicode="&#x443;" horiz-adv-x="1012" 
d="M872 1080h90l-566 -1560h-94l178 479l-440 1081h92l390 -965z" />
    <glyph glyph-name="uni0444" unicode="&#x444;" horiz-adv-x="1396" 
d="M567 -29q-138 0 -248.5 68.5t-174.5 196.5t-64 302t64 303.5t175 198.5t249 69q46 0 88 -7v336h84v-336q42 7 88 7q138 0 249 -69t175 -198.5t64 -303.5t-64 -302t-174.5 -196.5t-248.5 -68.5q-47 0 -89 7v-428h-84v428q-42 -7 -89 -7zM585 1024q-107 0 -201.5 -51.5
t-154 -160.5t-59.5 -274q0 -164 59.5 -272.5t153.5 -159t200 -50.5q37 0 73 6v956q-35 6 -71 6zM813 56q106 0 200 50.5t153.5 159t59.5 272.5q0 165 -59.5 274t-154 160.5t-201.5 51.5q-37 0 -71 -6v-956q36 -6 73 -6z" />
    <glyph glyph-name="uni0445" unicode="&#x445;" horiz-adv-x="1018" 
d="M460 546l-430 534h104l376 -472l374 472h104l-430 -534l440 -546h-106l-382 484l-384 -484h-106z" />
    <glyph glyph-name="uni0446" unicode="&#x446;" horiz-adv-x="1188" 
d="M1084 0h-944v1080h84v-996h638v996h84v-996h222v-244h-84v160z" />
    <glyph glyph-name="uni0447" unicode="&#x447;" horiz-adv-x="1046" 
d="M678.5 377q-84.5 -21 -176.5 -21q-162 0 -266.5 71.5t-135.5 206.5q-20 84 -20 224v222h84v-222q0 -99 10 -162q21 -131 105.5 -198.5t234.5 -67.5q86 0 169 21.5t139 60.5v568h84v-1080h-84v428q-59 -30 -143.5 -51z" />
    <glyph glyph-name="uni0448" unicode="&#x448;" horiz-adv-x="1474" 
d="M140 1080h84v-996h472v996h84v-996h470v996h84v-1080h-1194v1080z" />
    <glyph glyph-name="uni0449" unicode="&#x449;" horiz-adv-x="1522" 
d="M1418 0h-1278v1080h84v-996h472v996h84v-996h470v996h84v-996h168v-244h-84v160z" />
    <glyph glyph-name="uni044A" unicode="&#x44a;" horiz-adv-x="1064" 
d="M40 996v84h226v-438h292q100 0 158 -10q121 -20 194.5 -93.5t73.5 -216.5q0 -87 -31.5 -152t-84.5 -103.5t-118 -52.5q-39 -8 -79 -11t-93 -3h-396l-2 996h-140zM658.5 86.5q44.5 2.5 77.5 11.5q70 20 114 71t44 153q0 103 -44.5 155t-131.5 69q-60 12 -164 12h-288v-474
h288q60 0 104.5 2.5z" />
    <glyph glyph-name="uni044B" unicode="&#x44b;" horiz-adv-x="1248" 
d="M226 1080v-438h232q101 0 158 -10q268 -48 268 -310q0 -87 -31.5 -152t-84.5 -103.5t-118 -52.5q-39 -8 -79 -11t-93 -3h-336l-2 1080h86zM1108 1080v-1080h-84v1080h84zM558.5 86.5q44.5 2.5 77.5 11.5q70 20 114 71t44 153q0 103 -44.5 155t-131.5 69q-60 12 -164 12
h-228v-474h228q60 0 104.5 2.5z" />
    <glyph glyph-name="uni044C" unicode="&#x44c;" horiz-adv-x="1024" 
d="M226 1080v-438h292q101 0 158 -10q121 -20 194.5 -93.5t73.5 -216.5q0 -87 -31.5 -152t-84.5 -103.5t-118 -52.5q-39 -8 -79 -11t-93 -3h-396l-2 1080h86zM618.5 86.5q44.5 2.5 77.5 11.5q70 20 114 71t44 153q0 103 -44.5 155t-131.5 69q-60 12 -164 12h-288v-474h288
q60 0 104.5 2.5z" />
    <glyph glyph-name="uni044D" unicode="&#x44d;" horiz-adv-x="1078" 
d="M248 36.5q-110 66.5 -178 197.5l82 36q49 -105 140.5 -160.5t211.5 -55.5q186 0 288 118t114 326h-566v84h566q-11 206 -112.5 325t-289.5 119q-122 0 -215.5 -57.5t-138.5 -160.5l-80 34q50 125 167.5 196.5t274.5 71.5q153 0 262.5 -70t166.5 -198.5t57 -301.5
q0 -174 -58.5 -302.5t-169.5 -198t-264 -69.5q-148 0 -258 66.5z" />
    <glyph glyph-name="uni044E" unicode="&#x44e;" horiz-adv-x="1502" 
d="M670 36q-108 66 -167.5 185.5t-66.5 276.5h-212v-498h-84v1080h84v-498h210q7 159 67 278.5t168.5 184.5t256.5 65q158 0 270 -71.5t169 -199.5t57 -297q0 -171 -57.5 -300t-168.5 -200.5t-268 -71.5q-150 0 -258 66zM1229 184.5q103 130.5 103 357.5t-103.5 355.5
t-302.5 128.5q-126 0 -216.5 -57t-138 -166t-47.5 -261q0 -148 46 -258t135.5 -170t218.5 -60q202 0 305 130.5z" />
    <glyph glyph-name="uni044F" unicode="&#x44f;" horiz-adv-x="1064" 
d="M838 0v438h-292q-22 0 -60 2l-306 -440h-100l311 452l-9 2q-115 23 -188.5 98.5t-73.5 201.5q0 82 32 146t85 105t117 59q40 11 80 13.5t92 2.5h396l2 -1080h-86zM838 522v474h-288q-120 0 -180 -18q-65 -20 -112.5 -74.5t-47.5 -147.5q0 -90 47.5 -145t130.5 -75
q38 -9 76.5 -11.5t85.5 -2.5h288z" />
    <glyph glyph-name="uni0450" unicode="&#x450;" 
d="M640 1260h-88l-96 270h88zM808.5 116.5q101.5 62.5 161.5 181.5l70 -40q-66 -138 -187.5 -213t-278.5 -75q-152 0 -263.5 69t-171 197.5t-59.5 303.5q0 176 59.5 304.5t170.5 197t264 68.5q154 0 264.5 -70t169 -203.5t58.5 -320.5h-896q4 -146 53 -249.5t138 -158
t213 -54.5q133 0 234.5 62.5zM290.5 915q-104.5 -111 -118.5 -315h801q-17 207 -119.5 316.5t-279.5 109.5q-179 0 -283.5 -111z" />
    <glyph glyph-name="uni0451" unicode="&#x451;" 
d="M454 1440v-120h-120v120h120zM814 1440v-120h-120v120h120zM808.5 116.5q101.5 62.5 161.5 181.5l70 -40q-66 -138 -187.5 -213t-278.5 -75q-152 0 -263.5 69t-171 197.5t-59.5 303.5q0 176 59.5 304.5t170.5 197t264 68.5q154 0 264.5 -70t169 -203.5t58.5 -320.5h-896
q4 -146 53 -249.5t138 -158t213 -54.5q133 0 234.5 62.5zM290.5 915q-104.5 -111 -118.5 -315h801q-17 207 -119.5 316.5t-279.5 109.5q-179 0 -283.5 -111z" />
    <glyph glyph-name="uni0452" unicode="&#x452;" 
d="M880 -359q-52 0 -88 11v82q37 -5 57 -5q39 0 59 15.5t27 49t7 96.5v682q0 227 -91.5 338.5t-262.5 111.5q-126 0 -207.5 -57.5t-119 -155t-37.5 -219.5v-590h-84v1200h-140v84h140v156h78v-156h262v-84h-262v-294q58 100 154.5 149t215.5 49q136 0 234.5 -62t151 -178.5
t52.5 -275.5v-778q0 -149 -106 -166q-18 -3 -40 -3z" />
    <glyph glyph-name="uni0453" unicode="&#x453;" horiz-adv-x="910" 
d="M375 1260l96 270h88l-96 -270h-88zM860 1080v-84h-636v-996h-84v1080h720z" />
    <glyph glyph-name="uni0454" unicode="&#x454;" horiz-adv-x="1078" 
d="M308 39.5q-111 69.5 -169.5 198t-58.5 302.5q0 173 57 301.5t166.5 198.5t262.5 70q157 0 274.5 -71.5t167.5 -196.5l-80 -34q-45 103 -138.5 160.5t-215.5 57.5q-188 0 -289.5 -119t-112.5 -325h566v-84h-566q12 -208 114 -326t288 -118q120 0 211.5 55.5t140.5 160.5
l82 -36q-68 -131 -178 -197.5t-258 -66.5q-153 0 -264 69.5z" />
    <glyph glyph-name="uni0455" unicode="&#x455;" horiz-adv-x="1028" 
d="M317 6.5q-96 34.5 -157 99.5t-80 154l86 16q18 -67 69 -116.5t128.5 -76.5t172.5 -27q97 0 169.5 28.5t111.5 81.5t39 124q0 61 -26.5 97.5t-98.5 66.5t-225 72q-157 43 -241 82t-118.5 87.5t-34.5 122.5q0 85 50.5 151.5t141.5 103.5t208 37q118 0 214 -39.5
t154.5 -110.5t67.5 -162l-86 -16q-13 74 -61 129.5t-124 85t-171 29.5q-89 1 -158.5 -24.5t-108.5 -72.5t-39 -107q0 -52 29.5 -88t100 -65.5t200.5 -62.5q165 -42 253.5 -83.5t125.5 -96.5t37 -140q0 -97 -49.5 -168t-142.5 -108.5t-220 -37.5q-121 0 -217 34.5z" />
    <glyph glyph-name="uni0456" unicode="&#x456;" horiz-adv-x="404" 
d="M160 1440h84v-128h-84v128zM160 1080h84v-1080h-84v1080z" />
    <glyph glyph-name="uni0457" unicode="&#x457;" horiz-adv-x="404" 
d="M-38 1440h120v-120h-120v120zM322 1440h120v-120h-120v120zM244 1080v-1080h-84v1080h84z" />
    <glyph glyph-name="uni0458" unicode="&#x458;" horiz-adv-x="450" 
d="M206 1440h84v-128h-84v128zM48 -394q70 0 114 38.5t44 125.5v1310h84v-1300q0 -138 -57 -199t-187 -61h-66v86h68z" />
    <glyph glyph-name="uni0459" unicode="&#x459;" horiz-adv-x="1650" 
d="M80 76q41 0 64 20t34 54t22 94q25 144 41.5 328t36.5 508h634v-438h232q100 0 158 -10q116 -19 192 -92.5t76 -215.5q0 -133 -66 -210t-168 -100q-62 -14 -172 -14h-336l-2 996h-462q-40 -585 -88 -824q-13 -65 -29 -102.5t-47 -57t-84 -19.5q-35 0 -76 7v80q20 -4 40 -4
zM1244.5 86.5q41.5 2.5 77.5 11.5q69 19 113.5 70t44.5 158q0 101 -44.5 152t-131.5 68q-60 12 -164 12h-228v-474h228q63 0 104.5 2.5z" />
    <glyph glyph-name="uni045A" unicode="&#x45a;" horiz-adv-x="1568" 
d="M224 1080v-438h520v438h86v-438h232q100 0 158 -10q116 -19 192 -92.5t76 -215.5q0 -133 -66 -210t-168 -100q-62 -14 -172 -14h-336l-2 558h-520v-558h-84v1080h84zM1162.5 86.5q41.5 2.5 77.5 11.5q69 19 113.5 70t44.5 158q0 101 -44.5 152t-131.5 68q-60 12 -164 12
h-228v-474h228q63 0 104.5 2.5z" />
    <glyph glyph-name="uni045B" unicode="&#x45b;" 
d="M822.5 1042q98.5 -62 151 -178.5t52.5 -275.5v-588h-84v572q0 227 -91.5 338.5t-262.5 111.5q-126 0 -207.5 -57.5t-119 -155t-37.5 -219.5v-590h-84v1200h-140v84h140v156h78v-156h262v-84h-262v-295q58 101 154.5 150t215.5 49q136 0 234.5 -62z" />
    <glyph glyph-name="uni045C" unicode="&#x45c;" horiz-adv-x="936" 
d="M401 1260l96 270h88l-96 -270h-88zM224 1080v-520l540 520h126l-564 -540l650 -540h-144l-608 520v-520h-84v1080h84z" />
    <glyph glyph-name="uni045D" unicode="&#x45d;" horiz-adv-x="1086" 
d="M473 1530h88l96 -270h-88zM862 0v932l-644 -932h-78v1080h84v-932l644 932h78v-1080h-84z" />
    <glyph glyph-name="uni045E" unicode="&#x45e;" horiz-adv-x="1012" 
d="M445.5 1242.5q-52.5 30.5 -83 83t-30.5 114.5h78q0 -40 20.5 -74.5t55 -55t74.5 -20.5q41 0 75.5 20.5t54.5 55t20 74.5h78q0 -62 -30.5 -114.5t-83 -83t-114.5 -30.5t-114.5 30.5zM872 1080h90l-566 -1560h-94l178 479l-440 1081h92l390 -965z" />
    <glyph glyph-name="uni045F" unicode="&#x45f;" horiz-adv-x="1086" 
d="M528 0h-388v1080h84v-996h638v996h84v-1080h-334v-240h-84v240z" />
    <glyph glyph-name="uni0490" unicode="&#x490;" horiz-adv-x="1060" 
d="M140 1440h816v160h84v-244h-816v-1356h-84v1440z" />
    <glyph glyph-name="uni0491" unicode="&#x491;" horiz-adv-x="910" 
d="M140 1080h636v160h84v-244h-636v-996h-84v1080z" />
    <glyph glyph-name="uni04AE" unicode="&#x4ae;" horiz-adv-x="1038" 
d="M478 612l-478 828h96l424 -732l422 732h96l-476 -828v-612h-84v612z" />
    <glyph glyph-name="uni04AF" unicode="&#x4af;" horiz-adv-x="956" 
d="M432 0l-392 1080h90l348 -958l350 958h88l-392 -1080v-360h-92v360z" />
    <glyph glyph-name="uni04BA" unicode="&#x4ba;" horiz-adv-x="1254" 
d="M988.5 777q125.5 -141 125.5 -385v-392h-84v356q0 238 -106 356t-324 118q-117 0 -214.5 -30t-161.5 -76v-724h-84v1440h84v-610q159 88 366 88q273 0 398.5 -141z" />
    <glyph glyph-name="uni04BB" unicode="&#x4bb;" horiz-adv-x="1086" 
d="M407.5 703q84.5 21 176.5 21q162 0 266.5 -71.5t135.5 -206.5q20 -84 20 -224v-222h-84v222q0 100 -10 162q-21 131 -105.5 198.5t-234.5 67.5q-86 0 -169 -21.5t-139 -60.5v-568h-84v1080h84v-428q59 30 143.5 51z" />
    <glyph glyph-name="uni04E8" unicode="&#x4e8;" horiz-adv-x="1452" 
d="M1061 1375.5q145 -94.5 218 -263.5t73 -392t-73 -392t-218 -263.5t-355 -94.5t-355 94.5t-218 263.5t-73 392t73 392t218 263.5t355 94.5t355 -94.5zM410 1308q-122 -78 -186.5 -218.5t-72.5 -327.5h1110q-7 187 -71.5 327.5t-187 218.5t-296.5 78t-296 -78zM1002.5 132
q122.5 78 187 218.5t71.5 327.5h-1111q5 -186 70 -327t188 -219t298 -78q174 0 296.5 78z" />
    <glyph glyph-name="uni04E9" unicode="&#x4e9;" horiz-adv-x="1148" 
d="M843 1038.5q111 -71.5 168 -199.5t57 -297q0 -172 -57.5 -301t-169 -200t-267.5 -71q-157 0 -268 72t-168.5 201.5t-57.5 298.5q0 170 58.5 298.5t170 199t265.5 70.5q158 0 269 -71.5zM282 906.5q-102 -119.5 -111 -324.5h806q-9 208 -111.5 326t-291.5 118
q-190 0 -292 -119.5zM864.5 173q102.5 119 112.5 325h-806q7 -136 55 -235.5t136 -154t212 -54.5q188 0 290.5 119z" />
    <glyph glyph-name="Wgrave" unicode="&#x1e80;" horiz-adv-x="1818" 
d="M762 1890h88l96 -270h-88zM126 1440l370 -1288l368 1288h88l370 -1288l368 1288h88l-412 -1440h-88l-370 1286l-368 -1286h-88l-412 1440h86z" />
    <glyph glyph-name="wgrave" unicode="&#x1e81;" horiz-adv-x="1488" 
d="M597 1530h88l96 -270h-88zM128 1080l286 -936l286 936h88l286 -936l288 936h86l-330 -1080h-88l-286 938l-286 -938h-88l-330 1080h88z" />
    <glyph glyph-name="Wacute" unicode="&#x1e82;" horiz-adv-x="1818" 
d="M872 1620l96 270h88l-96 -270h-88zM126 1440l370 -1288l368 1288h88l370 -1288l368 1288h88l-412 -1440h-88l-370 1286l-368 -1286h-88l-412 1440h86z" />
    <glyph glyph-name="wacute" unicode="&#x1e83;" horiz-adv-x="1488" 
d="M707 1260l96 270h88l-96 -270h-88zM128 1080l286 -936l286 936h88l286 -936l288 936h86l-330 -1080h-88l-286 938l-286 -938h-88l-330 1080h88z" />
    <glyph glyph-name="Wdieresis" unicode="&#x1e84;" horiz-adv-x="1818" 
d="M670 1800h120v-120h-120v120zM1030 1800h120v-120h-120v120zM126 1440l370 -1288l368 1288h88l370 -1288l368 1288h88l-412 -1440h-88l-370 1286l-368 -1286h-88l-412 1440h86z" />
    <glyph glyph-name="wdieresis" unicode="&#x1e85;" horiz-adv-x="1488" 
d="M504 1440h120v-120h-120v120zM864 1440h120v-120h-120v120zM128 1080l286 -936l286 936h88l286 -936l288 936h86l-330 -1080h-88l-286 938l-286 -938h-88l-330 1080h88z" />
    <glyph glyph-name="uni1E9E" unicode="&#x1e9e;" horiz-adv-x="1359" 
d="M694.5 -23q-36.5 7 -88.5 23v84q50 -15 90.5 -20.5t91.5 -5.5q103 0 185 40t129.5 116.5t47.5 182.5q0 95 -47.5 167.5t-142 115.5t-230.5 48v78l268 473q-67 45 -144 74t-189 29q-118 0 -204.5 -39.5t-138 -107.5t-69.5 -154q-13 -62 -17 -125t-4 -144v-812h-92v894
q0 128 20 214q45 199 187 280.5t331 81.5q127 0 238.5 -47.5t200.5 -112.5l-278 -501q100 -9 191.5 -57.5t150 -138.5t58.5 -215q0 -134 -55 -230t-157.5 -147t-242.5 -51q-53 0 -89.5 7z" />
    <glyph glyph-name="uni1EA0" unicode="&#x1ea0;" horiz-adv-x="1218" 
d="M1178 0h-90l-136 374h-686l-136 -374h-90l524 1440h90zM295 454h628l-315 865zM549 -380v128h120v-128h-120z" />
    <glyph glyph-name="uni1EA1" unicode="&#x1ea1;" horiz-adv-x="1084" 
d="M957.5 789q6.5 -56 6.5 -113v-676h-78v197q-61 -109 -174.5 -168t-257.5 -59q-121 0 -205.5 43t-126.5 114.5t-42 158.5q0 132 82 206.5t212 101.5q156 31 440 62l66 8q1 124 -31.5 203.5t-106 119t-194.5 39.5q-136 0 -218.5 -60.5t-115.5 -185.5l-92 24
q36 149 147 227.5t283 78.5q148 0 248.5 -60.5t137.5 -165.5q13 -39 19.5 -95zM880 582l-23 -2q-143 -13 -258.5 -27t-206.5 -37q-93 -23 -158.5 -77.5t-65.5 -154.5q0 -57 27.5 -109.5t91 -86.5t163.5 -34q116 0 206 42t145.5 122t70.5 190q8 56 8 174zM462 -380v128h120
v-128h-120z" />
    <glyph glyph-name="uni1EA2" unicode="&#x1ea2;" horiz-adv-x="1218" 
d="M599 1854q-21 0 -44 -11.5t-43 -31.5l-38 49q25 30 60 47.5t71 17.5q66 0 109 -57q31 -41 31 -90q0 -51 -30.5 -98t-80.5 -74l-52 48q44 24 67 55.5t23 63.5q0 25 -14 47q-22 34 -59 34zM1088 0l-136 374h-686l-136 -374h-90l524 1440h90l524 -1440h-90zM295 454h628
l-315 865z" />
    <glyph glyph-name="uni1EA3" unicode="&#x1ea3;" horiz-adv-x="1084" 
d="M540 1494q-21 0 -44 -11.5t-43 -31.5l-38 49q25 30 60 47.5t71 17.5q66 0 109 -57q31 -41 31 -90q0 -51 -30.5 -98t-80.5 -74l-52 48q44 24 67 55.5t23 63.5q0 25 -14 47q-22 34 -59 34zM957.5 789q6.5 -56 6.5 -113v-676h-78v197q-61 -109 -174.5 -168t-257.5 -59
q-121 0 -205.5 43t-126.5 114.5t-42 158.5q0 132 82 206.5t212 101.5q156 31 440 62l66 8q1 124 -31.5 203.5t-106 119t-194.5 39.5q-136 0 -218.5 -60.5t-115.5 -185.5l-92 24q36 149 147 227.5t283 78.5q148 0 248.5 -60.5t137.5 -165.5q13 -39 19.5 -95zM880 582l-23 -2
q-143 -13 -258.5 -27t-206.5 -37q-93 -23 -158.5 -77.5t-65.5 -154.5q0 -57 27.5 -109.5t91 -86.5t163.5 -34q116 0 206 42t145.5 122t70.5 190q8 56 8 174z" />
    <glyph glyph-name="uni1EA4" unicode="&#x1ea4;" horiz-adv-x="1218" 
d="M1013 2100l-96 -270h-88l96 270h88zM609 1790l-146 -170h-100l200 240h92l200 -240h-100zM1088 0l-136 374h-686l-136 -374h-90l524 1440h90l524 -1440h-90zM295 454h628l-315 865z" />
    <glyph glyph-name="uni1EA5" unicode="&#x1ea5;" horiz-adv-x="1084" 
d="M969 1740l-96 -270h-88l96 270h88zM565 1430l-146 -170h-100l200 240h92l200 -240h-100zM800.5 1049.5q100.5 -60.5 137.5 -165.5q13 -39 19.5 -95t6.5 -113v-676h-78v197q-61 -109 -174.5 -168t-257.5 -59q-121 0 -205.5 43t-126.5 114.5t-42 158.5q0 132 82 206.5
t212 101.5q156 31 440 62l66 8q1 124 -31.5 203.5t-106 119t-194.5 39.5q-136 0 -218.5 -60.5t-115.5 -185.5l-92 24q36 149 147 227.5t283 78.5q148 0 248.5 -60.5zM880 582l-23 -2q-143 -13 -258.5 -27t-206.5 -37q-93 -23 -158.5 -77.5t-65.5 -154.5q0 -57 27.5 -109.5
t91 -86.5t163.5 -34q116 0 206 42t145.5 122t70.5 190q8 56 8 174z" />
    <glyph glyph-name="uni1EA6" unicode="&#x1ea6;" horiz-adv-x="1218" 
d="M903 1830h-88l-96 270h88zM609 1790l-146 -170h-100l200 240h92l200 -240h-100zM1088 0l-136 374h-686l-136 -374h-90l524 1440h90l524 -1440h-90zM295 454h628l-315 865z" />
    <glyph glyph-name="uni1EA7" unicode="&#x1ea7;" horiz-adv-x="1084" 
d="M871 1470h-88l-96 270h88zM577 1430l-146 -170h-100l200 240h92l200 -240h-100zM957.5 789q6.5 -56 6.5 -113v-676h-78v197q-61 -109 -174.5 -168t-257.5 -59q-121 0 -205.5 43t-126.5 114.5t-42 158.5q0 132 82 206.5t212 101.5q156 31 440 62l66 8q1 124 -31.5 203.5
t-106 119t-194.5 39.5q-136 0 -218.5 -60.5t-115.5 -185.5l-92 24q36 149 147 227.5t283 78.5q148 0 248.5 -60.5t137.5 -165.5q13 -39 19.5 -95zM880 582l-23 -2q-143 -13 -258.5 -27t-206.5 -37q-93 -23 -158.5 -77.5t-65.5 -154.5q0 -57 27.5 -109.5t91 -86.5t163.5 -34
q116 0 206 42t145.5 122t70.5 190q8 56 8 174z" />
    <glyph glyph-name="uni1EA8" unicode="&#x1ea8;" horiz-adv-x="1218" 
d="M961 1854q-21 0 -44 -11.5t-43 -31.5l-38 49q25 30 60 47.5t71 17.5q66 0 109 -57q31 -41 31 -90q0 -51 -30.5 -98t-80.5 -74l-52 48q44 24 67 55.5t23 63.5q0 25 -14 47q-22 34 -59 34zM610 1790l-146 -170h-100l200 240h92l200 -240h-100zM1088 0l-136 374h-686
l-136 -374h-90l524 1440h90l524 -1440h-90zM295 454h628l-315 865z" />
    <glyph glyph-name="uni1EA9" unicode="&#x1ea9;" horiz-adv-x="1084" 
d="M1039 1418q0 -51 -30.5 -98t-80.5 -74l-52 48q44 24 67 55.5t23 63.5q0 25 -14 47q-22 34 -59 34q-21 0 -44 -11.5t-43 -31.5l-38 49q25 30 60 47.5t71 17.5q66 0 109 -57q31 -41 31 -90zM542 1430l-146 -170h-100l200 240h92l200 -240h-100zM800.5 1049.5
q100.5 -60.5 137.5 -165.5q13 -39 19.5 -95t6.5 -113v-676h-78v197q-61 -109 -174.5 -168t-257.5 -59q-121 0 -205.5 43t-126.5 114.5t-42 158.5q0 132 82 206.5t212 101.5q156 31 440 62l66 8q1 124 -31.5 203.5t-106 119t-194.5 39.5q-136 0 -218.5 -60.5t-115.5 -185.5
l-92 24q36 149 147 227.5t283 78.5q148 0 248.5 -60.5zM880 582l-23 -2q-143 -13 -258.5 -27t-206.5 -37q-93 -23 -158.5 -77.5t-65.5 -154.5q0 -57 27.5 -109.5t91 -86.5t163.5 -34q116 0 206 42t145.5 122t70.5 190q8 56 8 174z" />
    <glyph glyph-name="uni1EAA" unicode="&#x1eaa;" horiz-adv-x="1218" 
d="M342 1920q-5 18 -5 40q0 55 37.5 90.5t95.5 35.5q38 0 74.5 -13.5t87.5 -39.5q44 -22 70.5 -32.5t51.5 -10.5q28 0 43.5 16.5t15.5 43.5q0 18 -5 30h72q5 -17 5 -40q0 -56 -37.5 -93t-97.5 -37q-37 0 -73.5 13.5t-85.5 39.5q-44 22 -71 32.5t-52 10.5q-30 0 -45 -16.5
t-15 -39.5q0 -16 6 -30h-72zM560 1860h92l200 -240h-100l-146 170l-146 -170h-100zM1088 0l-136 374h-686l-136 -374h-90l524 1440h90l524 -1440h-90zM295 454h628l-315 865z" />
    <glyph glyph-name="uni1EAB" unicode="&#x1eab;" horiz-adv-x="1084" 
d="M298 1560q-5 18 -5 40q0 55 37.5 90.5t95.5 35.5q38 0 74.5 -13.5t87.5 -39.5q44 -22 70.5 -32.5t51.5 -10.5q28 0 43.5 16.5t15.5 43.5q0 18 -5 30h72q5 -17 5 -40q0 -56 -37.5 -93t-97.5 -37q-37 0 -73.5 13.5t-85.5 39.5q-43 22 -70.5 32.5t-52.5 10.5
q-30 0 -45 -16.5t-15 -39.5q0 -16 6 -30h-72zM516 1500h92l200 -240h-100l-146 170l-146 -170h-100zM957.5 789q6.5 -56 6.5 -113v-676h-78v197q-61 -109 -174.5 -168t-257.5 -59q-121 0 -205.5 43t-126.5 114.5t-42 158.5q0 132 82 206.5t212 101.5q156 31 440 62l66 8
q1 124 -31.5 203.5t-106 119t-194.5 39.5q-136 0 -218.5 -60.5t-115.5 -185.5l-92 24q36 149 147 227.5t283 78.5q148 0 248.5 -60.5t137.5 -165.5q13 -39 19.5 -95zM880 582l-23 -2q-143 -13 -258.5 -27t-206.5 -37q-93 -23 -158.5 -77.5t-65.5 -154.5q0 -57 27.5 -109.5
t91 -86.5t163.5 -34q116 0 206 42t145.5 122t70.5 190q8 56 8 174z" />
    <glyph glyph-name="uni1EAC" unicode="&#x1eac;" horiz-adv-x="1218" 
d="M610 1790l-146 -170h-100l200 240h92l200 -240h-100zM1178 0h-90l-136 374h-686l-136 -374h-90l524 1440h90zM295 454h628l-315 865zM549 -380v128h120v-128h-120z" />
    <glyph glyph-name="uni1EAD" unicode="&#x1ead;" horiz-adv-x="1084" 
d="M558 1430l-146 -170h-100l200 240h92l200 -240h-100zM957.5 789q6.5 -56 6.5 -113v-676h-78v197q-61 -109 -174.5 -168t-257.5 -59q-121 0 -205.5 43t-126.5 114.5t-42 158.5q0 132 82 206.5t212 101.5q156 31 440 62l66 8q1 124 -31.5 203.5t-106 119t-194.5 39.5
q-136 0 -218.5 -60.5t-115.5 -185.5l-92 24q36 149 147 227.5t283 78.5q148 0 248.5 -60.5t137.5 -165.5q13 -39 19.5 -95zM880 582l-23 -2q-143 -13 -258.5 -27t-206.5 -37q-93 -23 -158.5 -77.5t-65.5 -154.5q0 -57 27.5 -109.5t91 -86.5t163.5 -34q116 0 206 42
t145.5 122t70.5 190q8 56 8 174zM462 -380v128h120v-128h-120z" />
    <glyph glyph-name="uni1EAE" unicode="&#x1eae;" horiz-adv-x="1218" 
d="M743 2100l-96 -270h-88l96 270h88zM494.5 1602.5q-52.5 30.5 -83 83t-30.5 114.5h78q0 -40 20.5 -74.5t55 -55t74.5 -20.5q41 0 75.5 20.5t54.5 55t20 74.5h78q0 -62 -30.5 -114.5t-83 -83t-114.5 -30.5t-114.5 30.5zM1088 0l-136 374h-686l-136 -374h-90l524 1440h90
l524 -1440h-90zM295 454h628l-315 865z" />
    <glyph glyph-name="uni1EAF" unicode="&#x1eaf;" horiz-adv-x="1084" 
d="M693 1740l-96 -270h-88l96 270h88zM444.5 1242.5q-52.5 30.5 -83 83t-30.5 114.5h78q0 -40 20.5 -74.5t55 -55t74.5 -20.5q41 0 75.5 20.5t54.5 55t20 74.5h78q0 -62 -30.5 -114.5t-83 -83t-114.5 -30.5t-114.5 30.5zM957.5 789q6.5 -56 6.5 -113v-676h-78v197
q-61 -109 -174.5 -168t-257.5 -59q-121 0 -205.5 43t-126.5 114.5t-42 158.5q0 132 82 206.5t212 101.5q156 31 440 62l66 8q1 124 -31.5 203.5t-106 119t-194.5 39.5q-136 0 -218.5 -60.5t-115.5 -185.5l-92 24q36 149 147 227.5t283 78.5q148 0 248.5 -60.5t137.5 -165.5
q13 -39 19.5 -95zM880 582l-23 -2q-143 -13 -258.5 -27t-206.5 -37q-93 -23 -158.5 -77.5t-65.5 -154.5q0 -57 27.5 -109.5t91 -86.5t163.5 -34q116 0 206 42t145.5 122t70.5 190q8 56 8 174z" />
    <glyph glyph-name="uni1EB0" unicode="&#x1eb0;" horiz-adv-x="1218" 
d="M659 1830h-88l-96 270h88zM494.5 1602.5q-52.5 30.5 -83 83t-30.5 114.5h78q0 -40 20 -74.5t54.5 -55t75.5 -20.5q40 0 74.5 20.5t55 55t20.5 74.5h78q0 -62 -30.5 -114.5t-83 -83t-114.5 -30.5t-114.5 30.5zM1088 0l-136 374h-686l-136 -374h-90l524 1440h90l524 -1440
h-90zM295 454h628l-315 865z" />
    <glyph glyph-name="uni1EB1" unicode="&#x1eb1;" horiz-adv-x="1084" 
d="M617 1470h-88l-96 270h88zM452.5 1242.5q-52.5 30.5 -83 83t-30.5 114.5h78q0 -40 20 -74.5t54.5 -55t75.5 -20.5q40 0 74.5 20.5t55 55t20.5 74.5h78q0 -62 -30.5 -114.5t-83 -83t-114.5 -30.5t-114.5 30.5zM957.5 789q6.5 -56 6.5 -113v-676h-78v197
q-61 -109 -174.5 -168t-257.5 -59q-121 0 -205.5 43t-126.5 114.5t-42 158.5q0 132 82 206.5t212 101.5q156 31 440 62l66 8q1 124 -31.5 203.5t-106 119t-194.5 39.5q-136 0 -218.5 -60.5t-115.5 -185.5l-92 24q36 149 147 227.5t283 78.5q148 0 248.5 -60.5t137.5 -165.5
q13 -39 19.5 -95zM880 582l-23 -2q-143 -13 -258.5 -27t-206.5 -37q-93 -23 -158.5 -77.5t-65.5 -154.5q0 -57 27.5 -109.5t91 -86.5t163.5 -34q116 0 206 42t145.5 122t70.5 190q8 56 8 174z" />
    <glyph glyph-name="uni1EB2" unicode="&#x1eb2;" horiz-adv-x="1218" 
d="M572 2055q-21 0 -44 -11.5t-43 -31.5l-38 49q25 30 60 47.5t71 17.5q66 0 109 -57q31 -41 31 -90q0 -51 -30.5 -98t-80.5 -74l-52 48q44 24 67 55.5t23 63.5q0 25 -14 47q-22 34 -59 34zM494.5 1602.5q-52.5 30.5 -83 83t-30.5 114.5h78q0 -40 20.5 -74.5t55 -55
t74.5 -20.5q41 0 75.5 20.5t54.5 55t20 74.5h78q0 -62 -30.5 -114.5t-83 -83t-114.5 -30.5t-114.5 30.5zM1088 0l-136 374h-686l-136 -374h-90l524 1440h90l524 -1440h-90zM295 454h628l-315 865z" />
    <glyph glyph-name="uni1EB3" unicode="&#x1eb3;" horiz-adv-x="1084" 
d="M536 1695q-21 0 -44 -11.5t-43 -31.5l-38 49q25 30 60 47.5t71 17.5q66 0 109 -57q31 -41 31 -90q0 -51 -30.5 -98t-80.5 -74l-52 48q44 24 67 55.5t23 63.5q0 25 -14 47q-22 34 -59 34zM458.5 1242.5q-52.5 30.5 -83 83t-30.5 114.5h78q0 -40 20.5 -74.5t55 -55
t74.5 -20.5q41 0 75.5 20.5t54.5 55t20 74.5h78q0 -62 -30.5 -114.5t-83 -83t-114.5 -30.5t-114.5 30.5zM957.5 789q6.5 -56 6.5 -113v-676h-78v197q-61 -109 -174.5 -168t-257.5 -59q-121 0 -205.5 43t-126.5 114.5t-42 158.5q0 132 82 206.5t212 101.5q156 31 440 62l66 8
q1 124 -31.5 203.5t-106 119t-194.5 39.5q-136 0 -218.5 -60.5t-115.5 -185.5l-92 24q36 149 147 227.5t283 78.5q148 0 248.5 -60.5t137.5 -165.5q13 -39 19.5 -95zM880 582l-23 -2q-143 -13 -258.5 -27t-206.5 -37q-93 -23 -158.5 -77.5t-65.5 -154.5q0 -57 27.5 -109.5
t91 -86.5t163.5 -34q116 0 206 42t145.5 122t70.5 190q8 56 8 174z" />
    <glyph glyph-name="uni1EB4" unicode="&#x1eb4;" horiz-adv-x="1218" 
d="M329 1860q-5 18 -5 40q0 55 37.5 90.5t95.5 35.5q38 0 74.5 -13.5t87.5 -39.5q44 -22 70.5 -32.5t51.5 -10.5q28 0 43.5 16.5t15.5 43.5q0 18 -5 30h72q5 -17 5 -40q0 -56 -37.5 -93t-97.5 -37q-37 0 -73.5 13.5t-85.5 39.5q-44 22 -71 32.5t-52 10.5q-30 0 -45 -16.5
t-15 -39.5q0 -16 6 -30h-72zM671.5 1670.5q34.5 20.5 54.5 55t20 74.5h78q0 -62 -30.5 -114.5t-83 -83t-114.5 -30.5t-114.5 30.5t-83 83t-30.5 114.5h78q0 -40 20.5 -74.5t55 -55t74.5 -20.5q41 0 75.5 20.5zM1088 0l-136 374h-686l-136 -374h-90l524 1440h90l524 -1440
h-90zM295 454h628l-315 865z" />
    <glyph glyph-name="uni1EB5" unicode="&#x1eb5;" horiz-adv-x="1084" 
d="M259 1500q-5 18 -5 40q0 55 37.5 90.5t95.5 35.5q38 0 74.5 -13.5t87.5 -39.5q44 -22 70.5 -32.5t51.5 -10.5q28 0 43.5 16.5t15.5 43.5q0 18 -5 30h72q5 -17 5 -40q0 -56 -37.5 -93t-97.5 -37q-37 0 -73.5 13.5t-85.5 39.5q-44 22 -71 32.5t-52 10.5q-30 0 -45 -16.5
t-15 -39.5q0 -16 6 -30h-72zM601.5 1310.5q34.5 20.5 54.5 55t20 74.5h78q0 -62 -30.5 -114.5t-83 -83t-114.5 -30.5t-114.5 30.5t-83 83t-30.5 114.5h78q0 -40 20.5 -74.5t55 -55t74.5 -20.5q41 0 75.5 20.5zM957.5 789q6.5 -56 6.5 -113v-676h-78v197
q-61 -109 -174.5 -168t-257.5 -59q-121 0 -205.5 43t-126.5 114.5t-42 158.5q0 132 82 206.5t212 101.5q156 31 440 62l66 8q1 124 -31.5 203.5t-106 119t-194.5 39.5q-136 0 -218.5 -60.5t-115.5 -185.5l-92 24q36 149 147 227.5t283 78.5q148 0 248.5 -60.5t137.5 -165.5
q13 -39 19.5 -95zM880 582l-23 -2q-143 -13 -258.5 -27t-206.5 -37q-93 -23 -158.5 -77.5t-65.5 -154.5q0 -57 27.5 -109.5t91 -86.5t163.5 -34q116 0 206 42t145.5 122t70.5 190q8 56 8 174z" />
    <glyph glyph-name="uni1EB6" unicode="&#x1eb6;" horiz-adv-x="1218" 
d="M495.5 1602.5q-52.5 30.5 -83 83t-30.5 114.5h78q0 -40 20.5 -74.5t55 -55t74.5 -20.5q41 0 75.5 20.5t54.5 55t20 74.5h78q0 -62 -30.5 -114.5t-83 -83t-114.5 -30.5t-114.5 30.5zM1178 0h-90l-136 374h-686l-136 -374h-90l524 1440h90zM295 454h628l-315 865zM549 -380
v128h120v-128h-120z" />
    <glyph glyph-name="uni1EB7" unicode="&#x1eb7;" horiz-adv-x="1084" 
d="M445.5 1242.5q-52.5 30.5 -83 83t-30.5 114.5h78q0 -40 20.5 -74.5t55 -55t74.5 -20.5q41 0 75.5 20.5t54.5 55t20 74.5h78q0 -62 -30.5 -114.5t-83 -83t-114.5 -30.5t-114.5 30.5zM957.5 789q6.5 -56 6.5 -113v-676h-78v197q-61 -109 -174.5 -168t-257.5 -59
q-121 0 -205.5 43t-126.5 114.5t-42 158.5q0 132 82 206.5t212 101.5q156 31 440 62l66 8q1 124 -31.5 203.5t-106 119t-194.5 39.5q-136 0 -218.5 -60.5t-115.5 -185.5l-92 24q36 149 147 227.5t283 78.5q148 0 248.5 -60.5t137.5 -165.5q13 -39 19.5 -95zM880 582l-23 -2
q-143 -13 -258.5 -27t-206.5 -37q-93 -23 -158.5 -77.5t-65.5 -154.5q0 -57 27.5 -109.5t91 -86.5t163.5 -34q116 0 206 42t145.5 122t70.5 190q8 56 8 174zM462 -380v128h120v-128h-120z" />
    <glyph glyph-name="uni1EB8" unicode="&#x1eb8;" horiz-adv-x="1200" 
d="M1020 1440v-84h-796v-594h676v-84h-676v-594h796v-84h-880v1440h880zM520 -252h120v-128h-120v128z" />
    <glyph glyph-name="uni1EB9" unicode="&#x1eb9;" 
d="M808.5 116.5q101.5 62.5 161.5 181.5l70 -40q-66 -138 -187.5 -213t-278.5 -75q-152 0 -263.5 69t-171 197.5t-59.5 303.5q0 176 59.5 304.5t170.5 197t264 68.5q154 0 264.5 -70t169 -203.5t58.5 -320.5h-896q4 -146 53 -249.5t138 -158t213 -54.5q133 0 234.5 62.5z
M290.5 915q-104.5 -111 -118.5 -315h801q-17 207 -119.5 316.5t-279.5 109.5q-179 0 -283.5 -111zM513 -380v128h120v-128h-120z" />
    <glyph glyph-name="uni1EBA" unicode="&#x1eba;" horiz-adv-x="1120" 
d="M505 1907.5q35 17.5 71 17.5q66 0 109 -57q31 -41 31 -90q0 -51 -30.5 -98t-80.5 -74l-52 48q44 24 67 55.5t23 63.5q0 25 -14 47q-22 34 -59 34q-21 0 -44 -11.5t-43 -31.5l-38 49q25 30 60 47.5zM1020 1440v-84h-796v-594h676v-84h-676v-594h796v-84h-880v1440h880z
" />
    <glyph glyph-name="uni1EBB" unicode="&#x1ebb;" horiz-adv-x="1200" 
d="M570 1494q-21 0 -44 -11.5t-43 -31.5l-38 49q25 30 60 47.5t71 17.5q66 0 109 -57q31 -41 31 -90q0 -51 -30.5 -98t-80.5 -74l-52 48q44 24 67 55.5t23 63.5q0 25 -14 47q-22 34 -59 34zM808.5 116.5q101.5 62.5 161.5 181.5l70 -40q-66 -138 -187.5 -213t-278.5 -75
q-152 0 -263.5 69t-171 197.5t-59.5 303.5q0 176 59.5 304.5t170.5 197t264 68.5q154 0 264.5 -70t169 -203.5t58.5 -320.5h-896q4 -146 53 -249.5t138 -158t213 -54.5q133 0 234.5 62.5zM290.5 915q-104.5 -111 -118.5 -315h801q-17 207 -119.5 316.5t-279.5 109.5
q-179 0 -283.5 -111z" />
    <glyph glyph-name="uni1EBC" unicode="&#x1ebc;" horiz-adv-x="1120" 
d="M645.5 1633.5q-36.5 13.5 -85.5 39.5q-43 22 -70.5 32.5t-52.5 10.5q-30 0 -45 -16.5t-15 -39.5q0 -16 6 -30h-72q-5 18 -5 40q0 55 37.5 90.5t95.5 35.5q38 0 74.5 -13.5t87.5 -39.5q44 -22 70.5 -32.5t51.5 -10.5q28 0 43.5 16.5t15.5 43.5q0 18 -5 30h72q5 -17 5 -40
q0 -56 -37.5 -93t-97.5 -37q-37 0 -73.5 13.5zM1020 1440v-84h-796v-594h676v-84h-676v-594h796v-84h-880v1440h880z" />
    <glyph glyph-name="uni1EBD" unicode="&#x1ebd;" 
d="M304 1270q-5 18 -5 40q0 55 37.5 90.5t95.5 35.5q38 0 74.5 -13.5t87.5 -39.5q44 -22 70.5 -32.5t51.5 -10.5q28 0 43.5 16.5t15.5 43.5q0 18 -5 30h72q5 -17 5 -40q0 -56 -37.5 -93t-97.5 -37q-37 0 -73.5 13.5t-85.5 39.5q-43 22 -70.5 32.5t-52.5 10.5
q-30 0 -45 -16.5t-15 -39.5q0 -16 6 -30h-72zM808.5 116.5q101.5 62.5 161.5 181.5l70 -40q-66 -138 -187.5 -213t-278.5 -75q-152 0 -263.5 69t-171 197.5t-59.5 303.5q0 176 59.5 304.5t170.5 197t264 68.5q154 0 264.5 -70t169 -203.5t58.5 -320.5h-896q4 -146 53 -249.5
t138 -158t213 -54.5q133 0 234.5 62.5zM290.5 915q-104.5 -111 -118.5 -315h801q-17 207 -119.5 316.5t-279.5 109.5q-179 0 -283.5 -111z" />
    <glyph glyph-name="uni1EBE" unicode="&#x1ebe;" horiz-adv-x="1120" 
d="M785 1830l96 270h88l-96 -270h-88zM519 1860h92l200 -240h-100l-146 170l-146 -170h-100zM1020 1440v-84h-796v-594h676v-84h-676v-594h796v-84h-880v1440h880z" />
    <glyph glyph-name="uni1EBF" unicode="&#x1ebf;" 
d="M1002 1740l-96 -270h-88l96 270h88zM598 1430l-146 -170h-100l200 240h92l200 -240h-100zM808.5 116.5q101.5 62.5 161.5 181.5l70 -40q-66 -138 -187.5 -213t-278.5 -75q-152 0 -263.5 69t-171 197.5t-59.5 303.5q0 176 59.5 304.5t170.5 197t264 68.5q154 0 264.5 -70
t169 -203.5t58.5 -320.5h-896q4 -146 53 -249.5t138 -158t213 -54.5q133 0 234.5 62.5zM290.5 915q-104.5 -111 -118.5 -315h801q-17 207 -119.5 316.5t-279.5 109.5q-179 0 -283.5 -111z" />
    <glyph glyph-name="uni1EC0" unicode="&#x1ec0;" horiz-adv-x="1120" 
d="M726 2100h88l96 -270h-88zM570 1860h92l200 -240h-100l-146 170l-146 -170h-100zM1020 1440v-84h-796v-594h676v-84h-676v-594h796v-84h-880v1440h880z" />
    <glyph glyph-name="uni1EC1" unicode="&#x1ec1;" 
d="M867 1470h-88l-96 270h88zM573 1430l-146 -170h-100l200 240h92l200 -240h-100zM808.5 116.5q101.5 62.5 161.5 181.5l70 -40q-66 -138 -187.5 -213t-278.5 -75q-152 0 -263.5 69t-171 197.5t-59.5 303.5q0 176 59.5 304.5t170.5 197t264 68.5q154 0 264.5 -70
t169 -203.5t58.5 -320.5h-896q4 -146 53 -249.5t138 -158t213 -54.5q133 0 234.5 62.5zM290.5 915q-104.5 -111 -118.5 -315h801q-17 207 -119.5 316.5t-279.5 109.5q-179 0 -283.5 -111z" />
    <glyph glyph-name="uni1EC2" unicode="&#x1ec2;" horiz-adv-x="1200" 
d="M873 1907.5q35 17.5 71 17.5q66 0 109 -57q31 -41 31 -90q0 -51 -30.5 -98t-80.5 -74l-52 48q44 24 67 55.5t23 63.5q0 25 -14 47q-22 34 -59 34q-21 0 -44 -11.5t-43 -31.5l-38 49q25 30 60 47.5zM541 1860h92l200 -240h-100l-146 170l-146 -170h-100zM1020 1440v-84
h-796v-594h676v-84h-676v-594h796v-84h-880v1440h880z" />
    <glyph glyph-name="uni1EC3" unicode="&#x1ec3;" 
d="M939 1494q-21 0 -44 -11.5t-43 -31.5l-38 49q25 30 60 47.5t71 17.5q66 0 109 -57q31 -41 31 -90q0 -51 -30.5 -98t-80.5 -74l-52 48q44 24 67 55.5t23 63.5q0 25 -14 47q-22 34 -59 34zM588 1430l-146 -170h-100l200 240h92l200 -240h-100zM223 266.5
q49 -103.5 138 -158t213 -54.5q133 0 234.5 62.5t161.5 181.5l70 -40q-66 -138 -187.5 -213t-278.5 -75q-152 0 -263.5 69t-171 197.5t-59.5 303.5q0 176 59.5 304.5t170.5 197t264 68.5q154 0 264.5 -70t169 -203.5t58.5 -320.5h-896q4 -146 53 -249.5zM290.5 915
q-104.5 -111 -118.5 -315h801q-17 207 -119.5 316.5t-279.5 109.5q-179 0 -283.5 -111z" />
    <glyph glyph-name="uni1EC4" unicode="&#x1ec4;" horiz-adv-x="1120" 
d="M645.5 1923.5q-36.5 13.5 -85.5 39.5q-44 22 -71 32.5t-52 10.5q-30 0 -45 -16.5t-15 -39.5q0 -16 6 -30h-72q-5 18 -5 40q0 55 37.5 90.5t95.5 35.5q38 0 74.5 -13.5t87.5 -39.5q44 -22 70.5 -32.5t51.5 -10.5q28 0 43.5 16.5t15.5 43.5q0 18 -5 30h72q5 -17 5 -40
q0 -56 -37.5 -93t-97.5 -37q-37 0 -73.5 13.5zM529 1860h92l200 -240h-100l-146 170l-146 -170h-100zM1020 1440v-84h-796v-594h676v-84h-676v-594h796v-84h-880v1440h880z" />
    <glyph glyph-name="uni1EC5" unicode="&#x1ec5;" 
d="M319 1560q-5 18 -5 40q0 55 37.5 90.5t95.5 35.5q38 0 74.5 -13.5t87.5 -39.5q44 -22 70.5 -32.5t51.5 -10.5q28 0 43.5 16.5t15.5 43.5q0 18 -5 30h72q5 -17 5 -40q0 -56 -37.5 -93t-97.5 -37q-37 0 -73.5 13.5t-85.5 39.5q-44 22 -71 32.5t-52 10.5q-30 0 -45 -16.5
t-15 -39.5q0 -16 6 -30h-72zM537 1500h92l200 -240h-100l-146 170l-146 -170h-100zM808.5 116.5q101.5 62.5 161.5 181.5l70 -40q-66 -138 -187.5 -213t-278.5 -75q-152 0 -263.5 69t-171 197.5t-59.5 303.5q0 176 59.5 304.5t170.5 197t264 68.5q154 0 264.5 -70
t169 -203.5t58.5 -320.5h-896q4 -146 53 -249.5t138 -158t213 -54.5q133 0 234.5 62.5zM290.5 915q-104.5 -111 -118.5 -315h801q-17 207 -119.5 316.5t-279.5 109.5q-179 0 -283.5 -111z" />
    <glyph glyph-name="uni1EC6" unicode="&#x1ec6;" horiz-adv-x="1120" 
d="M616 1860l200 -240h-100l-146 170l-146 -170h-100l200 240h92zM1020 1356h-796v-594h676v-84h-676v-594h796v-84h-880v1440h880v-84zM520 -252h120v-128h-120v128z" />
    <glyph glyph-name="uni1EC7" unicode="&#x1ec7;" 
d="M574 1430l-146 -170h-100l200 240h92l200 -240h-100zM808.5 116.5q101.5 62.5 161.5 181.5l70 -40q-66 -138 -187.5 -213t-278.5 -75q-152 0 -263.5 69t-171 197.5t-59.5 303.5q0 176 59.5 304.5t170.5 197t264 68.5q154 0 264.5 -70t169 -203.5t58.5 -320.5h-896
q4 -146 53 -249.5t138 -158t213 -54.5q133 0 234.5 62.5zM290.5 915q-104.5 -111 -118.5 -315h801q-17 207 -119.5 316.5t-279.5 109.5q-179 0 -283.5 -111zM513 -380v128h120v-128h-120z" />
    <glyph glyph-name="uni1EC8" unicode="&#x1ec8;" horiz-adv-x="404" 
d="M118 1907.5q35 17.5 71 17.5q66 0 109 -57q31 -41 31 -90q0 -51 -30.5 -98t-80.5 -74l-52 48q44 24 67 55.5t23 63.5q0 25 -14 47q-22 34 -59 34q-21 0 -44 -11.5t-43 -31.5l-38 49q25 30 60 47.5zM244 1440v-1440h-84v1440h84z" />
    <glyph glyph-name="uni1EC9" unicode="&#x1ec9;" horiz-adv-x="404" 
d="M109 1547.5q35 17.5 71 17.5q66 0 109 -57q31 -41 31 -90q0 -51 -30.5 -98t-80.5 -74l-52 48q44 24 67 55.5t23 63.5q0 25 -14 47q-22 34 -59 34q-21 0 -44 -11.5t-43 -31.5l-38 49q25 30 60 47.5zM244 1080v-1080h-84v1080h84z" />
    <glyph glyph-name="uni1ECA" unicode="&#x1eca;" horiz-adv-x="404" 
d="M244 1440v-1440h-84v1440h84zM142 -252h120v-128h-120v128z" />
    <glyph glyph-name="uni1ECB" unicode="&#x1ecb;" horiz-adv-x="404" 
d="M244 1440v-128h-84v128h84zM244 1080v-1080h-84v1080h84zM142 -252h120v-128h-120v128z" />
    <glyph glyph-name="uni1ECC" unicode="&#x1ecc;" horiz-adv-x="1412" 
d="M351 64.5q-145 94.5 -218 263.5t-73 392t73 392t218 263.5t355 94.5t355 -94.5t218 -263.5t73 -392t-73 -392t-218 -263.5t-355 -94.5t-355 94.5zM1011.5 138q124.5 84 187.5 234t63 348t-63 348t-187.5 234t-305.5 84q-183 0 -307.5 -85.5t-186.5 -238.5t-62 -354
q0 -194 63.5 -341.5t188.5 -230t304 -82.5q181 0 305.5 84zM622 -252h120v-128h-120v128z" />
    <glyph glyph-name="uni1ECD" unicode="&#x1ecd;" horiz-adv-x="1148" 
d="M306 42q-111 72 -168.5 201.5t-57.5 298.5q0 170 58.5 298.5t170 199t265.5 70.5q158 0 269 -71.5t168 -199.5t57 -297q0 -172 -57.5 -301t-169 -200t-267.5 -71q-157 0 -268 72zM797.5 114.5q90.5 60.5 135.5 170.5t45 257q0 226 -103 355t-301 129q-134 0 -224.5 -61
t-135 -169.5t-44.5 -253.5q0 -148 46 -258t136.5 -170t221.5 -60q133 0 223.5 60.5zM514 -252h120v-128h-120v128z" />
    <glyph glyph-name="uni1ECE" unicode="&#x1ece;" horiz-adv-x="1412" 
d="M655 1907.5q35 17.5 71 17.5q66 0 109 -57q31 -41 31 -90q0 -51 -30.5 -98t-80.5 -74l-52 48q44 24 67 55.5t23 63.5q0 25 -14 47q-22 34 -59 34q-21 0 -44 -11.5t-43 -31.5l-38 49q25 30 60 47.5zM351 64.5q-145 94.5 -218 263.5t-73 392t73 392t218 263.5t355 94.5
t355 -94.5t218 -263.5t73 -392t-73 -392t-218 -263.5t-355 -94.5t-355 94.5zM1011.5 138q124.5 84 187.5 234t63 348t-63 348t-187.5 234t-305.5 84q-183 0 -307.5 -85.5t-186.5 -238.5t-62 -354q0 -194 63.5 -341.5t188.5 -230t304 -82.5q181 0 305.5 84z" />
    <glyph glyph-name="uni1ECF" unicode="&#x1ecf;" horiz-adv-x="1148" 
d="M505 1547.5q35 17.5 71 17.5q66 0 109 -57q31 -41 31 -90q0 -51 -30.5 -98t-80.5 -74l-52 48q44 24 67 55.5t23 63.5q0 25 -14 47q-22 34 -59 34q-21 0 -44 -11.5t-43 -31.5l-38 49q25 30 60 47.5zM306 42q-111 72 -168.5 201.5t-57.5 298.5q0 170 58.5 298.5t170 199
t265.5 70.5q158 0 269 -71.5t168 -199.5t57 -297q0 -172 -57.5 -301t-169 -200t-267.5 -71q-157 0 -268 72zM797.5 114.5q90.5 60.5 135.5 170.5t45 257q0 226 -103 355t-301 129q-134 0 -224.5 -61t-135 -169.5t-44.5 -253.5q0 -148 46 -258t136.5 -170t221.5 -60
q133 0 223.5 60.5z" />
    <glyph glyph-name="uni1ED0" unicode="&#x1ed0;" horiz-adv-x="1412" 
d="M935 1830l96 270h88l-96 -270h-88zM669 1860h92l200 -240h-100l-146 170l-146 -170h-100zM351 64.5q-145 94.5 -218 263.5t-73 392t73 392t218 263.5t355 94.5t355 -94.5t218 -263.5t73 -392t-73 -392t-218 -263.5t-355 -94.5t-355 94.5zM1011.5 138q124.5 84 187.5 234
t63 348t-63 348t-187.5 234t-305.5 84q-183 0 -307.5 -85.5t-186.5 -238.5t-62 -354q0 -194 63.5 -341.5t188.5 -230t304 -82.5q181 0 305.5 84z" />
    <glyph glyph-name="uni1ED1" unicode="&#x1ed1;" horiz-adv-x="1148" 
d="M804 1470l96 270h88l-96 -270h-88zM538 1500h92l200 -240h-100l-146 170l-146 -170h-100zM306 42q-111 72 -168.5 201.5t-57.5 298.5q0 170 58.5 298.5t170 199t265.5 70.5q158 0 269 -71.5t168 -199.5t57 -297q0 -172 -57.5 -301t-169 -200t-267.5 -71q-157 0 -268 72z
M797.5 114.5q90.5 60.5 135.5 170.5t45 257q0 226 -103 355t-301 129q-134 0 -224.5 -61t-135 -169.5t-44.5 -253.5q0 -148 46 -258t136.5 -170t221.5 -60q133 0 223.5 60.5z" />
    <glyph glyph-name="uni1ED2" unicode="&#x1ed2;" horiz-adv-x="1412" 
d="M817 2100h88l96 -270h-88zM661 1860h92l200 -240h-100l-146 170l-146 -170h-100zM351 64.5q-145 94.5 -218 263.5t-73 392t73 392t218 263.5t355 94.5t355 -94.5t218 -263.5t73 -392t-73 -392t-218 -263.5t-355 -94.5t-355 94.5zM1011.5 138q124.5 84 187.5 234t63 348
t-63 348t-187.5 234t-305.5 84q-183 0 -307.5 -85.5t-186.5 -238.5t-62 -354q0 -194 63.5 -341.5t188.5 -230t304 -82.5q181 0 305.5 84z" />
    <glyph glyph-name="uni1ED3" unicode="&#x1ed3;" horiz-adv-x="1148" 
d="M709 1740h88l96 -270h-88zM553 1500h92l200 -240h-100l-146 170l-146 -170h-100zM306 42q-111 72 -168.5 201.5t-57.5 298.5q0 170 58.5 298.5t170 199t265.5 70.5q158 0 269 -71.5t168 -199.5t57 -297q0 -172 -57.5 -301t-169 -200t-267.5 -71q-157 0 -268 72z
M797.5 114.5q90.5 60.5 135.5 170.5t45 257q0 226 -103 355t-301 129q-134 0 -224.5 -61t-135 -169.5t-44.5 -253.5q0 -148 46 -258t136.5 -170t221.5 -60q133 0 223.5 60.5z" />
    <glyph glyph-name="uni1ED4" unicode="&#x1ed4;" horiz-adv-x="1412" 
d="M1029 1907.5q35 17.5 71 17.5q66 0 109 -57q31 -41 31 -90q0 -51 -30.5 -98t-80.5 -74l-52 48q44 24 67 55.5t23 63.5q0 25 -14 47q-22 34 -59 34q-21 0 -44 -11.5t-43 -31.5l-38 49q25 30 60 47.5zM697 1860h92l200 -240h-100l-146 170l-146 -170h-100zM351 64.5
q-145 94.5 -218 263.5t-73 392t73 392t218 263.5t355 94.5t355 -94.5t218 -263.5t73 -392t-73 -392t-218 -263.5t-355 -94.5t-355 94.5zM1011.5 138q124.5 84 187.5 234t63 348t-63 348t-187.5 234t-305.5 84q-183 0 -307.5 -85.5t-186.5 -238.5t-62 -354
q0 -194 63.5 -341.5t188.5 -230t304 -82.5q181 0 305.5 84z" />
    <glyph glyph-name="uni1ED5" unicode="&#x1ed5;" horiz-adv-x="1148" 
d="M859 1547.5q35 17.5 71 17.5q66 0 109 -57q31 -41 31 -90q0 -51 -30.5 -98t-80.5 -74l-52 48q44 24 67 55.5t23 63.5q0 25 -14 47q-22 34 -59 34q-21 0 -44 -11.5t-43 -31.5l-38 49q25 30 60 47.5zM527 1500h92l200 -240h-100l-146 170l-146 -170h-100zM306 42
q-111 72 -168.5 201.5t-57.5 298.5q0 170 58.5 298.5t170 199t265.5 70.5q158 0 269 -71.5t168 -199.5t57 -297q0 -172 -57.5 -301t-169 -200t-267.5 -71q-157 0 -268 72zM797.5 114.5q90.5 60.5 135.5 170.5t45 257q0 226 -103 355t-301 129q-134 0 -224.5 -61t-135 -169.5
t-44.5 -253.5q0 -148 46 -258t136.5 -170t221.5 -60q133 0 223.5 60.5z" />
    <glyph glyph-name="uni1ED6" unicode="&#x1ed6;" horiz-adv-x="1412" 
d="M771.5 1923.5q-36.5 13.5 -85.5 39.5q-43 22 -70.5 32.5t-52.5 10.5q-30 0 -45 -16.5t-15 -39.5q0 -16 6 -30h-72q-5 18 -5 40q0 55 37.5 90.5t95.5 35.5q38 0 74.5 -13.5t87.5 -39.5q44 -22 70.5 -32.5t51.5 -10.5q28 0 43.5 16.5t15.5 43.5q0 18 -5 30h72q5 -17 5 -40
q0 -56 -37.5 -93t-97.5 -37q-37 0 -73.5 13.5zM655 1860h92l200 -240h-100l-146 170l-146 -170h-100zM351 64.5q-145 94.5 -218 263.5t-73 392t73 392t218 263.5t355 94.5t355 -94.5t218 -263.5t73 -392t-73 -392t-218 -263.5t-355 -94.5t-355 94.5zM1011.5 138
q124.5 84 187.5 234t63 348t-63 348t-187.5 234t-305.5 84q-183 0 -307.5 -85.5t-186.5 -238.5t-62 -354q0 -194 63.5 -341.5t188.5 -230t304 -82.5q181 0 305.5 84z" />
    <glyph glyph-name="uni1ED7" unicode="&#x1ed7;" horiz-adv-x="1148" 
d="M646.5 1563.5q-36.5 13.5 -85.5 39.5q-44 22 -71 32.5t-52 10.5q-30 0 -45 -16.5t-15 -39.5q0 -16 6 -30h-72q-5 18 -5 40q0 55 37.5 90.5t95.5 35.5q38 0 74.5 -13.5t87.5 -39.5q44 -22 70.5 -32.5t51.5 -10.5q28 0 43.5 16.5t15.5 43.5q0 18 -5 30h72q5 -17 5 -40
q0 -56 -37.5 -93t-97.5 -37q-37 0 -73.5 13.5zM530 1500h92l200 -240h-100l-146 170l-146 -170h-100zM306 42q-111 72 -168.5 201.5t-57.5 298.5q0 170 58.5 298.5t170 199t265.5 70.5q158 0 269 -71.5t168 -199.5t57 -297q0 -172 -57.5 -301t-169 -200t-267.5 -71
q-157 0 -268 72zM797.5 114.5q90.5 60.5 135.5 170.5t45 257q0 226 -103 355t-301 129q-134 0 -224.5 -61t-135 -169.5t-44.5 -253.5q0 -148 46 -258t136.5 -170t221.5 -60q133 0 223.5 60.5z" />
    <glyph glyph-name="uni1ED8" unicode="&#x1ed8;" horiz-adv-x="1412" 
d="M660 1860h92l200 -240h-100l-146 170l-146 -170h-100zM351 64.5q-145 94.5 -218 263.5t-73 392t73 392t218 263.5t355 94.5t355 -94.5t218 -263.5t73 -392t-73 -392t-218 -263.5t-355 -94.5t-355 94.5zM1011.5 138q124.5 84 187.5 234t63 348t-63 348t-187.5 234
t-305.5 84q-183 0 -307.5 -85.5t-186.5 -238.5t-62 -354q0 -194 63.5 -341.5t188.5 -230t304 -82.5q181 0 305.5 84zM646 -252h120v-128h-120v128z" />
    <glyph glyph-name="uni1ED9" unicode="&#x1ed9;" horiz-adv-x="1148" 
d="M620 1500l200 -240h-100l-146 170l-146 -170h-100l200 240h92zM306 42q-111 72 -168.5 201.5t-57.5 298.5q0 170 58.5 298.5t170 199t265.5 70.5q158 0 269 -71.5t168 -199.5t57 -297q0 -172 -57.5 -301t-169 -200t-267.5 -71q-157 0 -268 72zM797.5 114.5
q90.5 60.5 135.5 170.5t45 257q0 226 -103 355t-301 129q-134 0 -224.5 -61t-135 -169.5t-44.5 -253.5q0 -148 46 -258t136.5 -170t221.5 -60q133 0 223.5 60.5zM514 -252h120v-128h-120v128z" />
    <glyph glyph-name="uni1EDA" unicode="&#x1eda;" horiz-adv-x="1412" 
d="M868 1890l-96 -270h-88l96 270h88zM1280.5 1109q71.5 -168 71.5 -389q0 -223 -73 -392t-218 -263.5t-355 -94.5t-355 94.5t-218 263.5t-73 392t73 392t218 263.5t355 94.5q96 0 186 -22h1l20 -6q42 -10 65 -10q35 0 69 17q40 20 56.5 52.5t16.5 76.5q0 24 -3 48h84
q6 -36 6 -71q0 -101 -67 -152q-33 -24 -70 -33q139 -93 210.5 -261zM1011.5 138q124.5 84 187.5 234t63 348t-63 348t-187.5 234t-305.5 84q-183 0 -307.5 -85.5t-186.5 -238.5t-62 -354q0 -194 63.5 -341.5t188.5 -230t304 -82.5q181 0 305.5 84z" />
    <glyph glyph-name="uni1EDB" unicode="&#x1edb;" horiz-adv-x="1200" 
d="M711 1530l-96 -270h-88l96 270h88zM1024.5 806q43.5 -117 43.5 -264q0 -172 -57.5 -301t-169 -200t-267.5 -71q-157 0 -268 72t-168.5 201.5t-57.5 298.5q0 170 58.5 298.5t170 199t265.5 70.5q96 0 178 -28q53 -15 87 -15q37 0 68 16q40 20 56.5 52.5t16.5 76.5
q0 24 -3 48h84q6 -36 6 -71q0 -101 -67 -152q-19 -15 -46 -25.5t-57 -14.5q84 -74 127.5 -191zM797.5 114.5q90.5 60.5 135.5 170.5t45 257q0 226 -103 355t-301 129q-134 0 -224.5 -61t-135 -169.5t-44.5 -253.5q0 -148 46 -258t136.5 -170t221.5 -60q133 0 223.5 60.5z
" />
    <glyph glyph-name="uni1EDC" unicode="&#x1edc;" horiz-adv-x="1412" 
d="M758 1620h-88l-96 270h88zM1280.5 1109q71.5 -168 71.5 -389q0 -223 -73 -392t-218 -263.5t-355 -94.5t-355 94.5t-218 263.5t-73 392t73 392t218 263.5t355 94.5q96 0 186 -22h1l20 -6q42 -10 65 -10q35 0 69 17q40 20 56.5 52.5t16.5 76.5q0 24 -3 48h84q6 -36 6 -71
q0 -101 -67 -152q-33 -24 -70 -33q139 -93 210.5 -261zM1011.5 138q124.5 84 187.5 234t63 348t-63 348t-187.5 234t-305.5 84q-183 0 -307.5 -85.5t-186.5 -238.5t-62 -354q0 -194 63.5 -341.5t188.5 -230t304 -82.5q181 0 305.5 84z" />
    <glyph glyph-name="uni1EDD" unicode="&#x1edd;" horiz-adv-x="1200" 
d="M611 1260h-88l-96 270h88zM1024.5 806q43.5 -117 43.5 -264q0 -172 -57.5 -301t-169 -200t-267.5 -71q-157 0 -268 72t-168.5 201.5t-57.5 298.5q0 170 58.5 298.5t170 199t265.5 70.5q96 0 178 -28q53 -15 87 -15q37 0 68 16q40 20 56.5 52.5t16.5 76.5q0 24 -3 48h84
q6 -36 6 -71q0 -101 -67 -152q-19 -15 -46 -25.5t-57 -14.5q84 -74 127.5 -191zM797.5 114.5q90.5 60.5 135.5 170.5t45 257q0 226 -103 355t-301 129q-134 0 -224.5 -61t-135 -169.5t-44.5 -253.5q0 -148 46 -258t136.5 -170t221.5 -60q133 0 223.5 60.5z" />
    <glyph glyph-name="uni1EDE" unicode="&#x1ede;" horiz-adv-x="1412" 
d="M720 1854q-21 0 -44 -11.5t-43 -31.5l-38 49q25 30 60 47.5t71 17.5q66 0 109 -57q31 -41 31 -90q0 -51 -30.5 -98t-80.5 -74l-52 48q44 24 67 55.5t23 63.5q0 25 -14 47q-22 34 -59 34zM1280.5 1109q71.5 -168 71.5 -389q0 -223 -73 -392t-218 -263.5t-355 -94.5
t-355 94.5t-218 263.5t-73 392t73 392t218 263.5t355 94.5q96 0 186 -22h1l20 -6q42 -10 65 -10q35 0 69 17q40 20 56.5 52.5t16.5 76.5q0 24 -3 48h84q6 -36 6 -71q0 -101 -67 -152q-33 -24 -70 -33q139 -93 210.5 -261zM1011.5 138q124.5 84 187.5 234t63 348t-63 348
t-187.5 234t-305.5 84q-183 0 -307.5 -85.5t-186.5 -238.5t-62 -354q0 -194 63.5 -341.5t188.5 -230t304 -82.5q181 0 305.5 84z" />
    <glyph glyph-name="uni1EDF" unicode="&#x1edf;" horiz-adv-x="1148" 
d="M570 1494q-21 0 -44 -11.5t-43 -31.5l-38 49q25 30 60 47.5t71 17.5q66 0 109 -57q31 -41 31 -90q0 -51 -30.5 -98t-80.5 -74l-52 48q44 24 67 55.5t23 63.5q0 25 -14 47q-22 34 -59 34zM1024.5 806q43.5 -117 43.5 -264q0 -172 -57.5 -301t-169 -200t-267.5 -71
q-157 0 -268 72t-168.5 201.5t-57.5 298.5q0 170 58.5 298.5t170 199t265.5 70.5q96 0 178 -28q53 -15 87 -15q37 0 68 16q40 20 56.5 52.5t16.5 76.5q0 24 -3 48h84q6 -36 6 -71q0 -101 -67 -152q-19 -15 -46 -25.5t-57 -14.5q84 -74 127.5 -191zM797.5 114.5
q90.5 60.5 135.5 170.5t45 257q0 226 -103 355t-301 129q-134 0 -224.5 -61t-135 -169.5t-44.5 -253.5q0 -148 46 -258t136.5 -170t221.5 -60q133 0 223.5 60.5z" />
    <glyph glyph-name="uni1EE0" unicode="&#x1ee0;" horiz-adv-x="1412" 
d="M437 1630q-5 18 -5 40q0 55 37.5 90.5t95.5 35.5q38 0 74.5 -13.5t87.5 -39.5q44 -22 70.5 -32.5t51.5 -10.5q28 0 43.5 16.5t15.5 43.5q0 18 -5 30h72q5 -17 5 -40q0 -56 -37.5 -93t-97.5 -37q-37 0 -73.5 13.5t-85.5 39.5q-44 22 -71 32.5t-52 10.5q-30 0 -45 -16.5
t-15 -39.5q0 -16 6 -30h-72zM1280.5 1109q71.5 -168 71.5 -389q0 -223 -73 -392t-218 -263.5t-355 -94.5t-355 94.5t-218 263.5t-73 392t73 392t218 263.5t355 94.5q96 0 186 -22h1l20 -6q42 -10 65 -10q35 0 69 17q40 20 56.5 52.5t16.5 76.5q0 24 -3 48h84q6 -36 6 -71
q0 -101 -67 -152q-33 -24 -70 -33q139 -93 210.5 -261zM1011.5 138q124.5 84 187.5 234t63 348t-63 348t-187.5 234t-305.5 84q-183 0 -307.5 -85.5t-186.5 -238.5t-62 -354q0 -194 63.5 -341.5t188.5 -230t304 -82.5q181 0 305.5 84z" />
    <glyph glyph-name="uni1EE1" unicode="&#x1ee1;" horiz-adv-x="1148" 
d="M304 1270q-5 18 -5 40q0 55 37.5 90.5t95.5 35.5q38 0 74.5 -13.5t87.5 -39.5q44 -22 70.5 -32.5t51.5 -10.5q28 0 43.5 16.5t15.5 43.5q0 18 -5 30h72q5 -17 5 -40q0 -56 -37.5 -93t-97.5 -37q-37 0 -73.5 13.5t-85.5 39.5q-43 22 -70.5 32.5t-52.5 10.5
q-30 0 -45 -16.5t-15 -39.5q0 -16 6 -30h-72zM1024.5 806q43.5 -117 43.5 -264q0 -172 -57.5 -301t-169 -200t-267.5 -71q-157 0 -268 72t-168.5 201.5t-57.5 298.5q0 170 58.5 298.5t170 199t265.5 70.5q96 0 178 -28q53 -15 87 -15q37 0 68 16q40 20 56.5 52.5t16.5 76.5
q0 24 -3 48h84q6 -36 6 -71q0 -101 -67 -152q-19 -15 -46 -25.5t-57 -14.5q84 -74 127.5 -191zM797.5 114.5q90.5 60.5 135.5 170.5t45 257q0 226 -103 355t-301 129q-134 0 -224.5 -61t-135 -169.5t-44.5 -253.5q0 -148 46 -258t136.5 -170t221.5 -60q133 0 223.5 60.5z
" />
    <glyph glyph-name="uni1EE2" unicode="&#x1ee2;" horiz-adv-x="1412" 
d="M1280.5 1109q71.5 -168 71.5 -389q0 -223 -73 -392t-218 -263.5t-355 -94.5t-355 94.5t-218 263.5t-73 392t73 392t218 263.5t355 94.5q96 0 186 -22h1l20 -6q42 -10 65 -10q35 0 69 17q40 20 56.5 52.5t16.5 76.5q0 24 -3 48h84q6 -36 6 -71q0 -101 -67 -152
q-33 -24 -70 -33q139 -93 210.5 -261zM1011.5 138q124.5 84 187.5 234t63 348t-63 348t-187.5 234t-305.5 84q-183 0 -307.5 -85.5t-186.5 -238.5t-62 -354q0 -194 63.5 -341.5t188.5 -230t304 -82.5q181 0 305.5 84zM646 -380v128h120v-128h-120z" />
    <glyph glyph-name="uni1EE3" unicode="&#x1ee3;" horiz-adv-x="1148" 
d="M1024.5 806q43.5 -117 43.5 -264q0 -172 -57.5 -301t-169 -200t-267.5 -71q-157 0 -268 72t-168.5 201.5t-57.5 298.5q0 170 58.5 298.5t170 199t265.5 70.5q96 0 178 -28q53 -15 87 -15q37 0 68 16q40 20 56.5 52.5t16.5 76.5q0 24 -3 48h84q6 -36 6 -71
q0 -101 -67 -152q-19 -15 -46 -25.5t-57 -14.5q84 -74 127.5 -191zM797.5 114.5q90.5 60.5 135.5 170.5t45 257q0 226 -103 355t-301 129q-134 0 -224.5 -61t-135 -169.5t-44.5 -253.5q0 -148 46 -258t136.5 -170t221.5 -60q133 0 223.5 60.5zM513 -380v128h120v-128h-120z
" />
    <glyph glyph-name="uni1EE4" unicode="&#x1ee4;" horiz-adv-x="1380" 
d="M406 37q-125 67 -195.5 190t-70.5 283v930h84v-902q0 -166 72.5 -276t180 -161t213.5 -51t213.5 51t180 161t72.5 276v902h84v-930q0 -159 -70.5 -282t-195.5 -190.5t-284 -67.5t-284 67zM630 -252h120v-128h-120v128z" />
    <glyph glyph-name="uni1EE5" unicode="&#x1ee5;" 
d="M1006 1080v-1080h-78v175q-58 -101 -154.5 -150t-215.5 -49q-136 0 -234.5 62t-151 178.5t-52.5 275.5v588h84v-572q0 -227 91.5 -338.5t262.5 -111.5q126 0 207.5 57.5t119 155t37.5 219.5v590h84zM503 -380v128h120v-128h-120z" />
    <glyph glyph-name="uni1EE6" unicode="&#x1ee6;" horiz-adv-x="1380" 
d="M622 1907.5q35 17.5 71 17.5q66 0 109 -57q31 -41 31 -90q0 -51 -30.5 -98t-80.5 -74l-52 48q44 24 67 55.5t23 63.5q0 25 -14 47q-22 34 -59 34q-21 0 -44 -11.5t-43 -31.5l-38 49q25 30 60 47.5zM406 37q-125 67 -195.5 190t-70.5 283v930h84v-902q0 -166 72.5 -276
t180 -161t213.5 -51t213.5 51t180 161t72.5 276v902h84v-930q0 -159 -70.5 -282t-195.5 -190.5t-284 -67.5t-284 67z" />
    <glyph glyph-name="uni1EE7" unicode="&#x1ee7;" 
d="M570 1494q-21 0 -44 -11.5t-43 -31.5l-38 49q25 30 60 47.5t71 17.5q66 0 109 -57q31 -41 31 -90q0 -51 -30.5 -98t-80.5 -74l-52 48q44 24 67 55.5t23 63.5q0 25 -14 47q-22 34 -59 34zM1006 1080v-1080h-78v175q-58 -101 -154.5 -150t-215.5 -49q-136 0 -234.5 62
t-151 178.5t-52.5 275.5v588h84v-572q0 -227 91.5 -338.5t262.5 -111.5q126 0 207.5 57.5t119 155t37.5 219.5v590h84z" />
    <glyph glyph-name="uni1EE8" unicode="&#x1ee8;" horiz-adv-x="1380" 
d="M807 1890l-96 -270h-88l96 270h88zM1412 1547q0 -101 -67 -151q-41 -31 -105 -33v-853q0 -159 -70.5 -282t-195.5 -190.5t-284 -67.5t-284 67t-195.5 190t-70.5 283v930h84v-902q0 -166 72.5 -276t180 -161t213.5 -51t213.5 51t180 161t72.5 276v902h21q5 0 29.5 1
t45.5 6q41 10 57.5 39t16.5 72q0 27 -5 62h84q7 -42 7 -73z" />
    <glyph glyph-name="uni1EE9" unicode="&#x1ee9;" 
d="M700 1530l-96 -270h-88l96 270h88zM1178 1187q0 -101 -67 -151q-41 -31 -105 -33v-1003h-78v175q-58 -101 -154.5 -150t-215.5 -49q-136 0 -234.5 62t-151 178.5t-52.5 275.5v588h84v-572q0 -227 91.5 -338.5t262.5 -111.5q126 0 207.5 57.5t119 155t37.5 219.5v590h21
q5 0 29.5 1t45.5 6q41 10 57.5 39t16.5 72q0 27 -5 62h84q7 -42 7 -73z" />
    <glyph glyph-name="uni1EEA" unicode="&#x1eea;" horiz-adv-x="1380" 
d="M757 1620h-88l-96 270h88zM1412 1547q0 -101 -67 -151q-41 -31 -105 -33v-853q0 -159 -70.5 -282t-195.5 -190.5t-284 -67.5t-284 67t-195.5 190t-70.5 283v930h84v-902q0 -166 72.5 -276t180 -161t213.5 -51t213.5 51t180 161t72.5 276v902h21q5 0 29.5 1t45.5 6
q41 10 57.5 39t16.5 72q0 27 -5 62h84q7 -42 7 -73z" />
    </font>
</defs>
</svg>
